%
M48
M72
T01C0.01181
T02C0.02400
T03C0.03150
T04C0.03937
T05C0.04000
T06C0.05118
T07C0.05200
T08C0.05512
T09C0.08661
T10C0.12598
%
T01
X32017Y66568
X38017Y80068
X32017Y80568
X39517Y89568
X32017Y100568
X32017Y114568
X32017Y128068
X32017Y142068
X47517Y160068
X54517Y216068
X50017Y219068
X51017Y223568
X90017Y272068
X95517Y279068
X100517Y274568
X123517Y268568
X140517Y289568
X125017Y299568
X117517Y301068
X143017Y333068
X159517Y330068
X173017Y321068
X162017Y317568
X219123Y282312
X226017Y296068
X241434Y299568
X252017Y302568
X262517Y302568
X253375Y313808
X252784Y319910
X265517Y317568
X280954Y299568
X276209Y295501
X285517Y285068
X289517Y285068
X293926Y282318
X288017Y279568
X277517Y273568
X285517Y255068
X305017Y250068
X313517Y250068
X319517Y265068
X323517Y273568
X322017Y279568
X324017Y285068
X327517Y285068
X335658Y282318
X320107Y299791
X316170Y295501
X331017Y302568
X331721Y317351
X344517Y317068
X359267Y299568
X355737Y296091
X360017Y273568
X360017Y255068
X353517Y239068
X360068Y225225
X346288Y218335
X332902Y225619
X308099Y208068
X303017Y216068
X299017Y201068
X305517Y187068
X287517Y183068
X285017Y187568
X272267Y184818
X263017Y182068
X251517Y180068
X245517Y165568
X231517Y183068
X233690Y196682
X220017Y200568
X217017Y223568
X233493Y237233
X226517Y250068
X224517Y253568
X216367Y255934
X223017Y264068
X247017Y273568
X248517Y285068
X245017Y285568
X256131Y282318
X223060Y315776
X254556Y247666
X270894Y234083
X263517Y223568
X280017Y205068
X255017Y194568
X205103Y166099
X193517Y156068
X190517Y162568
X167017Y173131
X163017Y191068
X198017Y232068
X120517Y233568
X115068Y120068
X224241Y89005
X260658Y81918
X298454Y63808
X315517Y63068
X328017Y75568
X324517Y79568
X335017Y66068
X325017Y115568
X322017Y117568
X323517Y128568
X334805Y180606
X326517Y183068
X351017Y192568
X295017Y297068
X305017Y317568
X292517Y348068
X374017Y318068
X286517Y28068
T02
X269674Y121879
X259674Y121879
X249674Y121879
X269123Y148099
X269123Y158099
X269123Y168099
X229753Y168099
X229753Y158099
X229753Y148099
X308493Y148099
X308493Y158099
X308493Y168099
X347863Y168099
X347863Y158099
X347863Y148099
X327942Y121879
X317942Y121879
X307942Y121879
T03
X300855Y355973
X310855Y365973
X320855Y355973
X340225Y355973
X350225Y365973
X360225Y355973
X360225Y375973
X340225Y375973
X320855Y375973
X300855Y375973
X281485Y375973
X271485Y365973
X261485Y355973
X281485Y355973
X261485Y375973
X242115Y375973
X232115Y365973
X222115Y355973
X242115Y355973
X222115Y375973
T04
X179123Y348454
X179123Y338454
X179123Y328454
X179123Y318454
X179123Y308454
X179123Y258454
X179123Y228454
X99989Y228454
X99989Y258454
X99989Y308454
X99989Y318454
X99989Y328454
X99989Y338454
X99989Y348454
X277745Y221091
X287745Y221091
X297745Y221091
X307745Y221091
X368335Y102784
X368335Y92784
X368335Y82784
X368335Y72784
X368335Y62784
X368335Y52784
T05
X40265Y159162
X30265Y159162
X30265Y169162
X40265Y169162
X40265Y179162
X30265Y179162
X30265Y189162
X40265Y189162
X40265Y199162
X30265Y199162
X30265Y209162
X40265Y209162
X40265Y219162
X40265Y229162
X30265Y229162
X30265Y219162
X30265Y239162
X40265Y239162
X40265Y249162
X30265Y249162
X30265Y259162
X40265Y259162
X40265Y269162
X30265Y269162
X30265Y279162
X40265Y279162
X40265Y289162
X30265Y289162
X30265Y299162
X40265Y299162
X40265Y309162
X30265Y309162
X30265Y319162
X40265Y319162
X40265Y329162
X30265Y329162
X30265Y339162
X40265Y339162
X40265Y349162
X30265Y349162
T06
X307194Y49595
T07
X308926Y37430
X298926Y37430
X288926Y37430
X318926Y37430
X328926Y37430
X327942Y102194
X317942Y102194
X307942Y102194
X269674Y102194
X259674Y102194
X249674Y102194
X383454Y116131
X383454Y126131
X383454Y136131
X383454Y146131
X383454Y156131
X383454Y166131
X383454Y176131
X383454Y186131
X383454Y196131
X383454Y206131
X383454Y216131
X383454Y226131
X383454Y236131
X383454Y246131
X383454Y266131
X383454Y276131
X383454Y286131
X383454Y296131
X383454Y306131
X383454Y316131
X383454Y326131
X383454Y336131
X383454Y346131
T08
X190422Y180580
X160422Y180580
X111682Y179989
X81682Y179989
T09
X127548Y218572
X206682Y218572
X143690Y358335
X64556Y358335
T10
X35265Y25816
X66761Y39595
X232115Y39595
X377784Y25816
X377784Y368335
X35265Y368335
M30
