G75*
%MOIN*%
%OFA0B0*%
%FSLAX25Y25*%
%IPPOS*%
%LPD*%
%AMOC8*
5,1,8,0,0,1.08239X$1,22.5*
%
%ADD10C,0.00400*%
%ADD11C,0.00300*%
%ADD12C,0.00500*%
%ADD13C,0.00600*%
%ADD14C,0.01000*%
D10*
X0090645Y0173377D02*
X0093715Y0173377D01*
X0094482Y0174144D01*
X0094482Y0175679D01*
X0093715Y0176446D01*
X0092180Y0176446D01*
X0092180Y0174912D01*
X0090645Y0176446D02*
X0089878Y0175679D01*
X0089878Y0174144D01*
X0090645Y0173377D01*
X0089878Y0177981D02*
X0094482Y0181050D01*
X0089878Y0181050D01*
X0089878Y0182585D02*
X0089878Y0184887D01*
X0090645Y0185654D01*
X0093715Y0185654D01*
X0094482Y0184887D01*
X0094482Y0182585D01*
X0089878Y0182585D01*
X0089878Y0177981D02*
X0094482Y0177981D01*
X0098878Y0178050D02*
X0103482Y0178050D01*
X0101947Y0179585D02*
X0103482Y0181120D01*
X0101947Y0182654D01*
X0098878Y0182654D01*
X0098878Y0179585D02*
X0101947Y0179585D01*
X0101180Y0178050D02*
X0101180Y0174981D01*
X0103482Y0174981D02*
X0098878Y0174981D01*
X0094789Y0206030D02*
X0090185Y0206030D01*
X0092487Y0206030D02*
X0092487Y0209099D01*
X0093254Y0210634D02*
X0094789Y0212168D01*
X0093254Y0213703D01*
X0090185Y0213703D01*
X0090185Y0210634D02*
X0093254Y0210634D01*
X0094789Y0209099D02*
X0090185Y0209099D01*
X0090952Y0219842D02*
X0094022Y0219842D01*
X0094789Y0220609D01*
X0094789Y0222144D01*
X0094022Y0222911D01*
X0090952Y0222911D01*
X0090185Y0222144D01*
X0090185Y0220609D01*
X0090952Y0219842D01*
X0090185Y0224446D02*
X0094022Y0224446D01*
X0094789Y0225213D01*
X0094789Y0226748D01*
X0094022Y0227515D01*
X0090185Y0227515D01*
X0090185Y0229050D02*
X0090185Y0232119D01*
X0090185Y0230584D02*
X0094789Y0230584D01*
X0105185Y0229050D02*
X0105185Y0232119D01*
X0105952Y0232119D01*
X0109022Y0229050D01*
X0109789Y0229050D01*
X0094022Y0249842D02*
X0090952Y0249842D01*
X0090185Y0250609D01*
X0090185Y0252144D01*
X0090952Y0252911D01*
X0092487Y0252911D02*
X0092487Y0251376D01*
X0092487Y0252911D02*
X0094022Y0252911D01*
X0094789Y0252144D01*
X0094789Y0250609D01*
X0094022Y0249842D01*
X0094789Y0254446D02*
X0090185Y0254446D01*
X0094789Y0257515D01*
X0090185Y0257515D01*
X0090185Y0259050D02*
X0090185Y0261352D01*
X0090952Y0262119D01*
X0094022Y0262119D01*
X0094789Y0261352D01*
X0094789Y0259050D01*
X0090185Y0259050D01*
X0105185Y0262119D02*
X0105952Y0260584D01*
X0107487Y0259050D01*
X0107487Y0261352D01*
X0108254Y0262119D01*
X0109022Y0262119D01*
X0109789Y0261352D01*
X0109789Y0259817D01*
X0109022Y0259050D01*
X0107487Y0259050D01*
X0107487Y0309050D02*
X0105185Y0309050D01*
X0105185Y0312119D01*
X0106720Y0311352D02*
X0107487Y0312119D01*
X0109022Y0312119D01*
X0109789Y0311352D01*
X0109789Y0309817D01*
X0109022Y0309050D01*
X0107487Y0309050D02*
X0106720Y0310584D01*
X0106720Y0311352D01*
X0106720Y0349050D02*
X0105185Y0350584D01*
X0109789Y0350584D01*
X0109789Y0349050D02*
X0109789Y0352119D01*
X0184319Y0350584D02*
X0185854Y0349050D01*
X0184319Y0350584D02*
X0188923Y0350584D01*
X0188923Y0349050D02*
X0188923Y0352119D01*
X0220740Y0315403D02*
X0219972Y0314636D01*
X0219972Y0311567D01*
X0220740Y0310799D01*
X0222274Y0310799D01*
X0223042Y0311567D01*
X0224576Y0311567D02*
X0225344Y0310799D01*
X0226878Y0310799D01*
X0227646Y0311567D01*
X0227646Y0313101D01*
X0226878Y0313868D01*
X0226111Y0313868D01*
X0224576Y0313101D01*
X0224576Y0315403D01*
X0227646Y0315403D01*
X0229180Y0314636D02*
X0229180Y0313868D01*
X0229948Y0313101D01*
X0231482Y0313101D01*
X0232250Y0312334D01*
X0232250Y0311567D01*
X0231482Y0310799D01*
X0229948Y0310799D01*
X0229180Y0311567D01*
X0229180Y0312334D01*
X0229948Y0313101D01*
X0231482Y0313101D02*
X0232250Y0313868D01*
X0232250Y0314636D01*
X0231482Y0315403D01*
X0229948Y0315403D01*
X0229180Y0314636D01*
X0236370Y0314380D02*
X0236370Y0311311D01*
X0237137Y0310543D01*
X0238672Y0310543D01*
X0239439Y0311311D01*
X0240974Y0311311D02*
X0241741Y0310543D01*
X0243276Y0310543D01*
X0244043Y0311311D01*
X0244043Y0312845D01*
X0243276Y0313613D01*
X0242509Y0313613D01*
X0240974Y0312845D01*
X0240974Y0315147D01*
X0244043Y0315147D01*
X0245578Y0312845D02*
X0247880Y0312845D01*
X0248647Y0312078D01*
X0248647Y0311311D01*
X0247880Y0310543D01*
X0246345Y0310543D01*
X0245578Y0311311D01*
X0245578Y0312845D01*
X0247113Y0314380D01*
X0248647Y0315147D01*
X0239439Y0314380D02*
X0238672Y0315147D01*
X0237137Y0315147D01*
X0236370Y0314380D01*
X0223042Y0314636D02*
X0222274Y0315403D01*
X0220740Y0315403D01*
X0222570Y0299399D02*
X0221803Y0298632D01*
X0221803Y0295563D01*
X0222570Y0294795D01*
X0224105Y0294795D01*
X0224872Y0295563D01*
X0226407Y0295563D02*
X0227174Y0294795D01*
X0228709Y0294795D01*
X0229476Y0295563D01*
X0229476Y0297097D01*
X0228709Y0297865D01*
X0227942Y0297865D01*
X0226407Y0297097D01*
X0226407Y0299399D01*
X0229476Y0299399D01*
X0231011Y0298632D02*
X0231011Y0297865D01*
X0231778Y0297097D01*
X0234080Y0297097D01*
X0234080Y0295563D02*
X0234080Y0298632D01*
X0233313Y0299399D01*
X0231778Y0299399D01*
X0231011Y0298632D01*
X0231011Y0295563D02*
X0231778Y0294795D01*
X0233313Y0294795D01*
X0234080Y0295563D01*
X0242807Y0296132D02*
X0242807Y0293063D01*
X0243574Y0292295D01*
X0245109Y0292295D01*
X0245876Y0293063D01*
X0247411Y0293063D02*
X0248178Y0292295D01*
X0249713Y0292295D01*
X0250480Y0293063D01*
X0250480Y0294597D01*
X0249713Y0295365D01*
X0248946Y0295365D01*
X0247411Y0294597D01*
X0247411Y0296899D01*
X0250480Y0296899D01*
X0252015Y0296899D02*
X0255084Y0296899D01*
X0255084Y0296132D01*
X0252015Y0293063D01*
X0252015Y0292295D01*
X0245876Y0296132D02*
X0245109Y0296899D01*
X0243574Y0296899D01*
X0242807Y0296132D01*
X0259598Y0295563D02*
X0260366Y0294795D01*
X0261900Y0294795D01*
X0262668Y0295563D01*
X0264202Y0295563D02*
X0264970Y0294795D01*
X0266504Y0294795D01*
X0267272Y0295563D01*
X0267272Y0297097D01*
X0266504Y0297865D01*
X0265737Y0297865D01*
X0264202Y0297097D01*
X0264202Y0299399D01*
X0267272Y0299399D01*
X0268806Y0299399D02*
X0268806Y0297097D01*
X0270341Y0297865D01*
X0271108Y0297865D01*
X0271876Y0297097D01*
X0271876Y0295563D01*
X0271108Y0294795D01*
X0269574Y0294795D01*
X0268806Y0295563D01*
X0268806Y0299399D02*
X0271876Y0299399D01*
X0262668Y0298632D02*
X0261900Y0299399D01*
X0260366Y0299399D01*
X0259598Y0298632D01*
X0259598Y0295563D01*
X0260110Y0310799D02*
X0261644Y0310799D01*
X0262412Y0311567D01*
X0263946Y0311567D02*
X0264714Y0310799D01*
X0266248Y0310799D01*
X0267016Y0311567D01*
X0267016Y0313101D01*
X0266248Y0313868D01*
X0265481Y0313868D01*
X0263946Y0313101D01*
X0263946Y0315403D01*
X0267016Y0315403D01*
X0268550Y0313101D02*
X0271620Y0313101D01*
X0270852Y0310799D02*
X0270852Y0315403D01*
X0268550Y0313101D01*
X0262412Y0314636D02*
X0261644Y0315403D01*
X0260110Y0315403D01*
X0259343Y0314636D01*
X0259343Y0311567D01*
X0260110Y0310799D01*
X0275740Y0311311D02*
X0276507Y0310543D01*
X0278042Y0310543D01*
X0278809Y0311311D01*
X0280344Y0311311D02*
X0281111Y0310543D01*
X0282646Y0310543D01*
X0283413Y0311311D01*
X0283413Y0312845D01*
X0282646Y0313613D01*
X0281879Y0313613D01*
X0280344Y0312845D01*
X0280344Y0315147D01*
X0283413Y0315147D01*
X0284948Y0314380D02*
X0285715Y0315147D01*
X0287250Y0315147D01*
X0288017Y0314380D01*
X0288017Y0313613D01*
X0284948Y0310543D01*
X0288017Y0310543D01*
X0278809Y0314380D02*
X0278042Y0315147D01*
X0276507Y0315147D01*
X0275740Y0314380D01*
X0275740Y0311311D01*
X0282944Y0296899D02*
X0282177Y0296132D01*
X0282177Y0293063D01*
X0282944Y0292295D01*
X0284479Y0292295D01*
X0285246Y0293063D01*
X0286781Y0293063D02*
X0287548Y0292295D01*
X0289083Y0292295D01*
X0289850Y0293063D01*
X0289850Y0294597D01*
X0289083Y0295365D01*
X0288316Y0295365D01*
X0286781Y0294597D01*
X0286781Y0296899D01*
X0289850Y0296899D01*
X0291385Y0296132D02*
X0292152Y0296899D01*
X0293687Y0296899D01*
X0294454Y0296132D01*
X0294454Y0295365D01*
X0293687Y0294597D01*
X0294454Y0293830D01*
X0294454Y0293063D01*
X0293687Y0292295D01*
X0292152Y0292295D01*
X0291385Y0293063D01*
X0292920Y0294597D02*
X0293687Y0294597D01*
X0300543Y0295563D02*
X0301311Y0294795D01*
X0302845Y0294795D01*
X0303613Y0295563D01*
X0305147Y0297097D02*
X0308217Y0297097D01*
X0309751Y0295563D02*
X0309751Y0294795D01*
X0309751Y0295563D02*
X0312820Y0298632D01*
X0312820Y0299399D01*
X0309751Y0299399D01*
X0307449Y0299399D02*
X0305147Y0297097D01*
X0303613Y0298632D02*
X0302845Y0299399D01*
X0301311Y0299399D01*
X0300543Y0298632D01*
X0300543Y0295563D01*
X0307449Y0294795D02*
X0307449Y0299399D01*
X0308688Y0310799D02*
X0310222Y0310799D01*
X0310990Y0311567D01*
X0310990Y0312334D01*
X0310222Y0313101D01*
X0307920Y0313101D01*
X0307920Y0311567D01*
X0308688Y0310799D01*
X0307920Y0313101D02*
X0309455Y0314636D01*
X0310990Y0315403D01*
X0315110Y0314380D02*
X0315110Y0311311D01*
X0315878Y0310543D01*
X0317412Y0310543D01*
X0318180Y0311311D01*
X0319714Y0312845D02*
X0322016Y0315147D01*
X0322016Y0310543D01*
X0322783Y0312845D02*
X0319714Y0312845D01*
X0318180Y0314380D02*
X0317412Y0315147D01*
X0315878Y0315147D01*
X0315110Y0314380D01*
X0306386Y0313101D02*
X0303317Y0313101D01*
X0305618Y0315403D01*
X0305618Y0310799D01*
X0301782Y0311567D02*
X0301015Y0310799D01*
X0299480Y0310799D01*
X0298713Y0311567D01*
X0298713Y0314636D01*
X0299480Y0315403D01*
X0301015Y0315403D01*
X0301782Y0314636D01*
X0284479Y0296899D02*
X0282944Y0296899D01*
X0284479Y0296899D02*
X0285246Y0296132D01*
X0321547Y0296132D02*
X0321547Y0293063D01*
X0322315Y0292295D01*
X0323849Y0292295D01*
X0324617Y0293063D01*
X0326151Y0294597D02*
X0329220Y0294597D01*
X0330755Y0294597D02*
X0332290Y0295365D01*
X0333057Y0295365D01*
X0333824Y0294597D01*
X0333824Y0293063D01*
X0333057Y0292295D01*
X0331522Y0292295D01*
X0330755Y0293063D01*
X0330755Y0294597D02*
X0330755Y0296899D01*
X0333824Y0296899D01*
X0328453Y0296899D02*
X0328453Y0292295D01*
X0326151Y0294597D02*
X0328453Y0296899D01*
X0324617Y0296132D02*
X0323849Y0296899D01*
X0322315Y0296899D01*
X0321547Y0296132D01*
X0326620Y0310543D02*
X0326620Y0315147D01*
X0324318Y0312845D01*
X0327387Y0312845D01*
X0338083Y0311567D02*
X0338850Y0310799D01*
X0340385Y0310799D01*
X0341152Y0311567D01*
X0342687Y0313101D02*
X0345756Y0313101D01*
X0347291Y0314636D02*
X0348058Y0315403D01*
X0349592Y0315403D01*
X0350360Y0314636D01*
X0350360Y0313868D01*
X0347291Y0310799D01*
X0350360Y0310799D01*
X0354480Y0311311D02*
X0354480Y0314380D01*
X0355248Y0315147D01*
X0356782Y0315147D01*
X0357550Y0314380D01*
X0359084Y0312845D02*
X0362154Y0312845D01*
X0363688Y0311311D02*
X0366757Y0314380D01*
X0366757Y0311311D01*
X0365990Y0310543D01*
X0364455Y0310543D01*
X0363688Y0311311D01*
X0363688Y0314380D01*
X0364455Y0315147D01*
X0365990Y0315147D01*
X0366757Y0314380D01*
X0361386Y0315147D02*
X0361386Y0310543D01*
X0359084Y0312845D02*
X0361386Y0315147D01*
X0357550Y0311311D02*
X0356782Y0310543D01*
X0355248Y0310543D01*
X0354480Y0311311D01*
X0344989Y0310799D02*
X0344989Y0315403D01*
X0342687Y0313101D01*
X0341152Y0314636D02*
X0340385Y0315403D01*
X0338850Y0315403D01*
X0338083Y0314636D01*
X0338083Y0311567D01*
X0340681Y0299399D02*
X0339913Y0298632D01*
X0339913Y0295563D01*
X0340681Y0294795D01*
X0342215Y0294795D01*
X0342983Y0295563D01*
X0344517Y0297097D02*
X0346819Y0299399D01*
X0346819Y0294795D01*
X0347587Y0297097D02*
X0344517Y0297097D01*
X0342983Y0298632D02*
X0342215Y0299399D01*
X0340681Y0299399D01*
X0349121Y0298632D02*
X0349889Y0299399D01*
X0351423Y0299399D01*
X0352191Y0298632D01*
X0352191Y0297865D01*
X0351423Y0297097D01*
X0352191Y0296330D01*
X0352191Y0295563D01*
X0351423Y0294795D01*
X0349889Y0294795D01*
X0349121Y0295563D01*
X0350656Y0297097D02*
X0351423Y0297097D01*
X0360917Y0296132D02*
X0360917Y0293063D01*
X0361685Y0292295D01*
X0363219Y0292295D01*
X0363987Y0293063D01*
X0365521Y0294597D02*
X0368591Y0294597D01*
X0370125Y0295365D02*
X0371660Y0296899D01*
X0371660Y0292295D01*
X0373194Y0292295D02*
X0370125Y0292295D01*
X0367823Y0292295D02*
X0367823Y0296899D01*
X0365521Y0294597D01*
X0363987Y0296132D02*
X0363219Y0296899D01*
X0361685Y0296899D01*
X0360917Y0296132D01*
X0360152Y0345957D02*
X0359384Y0346724D01*
X0362454Y0349793D01*
X0362454Y0346724D01*
X0361686Y0345957D01*
X0360152Y0345957D01*
X0359384Y0346724D02*
X0359384Y0349793D01*
X0360152Y0350561D01*
X0361686Y0350561D01*
X0362454Y0349793D01*
X0357850Y0350561D02*
X0356315Y0350561D01*
X0357082Y0350561D02*
X0357082Y0346724D01*
X0356315Y0345957D01*
X0355548Y0345957D01*
X0354780Y0346724D01*
X0323083Y0345957D02*
X0320014Y0345957D01*
X0321549Y0345957D02*
X0321549Y0350561D01*
X0320014Y0349026D01*
X0318480Y0350561D02*
X0316945Y0350561D01*
X0317712Y0350561D02*
X0317712Y0346724D01*
X0316945Y0345957D01*
X0316178Y0345957D01*
X0315410Y0346724D01*
X0283713Y0345957D02*
X0280644Y0345957D01*
X0283713Y0349026D01*
X0283713Y0349793D01*
X0282946Y0350561D01*
X0281411Y0350561D01*
X0280644Y0349793D01*
X0279109Y0350561D02*
X0277575Y0350561D01*
X0278342Y0350561D02*
X0278342Y0346724D01*
X0277575Y0345957D01*
X0276807Y0345957D01*
X0276040Y0346724D01*
X0244343Y0346724D02*
X0243576Y0345957D01*
X0242041Y0345957D01*
X0241274Y0346724D01*
X0242809Y0348259D02*
X0243576Y0348259D01*
X0244343Y0347491D01*
X0244343Y0346724D01*
X0243576Y0348259D02*
X0244343Y0349026D01*
X0244343Y0349793D01*
X0243576Y0350561D01*
X0242041Y0350561D01*
X0241274Y0349793D01*
X0239739Y0350561D02*
X0238205Y0350561D01*
X0238972Y0350561D02*
X0238972Y0346724D01*
X0238205Y0345957D01*
X0237437Y0345957D01*
X0236670Y0346724D01*
X0188923Y0311352D02*
X0188923Y0309817D01*
X0188156Y0309050D01*
X0186621Y0309050D02*
X0185854Y0310584D01*
X0185854Y0311352D01*
X0186621Y0312119D01*
X0188156Y0312119D01*
X0188923Y0311352D01*
X0186621Y0309050D02*
X0184319Y0309050D01*
X0184319Y0312119D01*
X0222570Y0299399D02*
X0224105Y0299399D01*
X0224872Y0298632D01*
X0188156Y0262119D02*
X0187388Y0262119D01*
X0186621Y0261352D01*
X0186621Y0259050D01*
X0188156Y0259050D01*
X0188923Y0259817D01*
X0188923Y0261352D01*
X0188156Y0262119D01*
X0186621Y0259050D02*
X0185086Y0260584D01*
X0184319Y0262119D01*
X0173923Y0261352D02*
X0173156Y0262119D01*
X0170086Y0262119D01*
X0169319Y0261352D01*
X0169319Y0259050D01*
X0173923Y0259050D01*
X0173923Y0261352D01*
X0173923Y0257515D02*
X0169319Y0257515D01*
X0169319Y0254446D02*
X0173923Y0257515D01*
X0173923Y0254446D02*
X0169319Y0254446D01*
X0170086Y0252911D02*
X0169319Y0252144D01*
X0169319Y0250609D01*
X0170086Y0249842D01*
X0173156Y0249842D01*
X0173923Y0250609D01*
X0173923Y0252144D01*
X0173156Y0252911D01*
X0171621Y0252911D01*
X0171621Y0251376D01*
X0169319Y0232119D02*
X0169319Y0229050D01*
X0169319Y0230584D02*
X0173923Y0230584D01*
X0173156Y0227515D02*
X0169319Y0227515D01*
X0169319Y0224446D02*
X0173156Y0224446D01*
X0173923Y0225213D01*
X0173923Y0226748D01*
X0173156Y0227515D01*
X0173156Y0222911D02*
X0170086Y0222911D01*
X0169319Y0222144D01*
X0169319Y0220609D01*
X0170086Y0219842D01*
X0173156Y0219842D01*
X0173923Y0220609D01*
X0173923Y0222144D01*
X0173156Y0222911D01*
X0172388Y0213703D02*
X0169319Y0213703D01*
X0169319Y0210634D02*
X0172388Y0210634D01*
X0173923Y0212168D01*
X0172388Y0213703D01*
X0171621Y0209099D02*
X0171621Y0206030D01*
X0173923Y0206030D02*
X0169319Y0206030D01*
X0169319Y0209099D02*
X0173923Y0209099D01*
X0184319Y0229050D02*
X0184319Y0232119D01*
X0185086Y0232119D01*
X0188156Y0229050D01*
X0188923Y0229050D01*
X0172455Y0186245D02*
X0169385Y0186245D01*
X0168618Y0185478D01*
X0168618Y0183176D01*
X0173222Y0183176D01*
X0173222Y0185478D01*
X0172455Y0186245D01*
X0173222Y0181641D02*
X0168618Y0181641D01*
X0168618Y0178572D02*
X0173222Y0181641D01*
X0173222Y0178572D02*
X0168618Y0178572D01*
X0169385Y0177037D02*
X0168618Y0176270D01*
X0168618Y0174735D01*
X0169385Y0173968D01*
X0172455Y0173968D01*
X0173222Y0174735D01*
X0173222Y0176270D01*
X0172455Y0177037D01*
X0170920Y0177037D01*
X0170920Y0175502D01*
X0177618Y0175572D02*
X0182222Y0175572D01*
X0179920Y0175572D02*
X0179920Y0178641D01*
X0180687Y0180176D02*
X0182222Y0181710D01*
X0180687Y0183245D01*
X0177618Y0183245D01*
X0177618Y0180176D02*
X0180687Y0180176D01*
X0182222Y0178641D02*
X0177618Y0178641D01*
X0235976Y0194775D02*
X0236744Y0194008D01*
X0238278Y0194008D01*
X0239046Y0194775D01*
X0240580Y0194775D02*
X0241348Y0194008D01*
X0242882Y0194008D01*
X0243650Y0194775D01*
X0243650Y0195543D01*
X0242882Y0196310D01*
X0240580Y0196310D01*
X0240580Y0194775D01*
X0240580Y0196310D02*
X0242115Y0197844D01*
X0243650Y0198612D01*
X0245184Y0197844D02*
X0245952Y0198612D01*
X0247486Y0198612D01*
X0248254Y0197844D01*
X0248254Y0197077D01*
X0247486Y0196310D01*
X0248254Y0195543D01*
X0248254Y0194775D01*
X0247486Y0194008D01*
X0245952Y0194008D01*
X0245184Y0194775D01*
X0246719Y0196310D02*
X0247486Y0196310D01*
X0239046Y0197844D02*
X0238278Y0198612D01*
X0236744Y0198612D01*
X0235976Y0197844D01*
X0235976Y0194775D01*
X0235307Y0207256D02*
X0236841Y0207256D01*
X0237609Y0208023D01*
X0239143Y0208023D02*
X0239911Y0207256D01*
X0241445Y0207256D01*
X0242213Y0208023D01*
X0242213Y0208791D01*
X0241445Y0209558D01*
X0239143Y0209558D01*
X0239143Y0208023D01*
X0239143Y0209558D02*
X0240678Y0211093D01*
X0242213Y0211860D01*
X0243747Y0211093D02*
X0244515Y0211860D01*
X0246049Y0211860D01*
X0246816Y0211093D01*
X0246816Y0210325D01*
X0243747Y0207256D01*
X0246816Y0207256D01*
X0237609Y0211093D02*
X0236841Y0211860D01*
X0235307Y0211860D01*
X0234539Y0211093D01*
X0234539Y0208023D01*
X0235307Y0207256D01*
X0241149Y0174481D02*
X0240382Y0173714D01*
X0240382Y0172179D01*
X0241149Y0171412D01*
X0241149Y0169877D02*
X0242684Y0169877D01*
X0243451Y0169110D01*
X0243451Y0166808D01*
X0243451Y0168343D02*
X0244986Y0169877D01*
X0244219Y0171412D02*
X0244986Y0172179D01*
X0244986Y0173714D01*
X0244219Y0174481D01*
X0243451Y0174481D01*
X0242684Y0173714D01*
X0242684Y0172946D01*
X0242684Y0173714D02*
X0241917Y0174481D01*
X0241149Y0174481D01*
X0241149Y0169877D02*
X0240382Y0169110D01*
X0240382Y0166808D01*
X0244986Y0166808D01*
X0243451Y0165273D02*
X0240382Y0165273D01*
X0240382Y0162204D02*
X0243451Y0162204D01*
X0244986Y0163739D01*
X0243451Y0165273D01*
X0242157Y0137116D02*
X0242157Y0132512D01*
X0242157Y0134814D02*
X0245227Y0134814D01*
X0246761Y0134046D02*
X0248296Y0132512D01*
X0249831Y0134046D01*
X0249831Y0137116D01*
X0246761Y0137116D02*
X0246761Y0134046D01*
X0245227Y0132512D02*
X0245227Y0137116D01*
X0251365Y0131745D02*
X0254435Y0131745D01*
X0255969Y0134046D02*
X0257504Y0132512D01*
X0259039Y0134046D01*
X0259039Y0137116D01*
X0260573Y0137116D02*
X0262875Y0137116D01*
X0263642Y0136348D01*
X0263642Y0134814D01*
X0262875Y0134046D01*
X0260573Y0134046D01*
X0260573Y0132512D02*
X0260573Y0137116D01*
X0262108Y0134046D02*
X0263642Y0132512D01*
X0265177Y0133279D02*
X0268246Y0136348D01*
X0268246Y0133279D01*
X0267479Y0132512D01*
X0265944Y0132512D01*
X0265177Y0133279D01*
X0265177Y0136348D01*
X0265944Y0137116D01*
X0267479Y0137116D01*
X0268246Y0136348D01*
X0255969Y0137116D02*
X0255969Y0134046D01*
X0279752Y0162204D02*
X0282821Y0162204D01*
X0284356Y0163739D01*
X0282821Y0165273D01*
X0279752Y0165273D01*
X0279752Y0166808D02*
X0279752Y0169110D01*
X0280519Y0169877D01*
X0282054Y0169877D01*
X0282821Y0169110D01*
X0282821Y0166808D01*
X0282821Y0168343D02*
X0284356Y0169877D01*
X0284356Y0171412D02*
X0281287Y0174481D01*
X0280519Y0174481D01*
X0279752Y0173714D01*
X0279752Y0172179D01*
X0280519Y0171412D01*
X0284356Y0171412D02*
X0284356Y0174481D01*
X0284356Y0166808D02*
X0279752Y0166808D01*
X0279180Y0191508D02*
X0282250Y0191508D01*
X0280715Y0191508D02*
X0280715Y0196112D01*
X0279180Y0194577D01*
X0277646Y0193043D02*
X0276878Y0193810D01*
X0274576Y0193810D01*
X0274576Y0192275D01*
X0275344Y0191508D01*
X0276878Y0191508D01*
X0277646Y0192275D01*
X0277646Y0193043D01*
X0276111Y0195344D02*
X0274576Y0193810D01*
X0273042Y0195344D02*
X0272274Y0196112D01*
X0270740Y0196112D01*
X0269972Y0195344D01*
X0269972Y0192275D01*
X0270740Y0191508D01*
X0272274Y0191508D01*
X0273042Y0192275D01*
X0276111Y0195344D02*
X0277646Y0196112D01*
X0280838Y0201882D02*
X0282373Y0201882D01*
X0283140Y0202649D01*
X0284675Y0202649D02*
X0285442Y0201882D01*
X0286977Y0201882D01*
X0287744Y0202649D01*
X0287744Y0203417D01*
X0286977Y0204184D01*
X0284675Y0204184D01*
X0284675Y0202649D01*
X0284675Y0204184D02*
X0286209Y0205718D01*
X0287744Y0206486D01*
X0289279Y0205718D02*
X0290046Y0206486D01*
X0291581Y0206486D01*
X0292348Y0205718D01*
X0289279Y0202649D01*
X0290046Y0201882D01*
X0291581Y0201882D01*
X0292348Y0202649D01*
X0292348Y0205718D01*
X0289279Y0205718D02*
X0289279Y0202649D01*
X0283140Y0205718D02*
X0282373Y0206486D01*
X0280838Y0206486D01*
X0280071Y0205718D01*
X0280071Y0202649D01*
X0280838Y0201882D01*
X0314717Y0197844D02*
X0314717Y0194775D01*
X0315484Y0194008D01*
X0317018Y0194008D01*
X0317786Y0194775D01*
X0319320Y0194775D02*
X0320088Y0194008D01*
X0321622Y0194008D01*
X0322390Y0194775D01*
X0322390Y0196310D01*
X0321622Y0197077D01*
X0320855Y0197077D01*
X0319320Y0196310D01*
X0319320Y0198612D01*
X0322390Y0198612D01*
X0323924Y0197077D02*
X0325459Y0198612D01*
X0325459Y0194008D01*
X0323924Y0194008D02*
X0326994Y0194008D01*
X0328100Y0202531D02*
X0327332Y0203299D01*
X0328100Y0202531D02*
X0329634Y0202531D01*
X0330402Y0203299D01*
X0330402Y0204833D01*
X0329634Y0205601D01*
X0328867Y0205601D01*
X0327332Y0204833D01*
X0327332Y0207135D01*
X0330402Y0207135D01*
X0331936Y0206368D02*
X0331936Y0203299D01*
X0335005Y0206368D01*
X0335005Y0203299D01*
X0334238Y0202531D01*
X0332704Y0202531D01*
X0331936Y0203299D01*
X0331936Y0206368D02*
X0332704Y0207135D01*
X0334238Y0207135D01*
X0335005Y0206368D01*
X0325798Y0206368D02*
X0325030Y0207135D01*
X0323496Y0207135D01*
X0322728Y0206368D01*
X0322728Y0203299D01*
X0323496Y0202531D01*
X0325030Y0202531D01*
X0325798Y0203299D01*
X0317786Y0197844D02*
X0317018Y0198612D01*
X0315484Y0198612D01*
X0314717Y0197844D01*
X0323726Y0174481D02*
X0323726Y0171412D01*
X0323726Y0172946D02*
X0319122Y0172946D01*
X0320657Y0171412D01*
X0321424Y0169877D02*
X0322191Y0169110D01*
X0322191Y0166808D01*
X0322191Y0168343D02*
X0323726Y0169877D01*
X0321424Y0169877D02*
X0319889Y0169877D01*
X0319122Y0169110D01*
X0319122Y0166808D01*
X0323726Y0166808D01*
X0322191Y0165273D02*
X0323726Y0163739D01*
X0322191Y0162204D01*
X0319122Y0162204D01*
X0319122Y0165273D02*
X0322191Y0165273D01*
X0321143Y0137116D02*
X0321910Y0136348D01*
X0321910Y0134814D01*
X0321143Y0134046D01*
X0318841Y0134046D01*
X0318841Y0132512D02*
X0318841Y0137116D01*
X0321143Y0137116D01*
X0323445Y0135581D02*
X0324979Y0137116D01*
X0324979Y0132512D01*
X0323445Y0132512D02*
X0326514Y0132512D01*
X0321910Y0132512D02*
X0320376Y0134046D01*
X0317306Y0134046D02*
X0315772Y0132512D01*
X0314237Y0134046D01*
X0314237Y0137116D01*
X0317306Y0137116D02*
X0317306Y0134046D01*
X0312702Y0131745D02*
X0309633Y0131745D01*
X0308098Y0134046D02*
X0306564Y0132512D01*
X0305029Y0134046D01*
X0305029Y0137116D01*
X0303494Y0137116D02*
X0303494Y0132512D01*
X0303494Y0134814D02*
X0300425Y0134814D01*
X0300425Y0132512D02*
X0300425Y0137116D01*
X0308098Y0137116D02*
X0308098Y0134046D01*
X0336925Y0090147D02*
X0336925Y0085543D01*
X0335391Y0085543D02*
X0338460Y0085543D01*
X0339994Y0086311D02*
X0339994Y0089380D01*
X0340762Y0090147D01*
X0342296Y0090147D01*
X0343064Y0089380D01*
X0339994Y0086311D01*
X0340762Y0085543D01*
X0342296Y0085543D01*
X0343064Y0086311D01*
X0343064Y0089380D01*
X0336925Y0090147D02*
X0335391Y0088613D01*
X0278103Y0085543D02*
X0275034Y0085543D01*
X0276568Y0085543D02*
X0276568Y0090147D01*
X0275034Y0088613D01*
X0271965Y0090147D02*
X0271965Y0085543D01*
X0273499Y0085543D02*
X0270430Y0085543D01*
X0270430Y0088613D02*
X0271965Y0090147D01*
X0273166Y0018887D02*
X0272398Y0018120D01*
X0273166Y0018887D02*
X0274700Y0018887D01*
X0275468Y0018120D01*
X0275468Y0017353D01*
X0272398Y0014283D01*
X0275468Y0014283D01*
X0277002Y0015051D02*
X0280072Y0018120D01*
X0280072Y0015051D01*
X0279304Y0014283D01*
X0277770Y0014283D01*
X0277002Y0015051D01*
X0277002Y0018120D01*
X0277770Y0018887D01*
X0279304Y0018887D01*
X0280072Y0018120D01*
X0319369Y0017549D02*
X0319369Y0013712D01*
X0320137Y0012945D01*
X0321671Y0012945D01*
X0322439Y0013712D01*
X0322439Y0017549D01*
X0323973Y0016014D02*
X0325508Y0017549D01*
X0325508Y0012945D01*
X0323973Y0012945D02*
X0327043Y0012945D01*
X0328577Y0013712D02*
X0331646Y0016781D01*
X0331646Y0013712D01*
X0330879Y0012945D01*
X0329344Y0012945D01*
X0328577Y0013712D01*
X0328577Y0016781D01*
X0329344Y0017549D01*
X0330879Y0017549D01*
X0331646Y0016781D01*
X0336057Y0017353D02*
X0337592Y0018887D01*
X0337592Y0014283D01*
X0336057Y0014283D02*
X0339127Y0014283D01*
X0358492Y0162204D02*
X0361561Y0162204D01*
X0363096Y0163739D01*
X0361561Y0165273D01*
X0358492Y0165273D01*
X0358492Y0166808D02*
X0358492Y0169110D01*
X0359259Y0169877D01*
X0360794Y0169877D01*
X0361561Y0169110D01*
X0361561Y0166808D01*
X0361561Y0168343D02*
X0363096Y0169877D01*
X0362329Y0171412D02*
X0359259Y0174481D01*
X0362329Y0174481D01*
X0363096Y0173714D01*
X0363096Y0172179D01*
X0362329Y0171412D01*
X0359259Y0171412D01*
X0358492Y0172179D01*
X0358492Y0173714D01*
X0359259Y0174481D01*
X0358492Y0166808D02*
X0363096Y0166808D01*
X0360222Y0191508D02*
X0358688Y0191508D01*
X0357920Y0192275D01*
X0358688Y0193810D02*
X0360990Y0193810D01*
X0360990Y0195344D02*
X0360222Y0196112D01*
X0358688Y0196112D01*
X0357920Y0195344D01*
X0357920Y0194577D01*
X0358688Y0193810D01*
X0356386Y0193810D02*
X0353317Y0193810D01*
X0355618Y0196112D01*
X0355618Y0191508D01*
X0351782Y0192275D02*
X0351015Y0191508D01*
X0349480Y0191508D01*
X0348713Y0192275D01*
X0348713Y0195344D01*
X0349480Y0196112D01*
X0351015Y0196112D01*
X0351782Y0195344D01*
X0360990Y0195344D02*
X0360990Y0192275D01*
X0360222Y0191508D01*
X0359578Y0202669D02*
X0358811Y0203437D01*
X0358811Y0206506D01*
X0359578Y0207273D01*
X0361113Y0207273D01*
X0361880Y0206506D01*
X0363415Y0204971D02*
X0366484Y0204971D01*
X0368019Y0204204D02*
X0368786Y0204971D01*
X0370321Y0204971D01*
X0371088Y0204204D01*
X0371088Y0203437D01*
X0370321Y0202669D01*
X0368786Y0202669D01*
X0368019Y0203437D01*
X0368019Y0204204D01*
X0368786Y0204971D02*
X0368019Y0205739D01*
X0368019Y0206506D01*
X0368786Y0207273D01*
X0370321Y0207273D01*
X0371088Y0206506D01*
X0371088Y0205739D01*
X0370321Y0204971D01*
X0365717Y0202669D02*
X0365717Y0207273D01*
X0363415Y0204971D01*
X0361880Y0203437D02*
X0361113Y0202669D01*
X0359578Y0202669D01*
D11*
X0026216Y0064763D02*
X0026216Y0061060D01*
X0026216Y0062912D02*
X0028684Y0062912D01*
X0029899Y0062295D02*
X0031133Y0061060D01*
X0032367Y0062295D01*
X0032367Y0064763D01*
X0033582Y0064146D02*
X0034199Y0064763D01*
X0035433Y0064763D01*
X0036051Y0064146D01*
X0033582Y0061677D01*
X0034199Y0061060D01*
X0035433Y0061060D01*
X0036051Y0061677D01*
X0036051Y0064146D01*
X0033582Y0064146D02*
X0033582Y0061677D01*
X0029899Y0062295D02*
X0029899Y0064763D01*
X0028684Y0064763D02*
X0028684Y0061060D01*
X0028684Y0074840D02*
X0028684Y0078543D01*
X0029899Y0078543D02*
X0029899Y0076074D01*
X0031133Y0074840D01*
X0032367Y0076074D01*
X0032367Y0078543D01*
X0033582Y0077309D02*
X0034816Y0078543D01*
X0034816Y0074840D01*
X0033582Y0074840D02*
X0036051Y0074840D01*
X0028684Y0076691D02*
X0026216Y0076691D01*
X0026216Y0074840D02*
X0026216Y0078543D01*
X0026216Y0088619D02*
X0028684Y0088619D01*
X0029899Y0088619D02*
X0031750Y0088619D01*
X0032367Y0089236D01*
X0032367Y0091705D01*
X0031750Y0092322D01*
X0029899Y0092322D01*
X0029899Y0088619D01*
X0027450Y0090471D02*
X0026216Y0090471D01*
X0026216Y0092322D02*
X0026216Y0088619D01*
X0025001Y0088619D02*
X0022532Y0088619D01*
X0022532Y0092322D01*
X0026216Y0092322D02*
X0028684Y0092322D01*
X0033582Y0091705D02*
X0034199Y0092322D01*
X0035433Y0092322D01*
X0036051Y0091705D01*
X0033582Y0089236D01*
X0034199Y0088619D01*
X0035433Y0088619D01*
X0036051Y0089236D01*
X0036051Y0091705D01*
X0033582Y0091705D02*
X0033582Y0089236D01*
X0033582Y0102399D02*
X0036051Y0102399D01*
X0034816Y0102399D02*
X0034816Y0106102D01*
X0033582Y0104868D01*
X0032367Y0105485D02*
X0032367Y0103016D01*
X0031750Y0102399D01*
X0029899Y0102399D01*
X0029899Y0106102D01*
X0031750Y0106102D01*
X0032367Y0105485D01*
X0028684Y0106102D02*
X0026216Y0106102D01*
X0026216Y0102399D01*
X0028684Y0102399D01*
X0027450Y0104250D02*
X0026216Y0104250D01*
X0025001Y0102399D02*
X0022532Y0102399D01*
X0022532Y0106102D01*
X0022532Y0116178D02*
X0025001Y0116178D01*
X0026216Y0116178D02*
X0028684Y0116178D01*
X0029899Y0116178D02*
X0031750Y0116178D01*
X0032367Y0116796D01*
X0032367Y0119264D01*
X0031750Y0119882D01*
X0029899Y0119882D01*
X0029899Y0116178D01*
X0027450Y0118030D02*
X0026216Y0118030D01*
X0026216Y0119882D02*
X0026216Y0116178D01*
X0022532Y0116178D02*
X0022532Y0119882D01*
X0026216Y0119882D02*
X0028684Y0119882D01*
X0033582Y0119264D02*
X0034199Y0119882D01*
X0035433Y0119882D01*
X0036051Y0119264D01*
X0036051Y0118647D01*
X0033582Y0116178D01*
X0036051Y0116178D01*
X0035433Y0129958D02*
X0034199Y0129958D01*
X0033582Y0130575D01*
X0032367Y0130575D02*
X0032367Y0133044D01*
X0031750Y0133661D01*
X0029899Y0133661D01*
X0029899Y0129958D01*
X0031750Y0129958D01*
X0032367Y0130575D01*
X0034816Y0131809D02*
X0035433Y0131809D01*
X0036051Y0131192D01*
X0036051Y0130575D01*
X0035433Y0129958D01*
X0035433Y0131809D02*
X0036051Y0132427D01*
X0036051Y0133044D01*
X0035433Y0133661D01*
X0034199Y0133661D01*
X0033582Y0133044D01*
X0028684Y0133661D02*
X0026216Y0133661D01*
X0026216Y0129958D01*
X0028684Y0129958D01*
X0027450Y0131809D02*
X0026216Y0131809D01*
X0025001Y0129958D02*
X0022532Y0129958D01*
X0022532Y0133661D01*
X0123329Y0183507D02*
X0123329Y0184741D01*
X0123329Y0184124D02*
X0126415Y0184124D01*
X0127032Y0183507D01*
X0127032Y0182890D01*
X0126415Y0182273D01*
X0126415Y0185956D02*
X0127032Y0186573D01*
X0127032Y0187807D01*
X0126415Y0188425D01*
X0125798Y0188425D01*
X0125180Y0187807D01*
X0125180Y0185956D01*
X0126415Y0185956D01*
X0125180Y0185956D02*
X0123946Y0187190D01*
X0123329Y0188425D01*
X0202069Y0189015D02*
X0202069Y0186546D01*
X0203920Y0186546D01*
X0203303Y0187781D01*
X0203303Y0188398D01*
X0203920Y0189015D01*
X0205155Y0189015D01*
X0205772Y0188398D01*
X0205772Y0187164D01*
X0205155Y0186546D01*
X0205155Y0184715D02*
X0202069Y0184715D01*
X0202069Y0184098D02*
X0202069Y0185332D01*
X0205155Y0184715D02*
X0205772Y0184098D01*
X0205772Y0183480D01*
X0205155Y0182863D01*
X0270533Y0212071D02*
X0271150Y0211454D01*
X0272384Y0211454D01*
X0273001Y0212071D01*
X0273001Y0212688D01*
X0272384Y0213306D01*
X0271150Y0213306D01*
X0270533Y0213923D01*
X0270533Y0214540D01*
X0271150Y0215157D01*
X0272384Y0215157D01*
X0273001Y0214540D01*
X0274216Y0215157D02*
X0274216Y0211454D01*
X0276067Y0211454D01*
X0276685Y0212071D01*
X0276685Y0214540D01*
X0276067Y0215157D01*
X0274216Y0215157D01*
X0277899Y0213923D02*
X0277899Y0211454D01*
X0277899Y0213306D02*
X0280368Y0213306D01*
X0280368Y0213923D02*
X0280368Y0211454D01*
X0282107Y0212071D02*
X0282725Y0211454D01*
X0283959Y0211454D01*
X0284576Y0212071D01*
X0284576Y0212688D01*
X0283959Y0213306D01*
X0282725Y0213306D01*
X0282107Y0213923D01*
X0282107Y0214540D01*
X0282725Y0215157D01*
X0283959Y0215157D01*
X0284576Y0214540D01*
X0285791Y0214540D02*
X0285791Y0212071D01*
X0286408Y0211454D01*
X0287642Y0211454D01*
X0288259Y0212071D01*
X0289474Y0211454D02*
X0291943Y0211454D01*
X0292107Y0212688D02*
X0293342Y0211454D01*
X0294576Y0212688D01*
X0294576Y0215157D01*
X0295791Y0214540D02*
X0295791Y0212071D01*
X0296408Y0211454D01*
X0297642Y0211454D01*
X0298259Y0212071D01*
X0299474Y0212071D02*
X0300091Y0211454D01*
X0301325Y0211454D01*
X0301943Y0212071D01*
X0303682Y0212071D02*
X0303682Y0214540D01*
X0304299Y0215157D01*
X0305534Y0215157D01*
X0306151Y0214540D01*
X0306151Y0213306D02*
X0304917Y0213306D01*
X0306151Y0213306D02*
X0306151Y0212071D01*
X0305534Y0211454D01*
X0304299Y0211454D01*
X0303682Y0212071D01*
X0301943Y0214540D02*
X0301325Y0215157D01*
X0300091Y0215157D01*
X0299474Y0214540D01*
X0299474Y0212071D01*
X0298259Y0214540D02*
X0297642Y0215157D01*
X0296408Y0215157D01*
X0295791Y0214540D01*
X0292107Y0215157D02*
X0292107Y0212688D01*
X0289474Y0211454D02*
X0289474Y0215157D01*
X0288259Y0214540D02*
X0287642Y0215157D01*
X0286408Y0215157D01*
X0285791Y0214540D01*
X0280368Y0213923D02*
X0279133Y0215157D01*
X0277899Y0213923D01*
X0307365Y0215157D02*
X0309834Y0211454D01*
X0309834Y0215157D01*
X0311049Y0215157D02*
X0311049Y0211454D01*
X0312900Y0211454D01*
X0313517Y0212071D01*
X0313517Y0214540D01*
X0312900Y0215157D01*
X0311049Y0215157D01*
X0307365Y0215157D02*
X0307365Y0211454D01*
X0388601Y0211925D02*
X0389085Y0211441D01*
X0391020Y0211441D01*
X0391504Y0211925D01*
X0391504Y0212892D01*
X0391020Y0213376D01*
X0390052Y0213376D01*
X0390052Y0212409D01*
X0389085Y0213376D02*
X0388601Y0212892D01*
X0388601Y0211925D01*
X0388601Y0214388D02*
X0388601Y0215839D01*
X0389085Y0216323D01*
X0391020Y0216323D01*
X0391504Y0215839D01*
X0391504Y0214388D01*
X0388601Y0214388D01*
X0389569Y0217334D02*
X0388601Y0218302D01*
X0391504Y0218302D01*
X0391504Y0219269D02*
X0391504Y0217334D01*
X0391020Y0221441D02*
X0391504Y0221925D01*
X0391504Y0222892D01*
X0391020Y0223376D01*
X0390536Y0223376D01*
X0390052Y0222892D01*
X0390052Y0221925D01*
X0389569Y0221441D01*
X0389085Y0221441D01*
X0388601Y0221925D01*
X0388601Y0222892D01*
X0389085Y0223376D01*
X0389569Y0224388D02*
X0388601Y0225355D01*
X0389569Y0226323D01*
X0391504Y0226323D01*
X0391504Y0227334D02*
X0389569Y0229269D01*
X0389085Y0229269D01*
X0388601Y0228785D01*
X0388601Y0227818D01*
X0389085Y0227334D01*
X0390052Y0226323D02*
X0390052Y0224388D01*
X0389569Y0224388D02*
X0391504Y0224388D01*
X0391504Y0227334D02*
X0391504Y0229269D01*
X0391020Y0231441D02*
X0391504Y0231925D01*
X0391504Y0232892D01*
X0391020Y0233376D01*
X0390536Y0233376D01*
X0390052Y0232892D01*
X0390052Y0231925D01*
X0389569Y0231441D01*
X0389085Y0231441D01*
X0388601Y0231925D01*
X0388601Y0232892D01*
X0389085Y0233376D01*
X0389569Y0234388D02*
X0388601Y0235355D01*
X0389569Y0236323D01*
X0391504Y0236323D01*
X0391504Y0237334D02*
X0391504Y0239269D01*
X0391504Y0238302D02*
X0388601Y0238302D01*
X0389569Y0237334D01*
X0390052Y0236323D02*
X0390052Y0234388D01*
X0389569Y0234388D02*
X0391504Y0234388D01*
X0391020Y0241441D02*
X0391504Y0241925D01*
X0391504Y0242892D01*
X0391020Y0243376D01*
X0390536Y0243376D01*
X0390052Y0242892D01*
X0390052Y0241925D01*
X0389569Y0241441D01*
X0389085Y0241441D01*
X0388601Y0241925D01*
X0388601Y0242892D01*
X0389085Y0243376D01*
X0389569Y0244388D02*
X0388601Y0245355D01*
X0389569Y0246323D01*
X0391504Y0246323D01*
X0391020Y0247334D02*
X0389085Y0249269D01*
X0391020Y0249269D01*
X0391504Y0248785D01*
X0391504Y0247818D01*
X0391020Y0247334D01*
X0389085Y0247334D01*
X0388601Y0247818D01*
X0388601Y0248785D01*
X0389085Y0249269D01*
X0390052Y0246323D02*
X0390052Y0244388D01*
X0389569Y0244388D02*
X0391504Y0244388D01*
X0391020Y0258495D02*
X0391504Y0258978D01*
X0391504Y0259946D01*
X0391020Y0260430D01*
X0390052Y0260430D01*
X0390052Y0259462D01*
X0389085Y0258495D02*
X0391020Y0258495D01*
X0389085Y0258495D02*
X0388601Y0258978D01*
X0388601Y0259946D01*
X0389085Y0260430D01*
X0388601Y0261441D02*
X0391504Y0263376D01*
X0388601Y0263376D01*
X0388601Y0264388D02*
X0388601Y0265839D01*
X0389085Y0266323D01*
X0391020Y0266323D01*
X0391504Y0265839D01*
X0391504Y0264388D01*
X0388601Y0264388D01*
X0388601Y0261441D02*
X0391504Y0261441D01*
X0391020Y0267334D02*
X0389085Y0269269D01*
X0391020Y0269269D01*
X0391504Y0268785D01*
X0391504Y0267818D01*
X0391020Y0267334D01*
X0389085Y0267334D01*
X0388601Y0267818D01*
X0388601Y0268785D01*
X0389085Y0269269D01*
X0389085Y0271441D02*
X0389569Y0271441D01*
X0390052Y0271925D01*
X0390052Y0272892D01*
X0390536Y0273376D01*
X0391020Y0273376D01*
X0391504Y0272892D01*
X0391504Y0271925D01*
X0391020Y0271441D01*
X0389085Y0271441D02*
X0388601Y0271925D01*
X0388601Y0272892D01*
X0389085Y0273376D01*
X0388601Y0274388D02*
X0388601Y0275839D01*
X0389085Y0276323D01*
X0390052Y0276323D01*
X0390536Y0275839D01*
X0390536Y0274388D01*
X0391504Y0274388D02*
X0388601Y0274388D01*
X0389085Y0277334D02*
X0388601Y0277818D01*
X0388601Y0278785D01*
X0389085Y0279269D01*
X0389569Y0279269D01*
X0390052Y0278785D01*
X0390536Y0279269D01*
X0391020Y0279269D01*
X0391504Y0278785D01*
X0391504Y0277818D01*
X0391020Y0277334D01*
X0390052Y0278302D02*
X0390052Y0278785D01*
X0389569Y0281441D02*
X0390052Y0281925D01*
X0390052Y0282892D01*
X0390536Y0283376D01*
X0391020Y0283376D01*
X0391504Y0282892D01*
X0391504Y0281925D01*
X0391020Y0281441D01*
X0389569Y0281441D02*
X0389085Y0281441D01*
X0388601Y0281925D01*
X0388601Y0282892D01*
X0389085Y0283376D01*
X0388601Y0284388D02*
X0388601Y0285839D01*
X0389085Y0286323D01*
X0390052Y0286323D01*
X0390536Y0285839D01*
X0390536Y0284388D01*
X0391504Y0284388D02*
X0388601Y0284388D01*
X0389085Y0287334D02*
X0388601Y0287818D01*
X0388601Y0288785D01*
X0389085Y0289269D01*
X0389569Y0289269D01*
X0391504Y0287334D01*
X0391504Y0289269D01*
X0391020Y0291441D02*
X0391504Y0291925D01*
X0391504Y0292892D01*
X0391020Y0293376D01*
X0390536Y0293376D01*
X0390052Y0292892D01*
X0390052Y0291925D01*
X0389569Y0291441D01*
X0389085Y0291441D01*
X0388601Y0291925D01*
X0388601Y0292892D01*
X0389085Y0293376D01*
X0388601Y0294388D02*
X0388601Y0295839D01*
X0389085Y0296323D01*
X0390052Y0296323D01*
X0390536Y0295839D01*
X0390536Y0294388D01*
X0391504Y0294388D02*
X0388601Y0294388D01*
X0389569Y0297334D02*
X0388601Y0298302D01*
X0391504Y0298302D01*
X0391504Y0299269D02*
X0391504Y0297334D01*
X0391020Y0301441D02*
X0391504Y0301925D01*
X0391504Y0302892D01*
X0391020Y0303376D01*
X0390536Y0303376D01*
X0390052Y0302892D01*
X0390052Y0301925D01*
X0389569Y0301441D01*
X0389085Y0301441D01*
X0388601Y0301925D01*
X0388601Y0302892D01*
X0389085Y0303376D01*
X0388601Y0304388D02*
X0388601Y0305839D01*
X0389085Y0306323D01*
X0390052Y0306323D01*
X0390536Y0305839D01*
X0390536Y0304388D01*
X0391504Y0304388D02*
X0388601Y0304388D01*
X0389085Y0307334D02*
X0388601Y0307818D01*
X0388601Y0308785D01*
X0389085Y0309269D01*
X0391020Y0307334D01*
X0391504Y0307818D01*
X0391504Y0308785D01*
X0391020Y0309269D01*
X0389085Y0309269D01*
X0389085Y0307334D02*
X0391020Y0307334D01*
X0391504Y0311441D02*
X0388601Y0311441D01*
X0388601Y0312892D01*
X0389085Y0313376D01*
X0390052Y0313376D01*
X0390536Y0312892D01*
X0390536Y0311441D01*
X0390052Y0314388D02*
X0390052Y0316323D01*
X0389569Y0316323D02*
X0391504Y0316323D01*
X0391020Y0317334D02*
X0391504Y0317818D01*
X0391504Y0318785D01*
X0391020Y0319269D01*
X0390536Y0319269D01*
X0390052Y0318785D01*
X0390052Y0318302D01*
X0390052Y0318785D02*
X0389569Y0319269D01*
X0389085Y0319269D01*
X0388601Y0318785D01*
X0388601Y0317818D01*
X0389085Y0317334D01*
X0389569Y0316323D02*
X0388601Y0315355D01*
X0389569Y0314388D01*
X0391504Y0314388D01*
X0391504Y0321441D02*
X0388601Y0321441D01*
X0388601Y0322892D01*
X0389085Y0323376D01*
X0390052Y0323376D01*
X0390536Y0322892D01*
X0390536Y0321441D01*
X0390052Y0324388D02*
X0390052Y0326323D01*
X0389569Y0326323D02*
X0391504Y0326323D01*
X0391504Y0327334D02*
X0389569Y0329269D01*
X0389085Y0329269D01*
X0388601Y0328785D01*
X0388601Y0327818D01*
X0389085Y0327334D01*
X0389569Y0326323D02*
X0388601Y0325355D01*
X0389569Y0324388D01*
X0391504Y0324388D01*
X0391504Y0327334D02*
X0391504Y0329269D01*
X0391504Y0331441D02*
X0388601Y0331441D01*
X0388601Y0332892D01*
X0389085Y0333376D01*
X0390052Y0333376D01*
X0390536Y0332892D01*
X0390536Y0331441D01*
X0390052Y0334388D02*
X0390052Y0336323D01*
X0389569Y0336323D02*
X0391504Y0336323D01*
X0391504Y0337334D02*
X0391504Y0339269D01*
X0391504Y0338302D02*
X0388601Y0338302D01*
X0389569Y0337334D01*
X0389569Y0336323D02*
X0388601Y0335355D01*
X0389569Y0334388D01*
X0391504Y0334388D01*
X0391504Y0341441D02*
X0388601Y0341441D01*
X0388601Y0342892D01*
X0389085Y0343376D01*
X0390052Y0343376D01*
X0390536Y0342892D01*
X0390536Y0341441D01*
X0390052Y0344388D02*
X0390052Y0346323D01*
X0389569Y0346323D02*
X0391504Y0346323D01*
X0391020Y0347334D02*
X0389085Y0349269D01*
X0391020Y0349269D01*
X0391504Y0348785D01*
X0391504Y0347818D01*
X0391020Y0347334D01*
X0389085Y0347334D01*
X0388601Y0347818D01*
X0388601Y0348785D01*
X0389085Y0349269D01*
X0389569Y0346323D02*
X0388601Y0345355D01*
X0389569Y0344388D01*
X0391504Y0344388D01*
X0391020Y0209269D02*
X0391504Y0208785D01*
X0391504Y0207818D01*
X0391020Y0207334D01*
X0389085Y0209269D01*
X0391020Y0209269D01*
X0391020Y0207334D02*
X0389085Y0207334D01*
X0388601Y0207818D01*
X0388601Y0208785D01*
X0389085Y0209269D01*
X0389085Y0206323D02*
X0390052Y0206323D01*
X0390536Y0205839D01*
X0390536Y0204388D01*
X0391504Y0204388D02*
X0388601Y0204388D01*
X0388601Y0205839D01*
X0389085Y0206323D01*
X0389085Y0203376D02*
X0390052Y0203376D01*
X0390536Y0202892D01*
X0390536Y0201441D01*
X0391504Y0201441D02*
X0388601Y0201441D01*
X0388601Y0202892D01*
X0389085Y0203376D01*
X0390536Y0202409D02*
X0391504Y0203376D01*
X0391504Y0199269D02*
X0391504Y0197334D01*
X0391504Y0198302D02*
X0388601Y0198302D01*
X0389569Y0197334D01*
X0390052Y0196323D02*
X0390536Y0195839D01*
X0390536Y0194388D01*
X0391504Y0194388D02*
X0388601Y0194388D01*
X0388601Y0195839D01*
X0389085Y0196323D01*
X0390052Y0196323D01*
X0390052Y0193376D02*
X0390536Y0192892D01*
X0390536Y0191441D01*
X0391504Y0191441D02*
X0388601Y0191441D01*
X0388601Y0192892D01*
X0389085Y0193376D01*
X0390052Y0193376D01*
X0390536Y0192409D02*
X0391504Y0193376D01*
X0391504Y0189269D02*
X0391504Y0187334D01*
X0389569Y0189269D01*
X0389085Y0189269D01*
X0388601Y0188785D01*
X0388601Y0187818D01*
X0389085Y0187334D01*
X0389085Y0186323D02*
X0388601Y0185839D01*
X0388601Y0184388D01*
X0391504Y0184388D01*
X0391504Y0185839D01*
X0391020Y0186323D01*
X0389085Y0186323D01*
X0389085Y0183376D02*
X0388601Y0182892D01*
X0388601Y0181925D01*
X0389085Y0181441D01*
X0391020Y0181441D01*
X0391504Y0181925D01*
X0391504Y0182892D01*
X0391020Y0183376D01*
X0390052Y0183376D01*
X0390052Y0182409D01*
X0389085Y0179269D02*
X0391020Y0177334D01*
X0391504Y0177818D01*
X0391504Y0178785D01*
X0391020Y0179269D01*
X0389085Y0179269D01*
X0388601Y0178785D01*
X0388601Y0177818D01*
X0389085Y0177334D01*
X0391020Y0177334D01*
X0390052Y0176323D02*
X0390536Y0175839D01*
X0390536Y0174388D01*
X0391504Y0174388D02*
X0388601Y0174388D01*
X0388601Y0175839D01*
X0389085Y0176323D01*
X0390052Y0176323D01*
X0388601Y0173376D02*
X0388601Y0171441D01*
X0391504Y0171441D01*
X0390052Y0171441D02*
X0390052Y0172409D01*
X0391504Y0169269D02*
X0391504Y0167334D01*
X0391504Y0168302D02*
X0388601Y0168302D01*
X0389569Y0167334D01*
X0390052Y0166323D02*
X0390536Y0165839D01*
X0390536Y0164388D01*
X0391504Y0164388D02*
X0388601Y0164388D01*
X0388601Y0165839D01*
X0389085Y0166323D01*
X0390052Y0166323D01*
X0388601Y0163376D02*
X0388601Y0161441D01*
X0391504Y0161441D01*
X0390052Y0161441D02*
X0390052Y0162409D01*
X0389569Y0159269D02*
X0389085Y0159269D01*
X0388601Y0158785D01*
X0388601Y0157818D01*
X0389085Y0157334D01*
X0389085Y0156323D02*
X0390052Y0156323D01*
X0390536Y0155839D01*
X0390536Y0154388D01*
X0391504Y0154388D02*
X0388601Y0154388D01*
X0388601Y0155839D01*
X0389085Y0156323D01*
X0391504Y0157334D02*
X0389569Y0159269D01*
X0391504Y0159269D02*
X0391504Y0157334D01*
X0388601Y0153376D02*
X0388601Y0151441D01*
X0391504Y0151441D01*
X0390052Y0151441D02*
X0390052Y0152409D01*
X0389569Y0149269D02*
X0390052Y0148785D01*
X0390536Y0149269D01*
X0391020Y0149269D01*
X0391504Y0148785D01*
X0391504Y0147818D01*
X0391020Y0147334D01*
X0390052Y0148302D02*
X0390052Y0148785D01*
X0389569Y0149269D02*
X0389085Y0149269D01*
X0388601Y0148785D01*
X0388601Y0147818D01*
X0389085Y0147334D01*
X0389085Y0146323D02*
X0390052Y0146323D01*
X0390536Y0145839D01*
X0390536Y0144388D01*
X0391504Y0144388D02*
X0388601Y0144388D01*
X0388601Y0145839D01*
X0389085Y0146323D01*
X0388601Y0143376D02*
X0388601Y0141441D01*
X0391504Y0141441D01*
X0390052Y0141441D02*
X0390052Y0142409D01*
X0389569Y0139269D02*
X0390052Y0138785D01*
X0390536Y0139269D01*
X0391020Y0139269D01*
X0391504Y0138785D01*
X0391504Y0137818D01*
X0391020Y0137334D01*
X0391020Y0136323D02*
X0389085Y0136323D01*
X0388601Y0135839D01*
X0388601Y0134388D01*
X0391504Y0134388D01*
X0391504Y0135839D01*
X0391020Y0136323D01*
X0389085Y0137334D02*
X0388601Y0137818D01*
X0388601Y0138785D01*
X0389085Y0139269D01*
X0389569Y0139269D01*
X0390052Y0138785D02*
X0390052Y0138302D01*
X0390052Y0133376D02*
X0390052Y0132409D01*
X0390052Y0133376D02*
X0391020Y0133376D01*
X0391504Y0132892D01*
X0391504Y0131925D01*
X0391020Y0131441D01*
X0389085Y0131441D01*
X0388601Y0131925D01*
X0388601Y0132892D01*
X0389085Y0133376D01*
X0389085Y0129269D02*
X0390052Y0129269D01*
X0390536Y0128785D01*
X0390536Y0127334D01*
X0391504Y0127334D02*
X0388601Y0127334D01*
X0388601Y0128785D01*
X0389085Y0129269D01*
X0391504Y0126323D02*
X0391504Y0124388D01*
X0391504Y0125355D02*
X0388601Y0125355D01*
X0389569Y0124388D01*
X0390536Y0119269D02*
X0388601Y0119269D01*
X0388601Y0117334D02*
X0390536Y0117334D01*
X0391504Y0118302D01*
X0390536Y0119269D01*
X0390536Y0116323D02*
X0391020Y0116323D01*
X0391504Y0115839D01*
X0391504Y0114871D01*
X0391020Y0114388D01*
X0390052Y0115355D02*
X0390052Y0115839D01*
X0390536Y0116323D01*
X0390052Y0115839D02*
X0389569Y0116323D01*
X0389085Y0116323D01*
X0388601Y0115839D01*
X0388601Y0114871D01*
X0389085Y0114388D01*
X0362398Y0110827D02*
X0361781Y0111444D01*
X0359312Y0111444D01*
X0358695Y0110827D01*
X0358695Y0108976D01*
X0362398Y0108976D01*
X0362398Y0110827D01*
X0361781Y0107761D02*
X0359312Y0107761D01*
X0358695Y0107144D01*
X0358695Y0105292D01*
X0362398Y0105292D01*
X0362398Y0107144D01*
X0361781Y0107761D01*
X0361164Y0104078D02*
X0358695Y0104078D01*
X0361164Y0104078D02*
X0362398Y0102844D01*
X0361164Y0101609D01*
X0358695Y0101609D01*
X0359312Y0099869D02*
X0358695Y0099252D01*
X0358695Y0097401D01*
X0362398Y0097401D01*
X0362398Y0099252D01*
X0361781Y0099869D01*
X0359312Y0099869D01*
X0358695Y0096186D02*
X0362398Y0096186D01*
X0358695Y0093718D01*
X0362398Y0093718D01*
X0361781Y0092503D02*
X0360546Y0092503D01*
X0360546Y0091269D01*
X0359312Y0092503D02*
X0358695Y0091886D01*
X0358695Y0090652D01*
X0359312Y0090034D01*
X0361781Y0090034D01*
X0362398Y0090652D01*
X0362398Y0091886D01*
X0361781Y0092503D01*
X0361781Y0087688D02*
X0362398Y0087071D01*
X0362398Y0085220D01*
X0358695Y0085220D01*
X0358695Y0087071D01*
X0359312Y0087688D01*
X0359929Y0087688D01*
X0360546Y0087071D01*
X0360546Y0085220D01*
X0361164Y0084005D02*
X0361781Y0084005D01*
X0362398Y0083388D01*
X0362398Y0082154D01*
X0361781Y0081536D01*
X0361781Y0080322D02*
X0362398Y0079705D01*
X0362398Y0078471D01*
X0361781Y0077853D01*
X0359312Y0077853D01*
X0358695Y0078471D01*
X0358695Y0079705D01*
X0359312Y0080322D01*
X0359312Y0081536D02*
X0359929Y0081536D01*
X0360546Y0082154D01*
X0360546Y0083388D01*
X0361164Y0084005D01*
X0359312Y0084005D02*
X0358695Y0083388D01*
X0358695Y0082154D01*
X0359312Y0081536D01*
X0360546Y0087071D02*
X0361164Y0087688D01*
X0361781Y0087688D01*
X0362398Y0076107D02*
X0362398Y0074873D01*
X0362398Y0075490D02*
X0358695Y0075490D01*
X0358695Y0074873D02*
X0358695Y0076107D01*
X0359312Y0073658D02*
X0358695Y0073041D01*
X0358695Y0071189D01*
X0362398Y0071189D01*
X0362398Y0073041D01*
X0361781Y0073658D01*
X0359312Y0073658D01*
X0359312Y0069975D02*
X0358695Y0069358D01*
X0358695Y0068123D01*
X0359312Y0067506D01*
X0359929Y0067506D01*
X0360546Y0068123D01*
X0360546Y0069358D01*
X0361164Y0069975D01*
X0361781Y0069975D01*
X0362398Y0069358D01*
X0362398Y0068123D01*
X0361781Y0067506D01*
X0361781Y0067114D02*
X0359312Y0067114D01*
X0358695Y0066496D01*
X0358695Y0065262D01*
X0359312Y0064645D01*
X0361781Y0064645D01*
X0362398Y0065262D01*
X0362398Y0066496D01*
X0361781Y0067114D01*
X0361781Y0063430D02*
X0359312Y0063430D01*
X0358695Y0062813D01*
X0358695Y0060962D01*
X0362398Y0060962D01*
X0362398Y0062813D01*
X0361781Y0063430D01*
X0361781Y0059747D02*
X0362398Y0059130D01*
X0362398Y0057896D01*
X0361781Y0057279D01*
X0360546Y0057896D02*
X0360546Y0059130D01*
X0361164Y0059747D01*
X0361781Y0059747D01*
X0360546Y0057896D02*
X0359929Y0057279D01*
X0359312Y0057279D01*
X0358695Y0057896D01*
X0358695Y0059130D01*
X0359312Y0059747D01*
X0358695Y0055145D02*
X0361164Y0052676D01*
X0360546Y0053293D02*
X0362398Y0055145D01*
X0362398Y0052676D02*
X0358695Y0052676D01*
X0359312Y0051462D02*
X0358695Y0050845D01*
X0358695Y0049610D01*
X0359312Y0048993D01*
X0361781Y0048993D01*
X0362398Y0049610D01*
X0362398Y0050845D01*
X0361781Y0051462D01*
X0361781Y0047779D02*
X0362398Y0047162D01*
X0362398Y0045927D01*
X0361781Y0045310D01*
X0360546Y0045927D02*
X0360546Y0047162D01*
X0361164Y0047779D01*
X0361781Y0047779D01*
X0360546Y0045927D02*
X0359929Y0045310D01*
X0359312Y0045310D01*
X0358695Y0045927D01*
X0358695Y0047162D01*
X0359312Y0047779D01*
X0333851Y0044031D02*
X0331916Y0044031D01*
X0333367Y0045482D01*
X0333367Y0042580D01*
X0330904Y0043064D02*
X0330904Y0044999D01*
X0330420Y0045482D01*
X0328969Y0045482D01*
X0328969Y0042580D01*
X0330420Y0042580D01*
X0330904Y0043064D01*
X0327957Y0042580D02*
X0327957Y0045482D01*
X0326023Y0045482D02*
X0326023Y0042580D01*
X0325011Y0043064D02*
X0325011Y0044031D01*
X0324043Y0044031D01*
X0323076Y0043064D02*
X0323560Y0042580D01*
X0324527Y0042580D01*
X0325011Y0043064D01*
X0325011Y0044999D02*
X0324527Y0045482D01*
X0323560Y0045482D01*
X0323076Y0044999D01*
X0323076Y0043064D01*
X0326023Y0045482D02*
X0327957Y0042580D01*
X0326064Y0032282D02*
X0326064Y0029380D01*
X0324129Y0032282D01*
X0324129Y0029380D01*
X0323133Y0029380D02*
X0322165Y0029380D01*
X0322649Y0029380D02*
X0322649Y0032282D01*
X0322165Y0032282D02*
X0323133Y0032282D01*
X0321154Y0028896D02*
X0319219Y0028896D01*
X0318207Y0029864D02*
X0317723Y0029380D01*
X0316756Y0029380D01*
X0316272Y0029864D01*
X0316756Y0030831D02*
X0317723Y0030831D01*
X0318207Y0030347D01*
X0318207Y0029864D01*
X0316756Y0030831D02*
X0316272Y0031315D01*
X0316272Y0031799D01*
X0316756Y0032282D01*
X0317723Y0032282D01*
X0318207Y0031799D01*
X0315261Y0031799D02*
X0315261Y0030831D01*
X0314777Y0030347D01*
X0313326Y0030347D01*
X0313326Y0029380D02*
X0313326Y0032282D01*
X0314777Y0032282D01*
X0315261Y0031799D01*
X0312314Y0031799D02*
X0311830Y0032282D01*
X0310379Y0032282D01*
X0310379Y0029380D01*
X0310379Y0030347D02*
X0311830Y0030347D01*
X0312314Y0030831D01*
X0312314Y0031799D01*
X0309368Y0029380D02*
X0307433Y0029380D01*
X0308400Y0029380D02*
X0308400Y0032282D01*
X0307433Y0031315D01*
X0302064Y0032282D02*
X0300129Y0029380D01*
X0302064Y0029380D02*
X0300129Y0032282D01*
X0299118Y0032282D02*
X0297183Y0032282D01*
X0298150Y0032282D02*
X0298150Y0029380D01*
X0292420Y0042580D02*
X0291453Y0042580D01*
X0290969Y0043064D01*
X0289957Y0043547D02*
X0289957Y0045482D01*
X0290969Y0044999D02*
X0291453Y0045482D01*
X0292420Y0045482D01*
X0292904Y0044999D01*
X0292904Y0044515D01*
X0292420Y0044031D01*
X0292904Y0043547D01*
X0292904Y0043064D01*
X0292420Y0042580D01*
X0292420Y0044031D02*
X0291937Y0044031D01*
X0289957Y0043547D02*
X0288990Y0042580D01*
X0288023Y0043547D01*
X0288023Y0045482D01*
X0287011Y0044999D02*
X0287011Y0044515D01*
X0286527Y0044031D01*
X0287011Y0043547D01*
X0287011Y0043064D01*
X0286527Y0042580D01*
X0285560Y0042580D01*
X0285076Y0043064D01*
X0286043Y0044031D02*
X0286527Y0044031D01*
X0287011Y0044999D02*
X0286527Y0045482D01*
X0285560Y0045482D01*
X0285076Y0044999D01*
X0305076Y0045482D02*
X0305076Y0042580D01*
X0305076Y0043547D02*
X0306527Y0043547D01*
X0307011Y0044031D01*
X0307011Y0044999D01*
X0306527Y0045482D01*
X0305076Y0045482D01*
X0306043Y0043547D02*
X0307011Y0042580D01*
X0308023Y0042580D02*
X0309957Y0045482D01*
X0308023Y0045482D02*
X0309957Y0042580D01*
X0303231Y0093660D02*
X0301296Y0093660D01*
X0299801Y0095111D02*
X0298350Y0095111D01*
X0298350Y0094144D02*
X0298350Y0097046D01*
X0299801Y0097046D01*
X0300285Y0096562D01*
X0300285Y0095595D01*
X0299801Y0095111D01*
X0297338Y0095595D02*
X0297338Y0096562D01*
X0296854Y0097046D01*
X0295403Y0097046D01*
X0295403Y0094144D01*
X0295403Y0095111D02*
X0296854Y0095111D01*
X0297338Y0095595D01*
X0296371Y0095111D02*
X0297338Y0094144D01*
X0304243Y0094627D02*
X0304726Y0094144D01*
X0305694Y0094144D01*
X0306178Y0094627D01*
X0307189Y0094627D02*
X0307189Y0096562D01*
X0307673Y0097046D01*
X0308640Y0097046D01*
X0309124Y0096562D01*
X0309124Y0094627D01*
X0308640Y0094144D01*
X0307673Y0094144D01*
X0307189Y0094627D01*
X0306178Y0096562D02*
X0305694Y0097046D01*
X0304726Y0097046D01*
X0304243Y0096562D01*
X0304243Y0094627D01*
X0310136Y0094144D02*
X0310136Y0097046D01*
X0312071Y0094144D01*
X0312071Y0097046D01*
X0313082Y0096079D02*
X0314050Y0097046D01*
X0314050Y0094144D01*
X0315017Y0094144D02*
X0313082Y0094144D01*
X0320915Y0095111D02*
X0321882Y0094144D01*
X0322850Y0095111D01*
X0322850Y0097046D01*
X0323861Y0097046D02*
X0325313Y0097046D01*
X0325796Y0096562D01*
X0325796Y0095595D01*
X0325313Y0095111D01*
X0323861Y0095111D01*
X0323861Y0094144D02*
X0323861Y0097046D01*
X0324829Y0095111D02*
X0325796Y0094144D01*
X0326808Y0093660D02*
X0328743Y0093660D01*
X0329754Y0094627D02*
X0330238Y0094144D01*
X0331206Y0094144D01*
X0331689Y0094627D01*
X0332701Y0094627D02*
X0333185Y0094144D01*
X0334152Y0094144D01*
X0334636Y0094627D01*
X0334636Y0096562D01*
X0334152Y0097046D01*
X0333185Y0097046D01*
X0332701Y0096562D01*
X0332701Y0094627D01*
X0331689Y0096562D02*
X0331206Y0097046D01*
X0330238Y0097046D01*
X0329754Y0096562D01*
X0329754Y0094627D01*
X0335648Y0094144D02*
X0335648Y0097046D01*
X0337582Y0094144D01*
X0337582Y0097046D01*
X0338594Y0096079D02*
X0339562Y0097046D01*
X0339562Y0094144D01*
X0340529Y0094144D02*
X0338594Y0094144D01*
X0327610Y0107344D02*
X0325675Y0107344D01*
X0326642Y0107344D02*
X0326642Y0110246D01*
X0325675Y0109279D01*
X0324663Y0109762D02*
X0324663Y0108795D01*
X0324179Y0108311D01*
X0322728Y0108311D01*
X0322728Y0107344D02*
X0322728Y0110246D01*
X0324179Y0110246D01*
X0324663Y0109762D01*
X0321717Y0110246D02*
X0320749Y0110246D01*
X0321233Y0110246D02*
X0321233Y0107827D01*
X0320749Y0107344D01*
X0320265Y0107344D01*
X0319782Y0107827D01*
X0318770Y0106860D02*
X0316835Y0106860D01*
X0315824Y0108311D02*
X0315824Y0110246D01*
X0315824Y0108311D02*
X0314856Y0107344D01*
X0313889Y0108311D01*
X0313889Y0110246D01*
X0312877Y0110246D02*
X0312877Y0107344D01*
X0312877Y0108795D02*
X0310942Y0108795D01*
X0310942Y0107344D02*
X0310942Y0110246D01*
X0320915Y0097046D02*
X0320915Y0095111D01*
X0282261Y0094627D02*
X0281778Y0094144D01*
X0280810Y0094144D01*
X0280326Y0094627D01*
X0282261Y0096562D01*
X0282261Y0094627D01*
X0280326Y0094627D02*
X0280326Y0096562D01*
X0280810Y0097046D01*
X0281778Y0097046D01*
X0282261Y0096562D01*
X0279315Y0097046D02*
X0279315Y0094144D01*
X0277380Y0097046D01*
X0277380Y0094144D01*
X0276368Y0094627D02*
X0276368Y0096562D01*
X0275885Y0097046D01*
X0274917Y0097046D01*
X0274433Y0096562D01*
X0274433Y0094627D01*
X0274917Y0094144D01*
X0275885Y0094144D01*
X0276368Y0094627D01*
X0273422Y0094627D02*
X0272938Y0094144D01*
X0271970Y0094144D01*
X0271487Y0094627D01*
X0271487Y0096562D01*
X0271970Y0097046D01*
X0272938Y0097046D01*
X0273422Y0096562D01*
X0270475Y0093660D02*
X0268540Y0093660D01*
X0267529Y0094144D02*
X0266561Y0095111D01*
X0267045Y0095111D02*
X0265594Y0095111D01*
X0265594Y0094144D02*
X0265594Y0097046D01*
X0267045Y0097046D01*
X0267529Y0096562D01*
X0267529Y0095595D01*
X0267045Y0095111D01*
X0264582Y0095111D02*
X0264582Y0097046D01*
X0262647Y0097046D02*
X0262647Y0095111D01*
X0263615Y0094144D01*
X0264582Y0095111D01*
X0255962Y0094627D02*
X0255478Y0094144D01*
X0254511Y0094144D01*
X0254027Y0094627D01*
X0255962Y0096562D01*
X0255962Y0094627D01*
X0254027Y0094627D02*
X0254027Y0096562D01*
X0254511Y0097046D01*
X0255478Y0097046D01*
X0255962Y0096562D01*
X0253016Y0097046D02*
X0253016Y0094144D01*
X0251081Y0097046D01*
X0251081Y0094144D01*
X0250069Y0094627D02*
X0250069Y0096562D01*
X0249585Y0097046D01*
X0248618Y0097046D01*
X0248134Y0096562D01*
X0248134Y0094627D01*
X0248618Y0094144D01*
X0249585Y0094144D01*
X0250069Y0094627D01*
X0247123Y0094627D02*
X0246639Y0094144D01*
X0245671Y0094144D01*
X0245188Y0094627D01*
X0245188Y0096562D01*
X0245671Y0097046D01*
X0246639Y0097046D01*
X0247123Y0096562D01*
X0244176Y0093660D02*
X0242241Y0093660D01*
X0240746Y0095111D02*
X0241229Y0095595D01*
X0241229Y0096562D01*
X0240746Y0097046D01*
X0239295Y0097046D01*
X0239295Y0094144D01*
X0239295Y0095111D02*
X0240746Y0095111D01*
X0238283Y0095595D02*
X0237799Y0095111D01*
X0236348Y0095111D01*
X0236348Y0094144D02*
X0236348Y0097046D01*
X0237799Y0097046D01*
X0238283Y0096562D01*
X0238283Y0095595D01*
X0237315Y0095111D02*
X0238283Y0094144D01*
X0252674Y0107344D02*
X0252674Y0110246D01*
X0252674Y0108795D02*
X0254609Y0108795D01*
X0255621Y0108311D02*
X0255621Y0110246D01*
X0254609Y0110246D02*
X0254609Y0107344D01*
X0255621Y0108311D02*
X0256588Y0107344D01*
X0257556Y0108311D01*
X0257556Y0110246D01*
X0258567Y0106860D02*
X0260502Y0106860D01*
X0261514Y0107827D02*
X0261998Y0107344D01*
X0262481Y0107344D01*
X0262965Y0107827D01*
X0262965Y0110246D01*
X0262481Y0110246D02*
X0263449Y0110246D01*
X0264460Y0110246D02*
X0265912Y0110246D01*
X0266395Y0109762D01*
X0266395Y0108795D01*
X0265912Y0108311D01*
X0264460Y0108311D01*
X0264460Y0107344D02*
X0264460Y0110246D01*
X0267407Y0109762D02*
X0267407Y0107827D01*
X0269342Y0109762D01*
X0269342Y0107827D01*
X0268858Y0107344D01*
X0267891Y0107344D01*
X0267407Y0107827D01*
X0267407Y0109762D02*
X0267891Y0110246D01*
X0268858Y0110246D01*
X0269342Y0109762D01*
X0211856Y0367237D02*
X0212473Y0367854D01*
X0212473Y0369089D01*
X0211856Y0369706D01*
X0208770Y0369706D01*
X0208770Y0370920D02*
X0208770Y0373389D01*
X0209387Y0373389D01*
X0211856Y0370920D01*
X0212473Y0370920D01*
X0211856Y0367237D02*
X0208770Y0367237D01*
X0133339Y0367854D02*
X0133339Y0369089D01*
X0132722Y0369706D01*
X0129636Y0369706D01*
X0130253Y0370920D02*
X0130870Y0370920D01*
X0131487Y0371538D01*
X0131487Y0372772D01*
X0132105Y0373389D01*
X0132722Y0373389D01*
X0133339Y0372772D01*
X0133339Y0371538D01*
X0132722Y0370920D01*
X0132105Y0370920D01*
X0131487Y0371538D01*
X0131487Y0372772D02*
X0130870Y0373389D01*
X0130253Y0373389D01*
X0129636Y0372772D01*
X0129636Y0371538D01*
X0130253Y0370920D01*
X0129636Y0367237D02*
X0132722Y0367237D01*
X0133339Y0367854D01*
D12*
X0127548Y0375068D02*
X0064556Y0375068D01*
X0064556Y0201839D01*
X0127548Y0201839D01*
X0127548Y0375068D01*
X0143690Y0375068D02*
X0206682Y0375068D01*
X0206682Y0201839D01*
X0143690Y0201839D01*
X0143690Y0375068D01*
X0218335Y0379753D02*
X0218335Y0352194D01*
X0245894Y0352194D01*
X0245894Y0379753D01*
X0218335Y0379753D01*
X0257706Y0379753D02*
X0257706Y0352194D01*
X0285265Y0352194D01*
X0285265Y0379753D01*
X0257706Y0379753D01*
X0297076Y0379753D02*
X0297076Y0352194D01*
X0324635Y0352194D01*
X0324635Y0379753D01*
X0297076Y0379753D01*
X0336446Y0379753D02*
X0336446Y0352194D01*
X0364005Y0352194D01*
X0364005Y0379753D01*
X0336446Y0379753D01*
X0312745Y0226091D02*
X0272745Y0226091D01*
X0272745Y0216091D01*
X0312745Y0216091D01*
X0312745Y0226091D01*
X0200422Y0190580D02*
X0200422Y0170580D01*
X0150422Y0170580D01*
X0150422Y0190580D01*
X0200422Y0190580D01*
X0121682Y0189989D02*
X0121682Y0169989D01*
X0071682Y0169989D01*
X0071682Y0189989D01*
X0121682Y0189989D01*
X0033690Y0138808D02*
X0033099Y0138808D01*
X0032902Y0138808D02*
X0030737Y0137430D01*
X0030737Y0140186D01*
X0032902Y0138808D01*
X0032707Y0138684D02*
X0030737Y0138684D01*
X0030737Y0139182D02*
X0032314Y0139182D01*
X0031531Y0139681D02*
X0030737Y0139681D01*
X0030737Y0140179D02*
X0030747Y0140179D01*
X0030737Y0138185D02*
X0031924Y0138185D01*
X0031140Y0137687D02*
X0030737Y0137687D01*
X0030737Y0126406D02*
X0032902Y0125028D01*
X0030737Y0123650D01*
X0030737Y0126406D01*
X0030737Y0126221D02*
X0031028Y0126221D01*
X0030737Y0125722D02*
X0031812Y0125722D01*
X0032595Y0125224D02*
X0030737Y0125224D01*
X0030737Y0124725D02*
X0032426Y0124725D01*
X0033099Y0125028D02*
X0033690Y0125028D01*
X0031643Y0124227D02*
X0030737Y0124227D01*
X0030737Y0123728D02*
X0030859Y0123728D01*
X0030737Y0112627D02*
X0032902Y0111249D01*
X0030737Y0109871D01*
X0030737Y0112627D01*
X0030737Y0112263D02*
X0031309Y0112263D01*
X0030737Y0111764D02*
X0032093Y0111764D01*
X0032876Y0111266D02*
X0030737Y0111266D01*
X0030737Y0110767D02*
X0032145Y0110767D01*
X0031362Y0110268D02*
X0030737Y0110268D01*
X0033099Y0111249D02*
X0033690Y0111249D01*
X0030737Y0098847D02*
X0032902Y0097469D01*
X0030737Y0096091D01*
X0030737Y0098847D01*
X0030737Y0098803D02*
X0030807Y0098803D01*
X0030737Y0098304D02*
X0031590Y0098304D01*
X0032374Y0097806D02*
X0030737Y0097806D01*
X0030737Y0097307D02*
X0032648Y0097307D01*
X0033099Y0097469D02*
X0033690Y0097469D01*
X0031864Y0096809D02*
X0030737Y0096809D01*
X0030737Y0096310D02*
X0031081Y0096310D01*
X0030737Y0085068D02*
X0032902Y0083690D01*
X0030737Y0082312D01*
X0030737Y0085068D01*
X0030737Y0084844D02*
X0031088Y0084844D01*
X0030737Y0084346D02*
X0031871Y0084346D01*
X0032655Y0083847D02*
X0030737Y0083847D01*
X0030737Y0083349D02*
X0032367Y0083349D01*
X0033099Y0083690D02*
X0033690Y0083690D01*
X0031583Y0082850D02*
X0030737Y0082850D01*
X0030737Y0082352D02*
X0030800Y0082352D01*
X0030737Y0071288D02*
X0032902Y0069910D01*
X0030737Y0068532D01*
X0030737Y0071288D01*
X0030737Y0070886D02*
X0031369Y0070886D01*
X0030737Y0070388D02*
X0032152Y0070388D01*
X0032869Y0069889D02*
X0030737Y0069889D01*
X0030737Y0069391D02*
X0032086Y0069391D01*
X0031302Y0068892D02*
X0030737Y0068892D01*
X0033099Y0069910D02*
X0033690Y0069910D01*
X0276485Y0084241D02*
X0276485Y0021249D01*
X0339477Y0021249D01*
X0339477Y0084241D01*
X0276485Y0084241D01*
X0328256Y0026170D02*
X0328258Y0026258D01*
X0328264Y0026346D01*
X0328274Y0026434D01*
X0328288Y0026522D01*
X0328305Y0026608D01*
X0328327Y0026694D01*
X0328352Y0026778D01*
X0328382Y0026862D01*
X0328414Y0026944D01*
X0328451Y0027024D01*
X0328491Y0027103D01*
X0328535Y0027180D01*
X0328582Y0027255D01*
X0328632Y0027327D01*
X0328686Y0027398D01*
X0328742Y0027465D01*
X0328802Y0027531D01*
X0328864Y0027593D01*
X0328930Y0027653D01*
X0328997Y0027709D01*
X0329068Y0027763D01*
X0329140Y0027813D01*
X0329215Y0027860D01*
X0329292Y0027904D01*
X0329371Y0027944D01*
X0329451Y0027981D01*
X0329533Y0028013D01*
X0329617Y0028043D01*
X0329701Y0028068D01*
X0329787Y0028090D01*
X0329873Y0028107D01*
X0329961Y0028121D01*
X0330049Y0028131D01*
X0330137Y0028137D01*
X0330225Y0028139D01*
X0330313Y0028137D01*
X0330401Y0028131D01*
X0330489Y0028121D01*
X0330577Y0028107D01*
X0330663Y0028090D01*
X0330749Y0028068D01*
X0330833Y0028043D01*
X0330917Y0028013D01*
X0330999Y0027981D01*
X0331079Y0027944D01*
X0331158Y0027904D01*
X0331235Y0027860D01*
X0331310Y0027813D01*
X0331382Y0027763D01*
X0331453Y0027709D01*
X0331520Y0027653D01*
X0331586Y0027593D01*
X0331648Y0027531D01*
X0331708Y0027465D01*
X0331764Y0027398D01*
X0331818Y0027327D01*
X0331868Y0027255D01*
X0331915Y0027180D01*
X0331959Y0027103D01*
X0331999Y0027024D01*
X0332036Y0026944D01*
X0332068Y0026862D01*
X0332098Y0026778D01*
X0332123Y0026694D01*
X0332145Y0026608D01*
X0332162Y0026522D01*
X0332176Y0026434D01*
X0332186Y0026346D01*
X0332192Y0026258D01*
X0332194Y0026170D01*
X0332192Y0026082D01*
X0332186Y0025994D01*
X0332176Y0025906D01*
X0332162Y0025818D01*
X0332145Y0025732D01*
X0332123Y0025646D01*
X0332098Y0025562D01*
X0332068Y0025478D01*
X0332036Y0025396D01*
X0331999Y0025316D01*
X0331959Y0025237D01*
X0331915Y0025160D01*
X0331868Y0025085D01*
X0331818Y0025013D01*
X0331764Y0024942D01*
X0331708Y0024875D01*
X0331648Y0024809D01*
X0331586Y0024747D01*
X0331520Y0024687D01*
X0331453Y0024631D01*
X0331382Y0024577D01*
X0331310Y0024527D01*
X0331235Y0024480D01*
X0331158Y0024436D01*
X0331079Y0024396D01*
X0330999Y0024359D01*
X0330917Y0024327D01*
X0330833Y0024297D01*
X0330749Y0024272D01*
X0330663Y0024250D01*
X0330577Y0024233D01*
X0330489Y0024219D01*
X0330401Y0024209D01*
X0330313Y0024203D01*
X0330225Y0024201D01*
X0330137Y0024203D01*
X0330049Y0024209D01*
X0329961Y0024219D01*
X0329873Y0024233D01*
X0329787Y0024250D01*
X0329701Y0024272D01*
X0329617Y0024297D01*
X0329533Y0024327D01*
X0329451Y0024359D01*
X0329371Y0024396D01*
X0329292Y0024436D01*
X0329215Y0024480D01*
X0329140Y0024527D01*
X0329068Y0024577D01*
X0328997Y0024631D01*
X0328930Y0024687D01*
X0328864Y0024747D01*
X0328802Y0024809D01*
X0328742Y0024875D01*
X0328686Y0024942D01*
X0328632Y0025013D01*
X0328582Y0025085D01*
X0328535Y0025160D01*
X0328491Y0025237D01*
X0328451Y0025316D01*
X0328414Y0025396D01*
X0328382Y0025478D01*
X0328352Y0025562D01*
X0328327Y0025646D01*
X0328305Y0025732D01*
X0328288Y0025818D01*
X0328274Y0025906D01*
X0328264Y0025994D01*
X0328258Y0026082D01*
X0328256Y0026170D01*
X0363335Y0047784D02*
X0363335Y0107784D01*
X0373335Y0107784D01*
X0373335Y0047784D01*
X0363335Y0047784D01*
X0052515Y0341351D02*
X0052515Y0342102D01*
X0051764Y0342852D01*
X0048011Y0342852D01*
X0048011Y0342102D02*
X0048011Y0343603D01*
X0048011Y0345204D02*
X0048011Y0347456D01*
X0048761Y0348207D01*
X0050263Y0348207D01*
X0051013Y0347456D01*
X0051013Y0345204D01*
X0052515Y0345204D02*
X0048011Y0345204D01*
X0049512Y0349808D02*
X0048011Y0351310D01*
X0052515Y0351310D01*
X0052515Y0352811D02*
X0052515Y0349808D01*
X0052515Y0341351D02*
X0051764Y0340600D01*
D13*
X0045265Y0341662D02*
X0045265Y0336662D01*
X0042765Y0334162D01*
X0027765Y0334162D01*
X0025265Y0331662D01*
X0025265Y0326662D01*
X0027765Y0324162D01*
X0042765Y0324162D01*
X0045265Y0321662D01*
X0045265Y0316662D01*
X0042765Y0314162D01*
X0027765Y0314162D01*
X0025265Y0311662D01*
X0025265Y0306662D01*
X0027765Y0304162D01*
X0042765Y0304162D01*
X0045265Y0301662D01*
X0045265Y0296662D01*
X0042765Y0294162D01*
X0027765Y0294162D01*
X0025265Y0291662D01*
X0025265Y0286662D01*
X0027765Y0284162D01*
X0042765Y0284162D01*
X0045265Y0281662D01*
X0045265Y0276662D01*
X0042765Y0274162D01*
X0027765Y0274162D01*
X0025265Y0276662D01*
X0025265Y0281662D01*
X0027765Y0284162D01*
X0027765Y0274162D02*
X0025265Y0271662D01*
X0025265Y0266662D01*
X0027765Y0264162D01*
X0042765Y0264162D01*
X0045265Y0261662D01*
X0045265Y0256662D01*
X0042765Y0254162D01*
X0027765Y0254162D01*
X0025265Y0256662D01*
X0025265Y0261662D01*
X0027765Y0264162D01*
X0027765Y0254162D02*
X0025265Y0251662D01*
X0025265Y0246662D01*
X0027765Y0244162D01*
X0042765Y0244162D01*
X0045265Y0241662D01*
X0045265Y0236662D01*
X0042765Y0234162D01*
X0027765Y0234162D01*
X0025265Y0236662D01*
X0025265Y0241662D01*
X0027765Y0244162D01*
X0027765Y0234162D02*
X0025265Y0231662D01*
X0025265Y0226662D01*
X0027765Y0224162D01*
X0042765Y0224162D01*
X0045265Y0221662D01*
X0045265Y0216662D01*
X0042765Y0214162D01*
X0027765Y0214162D01*
X0025265Y0216662D01*
X0025265Y0221662D01*
X0027765Y0224162D01*
X0027765Y0214162D02*
X0025265Y0211662D01*
X0025265Y0206662D01*
X0027765Y0204162D01*
X0042765Y0204162D01*
X0045265Y0201662D01*
X0045265Y0196662D01*
X0042765Y0194162D01*
X0027765Y0194162D01*
X0025265Y0196662D01*
X0025265Y0201662D01*
X0027765Y0204162D01*
X0027765Y0194162D02*
X0025265Y0191662D01*
X0025265Y0186662D01*
X0027765Y0184162D01*
X0042765Y0184162D01*
X0045265Y0181662D01*
X0045265Y0176662D01*
X0042765Y0174162D01*
X0027765Y0174162D01*
X0025265Y0176662D01*
X0025265Y0181662D01*
X0027765Y0184162D01*
X0027765Y0174162D02*
X0025265Y0171662D01*
X0025265Y0166662D01*
X0027765Y0164162D01*
X0025265Y0161662D01*
X0025265Y0156662D01*
X0027765Y0154162D01*
X0042765Y0154162D01*
X0045265Y0156662D01*
X0045265Y0161662D01*
X0042765Y0164162D01*
X0027765Y0164162D01*
X0042765Y0164162D02*
X0045265Y0166662D01*
X0045265Y0171662D01*
X0042765Y0174162D01*
X0042765Y0184162D02*
X0045265Y0186662D01*
X0045265Y0191662D01*
X0042765Y0194162D01*
X0042765Y0204162D02*
X0045265Y0206662D01*
X0045265Y0211662D01*
X0042765Y0214162D01*
X0042765Y0224162D02*
X0045265Y0226662D01*
X0045265Y0231662D01*
X0042765Y0234162D01*
X0042765Y0244162D02*
X0045265Y0246662D01*
X0045265Y0251662D01*
X0042765Y0254162D01*
X0042765Y0264162D02*
X0045265Y0266662D01*
X0045265Y0271662D01*
X0042765Y0274162D01*
X0042765Y0284162D02*
X0045265Y0286662D01*
X0045265Y0291662D01*
X0042765Y0294162D01*
X0042765Y0304162D02*
X0045265Y0306662D01*
X0045265Y0311662D01*
X0042765Y0314162D01*
X0042765Y0324162D02*
X0045265Y0326662D01*
X0045265Y0331662D01*
X0042765Y0334162D01*
X0045265Y0341662D02*
X0042765Y0344162D01*
X0027765Y0344162D01*
X0025265Y0341662D01*
X0025265Y0336662D01*
X0027765Y0334162D01*
X0027765Y0344162D02*
X0025265Y0346662D01*
X0025265Y0351662D01*
X0027765Y0354162D01*
X0042765Y0354162D01*
X0045265Y0351662D01*
X0045265Y0346662D01*
X0042765Y0344162D01*
X0027765Y0324162D02*
X0025265Y0321662D01*
X0025265Y0316662D01*
X0027765Y0314162D01*
X0027765Y0304162D02*
X0025265Y0301662D01*
X0025265Y0296662D01*
X0027765Y0294162D01*
X0225418Y0168139D02*
X0225420Y0168271D01*
X0225426Y0168402D01*
X0225436Y0168533D01*
X0225450Y0168664D01*
X0225468Y0168794D01*
X0225490Y0168924D01*
X0225515Y0169053D01*
X0225545Y0169181D01*
X0225579Y0169309D01*
X0225616Y0169435D01*
X0225657Y0169560D01*
X0225702Y0169683D01*
X0225751Y0169806D01*
X0225804Y0169926D01*
X0225860Y0170045D01*
X0225919Y0170163D01*
X0225982Y0170278D01*
X0226049Y0170391D01*
X0226119Y0170503D01*
X0226193Y0170612D01*
X0226269Y0170719D01*
X0226349Y0170823D01*
X0226432Y0170925D01*
X0226518Y0171025D01*
X0226607Y0171122D01*
X0226699Y0171216D01*
X0226794Y0171307D01*
X0226892Y0171396D01*
X0226992Y0171481D01*
X0227094Y0171563D01*
X0227200Y0171642D01*
X0227307Y0171718D01*
X0227417Y0171791D01*
X0227529Y0171860D01*
X0227643Y0171926D01*
X0227759Y0171988D01*
X0227876Y0172047D01*
X0227996Y0172102D01*
X0228117Y0172153D01*
X0228239Y0172201D01*
X0228363Y0172245D01*
X0228489Y0172286D01*
X0228615Y0172322D01*
X0228743Y0172355D01*
X0228871Y0172383D01*
X0229000Y0172408D01*
X0229130Y0172429D01*
X0229261Y0172446D01*
X0229392Y0172459D01*
X0229523Y0172468D01*
X0229654Y0172473D01*
X0229786Y0172474D01*
X0229917Y0172471D01*
X0230049Y0172464D01*
X0230180Y0172453D01*
X0230311Y0172438D01*
X0230441Y0172419D01*
X0230570Y0172396D01*
X0230699Y0172369D01*
X0230827Y0172339D01*
X0230954Y0172304D01*
X0231080Y0172266D01*
X0231205Y0172224D01*
X0231328Y0172178D01*
X0231450Y0172128D01*
X0231570Y0172075D01*
X0231689Y0172018D01*
X0231806Y0171957D01*
X0231920Y0171893D01*
X0232033Y0171826D01*
X0232144Y0171755D01*
X0232253Y0171681D01*
X0232359Y0171603D01*
X0232463Y0171522D01*
X0232565Y0171439D01*
X0232663Y0171352D01*
X0232760Y0171262D01*
X0232853Y0171169D01*
X0232944Y0171074D01*
X0233031Y0170976D01*
X0233116Y0170875D01*
X0233197Y0170771D01*
X0233275Y0170666D01*
X0233351Y0170558D01*
X0233422Y0170447D01*
X0233491Y0170335D01*
X0233556Y0170220D01*
X0233617Y0170104D01*
X0233675Y0169986D01*
X0233729Y0169866D01*
X0233780Y0169745D01*
X0233827Y0169622D01*
X0233870Y0169497D01*
X0233909Y0169372D01*
X0233945Y0169245D01*
X0233976Y0169117D01*
X0234004Y0168989D01*
X0234028Y0168859D01*
X0234048Y0168729D01*
X0234064Y0168599D01*
X0234076Y0168468D01*
X0234084Y0168336D01*
X0234088Y0168205D01*
X0234088Y0168073D01*
X0234084Y0167942D01*
X0234076Y0167810D01*
X0234064Y0167679D01*
X0234048Y0167549D01*
X0234028Y0167419D01*
X0234004Y0167289D01*
X0233976Y0167161D01*
X0233945Y0167033D01*
X0233909Y0166906D01*
X0233870Y0166781D01*
X0233827Y0166656D01*
X0233780Y0166533D01*
X0233729Y0166412D01*
X0233675Y0166292D01*
X0233617Y0166174D01*
X0233556Y0166058D01*
X0233491Y0165943D01*
X0233422Y0165831D01*
X0233351Y0165720D01*
X0233275Y0165612D01*
X0233197Y0165507D01*
X0233116Y0165403D01*
X0233031Y0165302D01*
X0232944Y0165204D01*
X0232853Y0165109D01*
X0232760Y0165016D01*
X0232663Y0164926D01*
X0232565Y0164839D01*
X0232463Y0164756D01*
X0232359Y0164675D01*
X0232253Y0164597D01*
X0232144Y0164523D01*
X0232033Y0164452D01*
X0231921Y0164385D01*
X0231806Y0164321D01*
X0231689Y0164260D01*
X0231570Y0164203D01*
X0231450Y0164150D01*
X0231328Y0164100D01*
X0231205Y0164054D01*
X0231080Y0164012D01*
X0230954Y0163974D01*
X0230827Y0163939D01*
X0230699Y0163909D01*
X0230570Y0163882D01*
X0230441Y0163859D01*
X0230311Y0163840D01*
X0230180Y0163825D01*
X0230049Y0163814D01*
X0229917Y0163807D01*
X0229786Y0163804D01*
X0229654Y0163805D01*
X0229523Y0163810D01*
X0229392Y0163819D01*
X0229261Y0163832D01*
X0229130Y0163849D01*
X0229000Y0163870D01*
X0228871Y0163895D01*
X0228743Y0163923D01*
X0228615Y0163956D01*
X0228489Y0163992D01*
X0228363Y0164033D01*
X0228239Y0164077D01*
X0228117Y0164125D01*
X0227996Y0164176D01*
X0227876Y0164231D01*
X0227759Y0164290D01*
X0227643Y0164352D01*
X0227529Y0164418D01*
X0227417Y0164487D01*
X0227307Y0164560D01*
X0227200Y0164636D01*
X0227094Y0164715D01*
X0226992Y0164797D01*
X0226892Y0164882D01*
X0226794Y0164971D01*
X0226699Y0165062D01*
X0226607Y0165156D01*
X0226518Y0165253D01*
X0226432Y0165353D01*
X0226349Y0165455D01*
X0226269Y0165559D01*
X0226193Y0165666D01*
X0226119Y0165775D01*
X0226049Y0165887D01*
X0225982Y0166000D01*
X0225919Y0166115D01*
X0225860Y0166233D01*
X0225804Y0166352D01*
X0225751Y0166472D01*
X0225702Y0166595D01*
X0225657Y0166718D01*
X0225616Y0166843D01*
X0225579Y0166969D01*
X0225545Y0167097D01*
X0225515Y0167225D01*
X0225490Y0167354D01*
X0225468Y0167484D01*
X0225450Y0167614D01*
X0225436Y0167745D01*
X0225426Y0167876D01*
X0225420Y0168007D01*
X0225418Y0168139D01*
X0264788Y0168139D02*
X0264790Y0168271D01*
X0264796Y0168402D01*
X0264806Y0168533D01*
X0264820Y0168664D01*
X0264838Y0168794D01*
X0264860Y0168924D01*
X0264885Y0169053D01*
X0264915Y0169181D01*
X0264949Y0169309D01*
X0264986Y0169435D01*
X0265027Y0169560D01*
X0265072Y0169683D01*
X0265121Y0169806D01*
X0265174Y0169926D01*
X0265230Y0170045D01*
X0265289Y0170163D01*
X0265352Y0170278D01*
X0265419Y0170391D01*
X0265489Y0170503D01*
X0265563Y0170612D01*
X0265639Y0170719D01*
X0265719Y0170823D01*
X0265802Y0170925D01*
X0265888Y0171025D01*
X0265977Y0171122D01*
X0266069Y0171216D01*
X0266164Y0171307D01*
X0266262Y0171396D01*
X0266362Y0171481D01*
X0266464Y0171563D01*
X0266570Y0171642D01*
X0266677Y0171718D01*
X0266787Y0171791D01*
X0266899Y0171860D01*
X0267013Y0171926D01*
X0267129Y0171988D01*
X0267246Y0172047D01*
X0267366Y0172102D01*
X0267487Y0172153D01*
X0267609Y0172201D01*
X0267733Y0172245D01*
X0267859Y0172286D01*
X0267985Y0172322D01*
X0268113Y0172355D01*
X0268241Y0172383D01*
X0268370Y0172408D01*
X0268500Y0172429D01*
X0268631Y0172446D01*
X0268762Y0172459D01*
X0268893Y0172468D01*
X0269024Y0172473D01*
X0269156Y0172474D01*
X0269287Y0172471D01*
X0269419Y0172464D01*
X0269550Y0172453D01*
X0269681Y0172438D01*
X0269811Y0172419D01*
X0269940Y0172396D01*
X0270069Y0172369D01*
X0270197Y0172339D01*
X0270324Y0172304D01*
X0270450Y0172266D01*
X0270575Y0172224D01*
X0270698Y0172178D01*
X0270820Y0172128D01*
X0270940Y0172075D01*
X0271059Y0172018D01*
X0271176Y0171957D01*
X0271290Y0171893D01*
X0271403Y0171826D01*
X0271514Y0171755D01*
X0271623Y0171681D01*
X0271729Y0171603D01*
X0271833Y0171522D01*
X0271935Y0171439D01*
X0272033Y0171352D01*
X0272130Y0171262D01*
X0272223Y0171169D01*
X0272314Y0171074D01*
X0272401Y0170976D01*
X0272486Y0170875D01*
X0272567Y0170771D01*
X0272645Y0170666D01*
X0272721Y0170558D01*
X0272792Y0170447D01*
X0272861Y0170335D01*
X0272926Y0170220D01*
X0272987Y0170104D01*
X0273045Y0169986D01*
X0273099Y0169866D01*
X0273150Y0169745D01*
X0273197Y0169622D01*
X0273240Y0169497D01*
X0273279Y0169372D01*
X0273315Y0169245D01*
X0273346Y0169117D01*
X0273374Y0168989D01*
X0273398Y0168859D01*
X0273418Y0168729D01*
X0273434Y0168599D01*
X0273446Y0168468D01*
X0273454Y0168336D01*
X0273458Y0168205D01*
X0273458Y0168073D01*
X0273454Y0167942D01*
X0273446Y0167810D01*
X0273434Y0167679D01*
X0273418Y0167549D01*
X0273398Y0167419D01*
X0273374Y0167289D01*
X0273346Y0167161D01*
X0273315Y0167033D01*
X0273279Y0166906D01*
X0273240Y0166781D01*
X0273197Y0166656D01*
X0273150Y0166533D01*
X0273099Y0166412D01*
X0273045Y0166292D01*
X0272987Y0166174D01*
X0272926Y0166058D01*
X0272861Y0165943D01*
X0272792Y0165831D01*
X0272721Y0165720D01*
X0272645Y0165612D01*
X0272567Y0165507D01*
X0272486Y0165403D01*
X0272401Y0165302D01*
X0272314Y0165204D01*
X0272223Y0165109D01*
X0272130Y0165016D01*
X0272033Y0164926D01*
X0271935Y0164839D01*
X0271833Y0164756D01*
X0271729Y0164675D01*
X0271623Y0164597D01*
X0271514Y0164523D01*
X0271403Y0164452D01*
X0271291Y0164385D01*
X0271176Y0164321D01*
X0271059Y0164260D01*
X0270940Y0164203D01*
X0270820Y0164150D01*
X0270698Y0164100D01*
X0270575Y0164054D01*
X0270450Y0164012D01*
X0270324Y0163974D01*
X0270197Y0163939D01*
X0270069Y0163909D01*
X0269940Y0163882D01*
X0269811Y0163859D01*
X0269681Y0163840D01*
X0269550Y0163825D01*
X0269419Y0163814D01*
X0269287Y0163807D01*
X0269156Y0163804D01*
X0269024Y0163805D01*
X0268893Y0163810D01*
X0268762Y0163819D01*
X0268631Y0163832D01*
X0268500Y0163849D01*
X0268370Y0163870D01*
X0268241Y0163895D01*
X0268113Y0163923D01*
X0267985Y0163956D01*
X0267859Y0163992D01*
X0267733Y0164033D01*
X0267609Y0164077D01*
X0267487Y0164125D01*
X0267366Y0164176D01*
X0267246Y0164231D01*
X0267129Y0164290D01*
X0267013Y0164352D01*
X0266899Y0164418D01*
X0266787Y0164487D01*
X0266677Y0164560D01*
X0266570Y0164636D01*
X0266464Y0164715D01*
X0266362Y0164797D01*
X0266262Y0164882D01*
X0266164Y0164971D01*
X0266069Y0165062D01*
X0265977Y0165156D01*
X0265888Y0165253D01*
X0265802Y0165353D01*
X0265719Y0165455D01*
X0265639Y0165559D01*
X0265563Y0165666D01*
X0265489Y0165775D01*
X0265419Y0165887D01*
X0265352Y0166000D01*
X0265289Y0166115D01*
X0265230Y0166233D01*
X0265174Y0166352D01*
X0265121Y0166472D01*
X0265072Y0166595D01*
X0265027Y0166718D01*
X0264986Y0166843D01*
X0264949Y0166969D01*
X0264915Y0167097D01*
X0264885Y0167225D01*
X0264860Y0167354D01*
X0264838Y0167484D01*
X0264820Y0167614D01*
X0264806Y0167745D01*
X0264796Y0167876D01*
X0264790Y0168007D01*
X0264788Y0168139D01*
X0304158Y0168139D02*
X0304160Y0168271D01*
X0304166Y0168402D01*
X0304176Y0168533D01*
X0304190Y0168664D01*
X0304208Y0168794D01*
X0304230Y0168924D01*
X0304255Y0169053D01*
X0304285Y0169181D01*
X0304319Y0169309D01*
X0304356Y0169435D01*
X0304397Y0169560D01*
X0304442Y0169683D01*
X0304491Y0169806D01*
X0304544Y0169926D01*
X0304600Y0170045D01*
X0304659Y0170163D01*
X0304722Y0170278D01*
X0304789Y0170391D01*
X0304859Y0170503D01*
X0304933Y0170612D01*
X0305009Y0170719D01*
X0305089Y0170823D01*
X0305172Y0170925D01*
X0305258Y0171025D01*
X0305347Y0171122D01*
X0305439Y0171216D01*
X0305534Y0171307D01*
X0305632Y0171396D01*
X0305732Y0171481D01*
X0305834Y0171563D01*
X0305940Y0171642D01*
X0306047Y0171718D01*
X0306157Y0171791D01*
X0306269Y0171860D01*
X0306383Y0171926D01*
X0306499Y0171988D01*
X0306616Y0172047D01*
X0306736Y0172102D01*
X0306857Y0172153D01*
X0306979Y0172201D01*
X0307103Y0172245D01*
X0307229Y0172286D01*
X0307355Y0172322D01*
X0307483Y0172355D01*
X0307611Y0172383D01*
X0307740Y0172408D01*
X0307870Y0172429D01*
X0308001Y0172446D01*
X0308132Y0172459D01*
X0308263Y0172468D01*
X0308394Y0172473D01*
X0308526Y0172474D01*
X0308657Y0172471D01*
X0308789Y0172464D01*
X0308920Y0172453D01*
X0309051Y0172438D01*
X0309181Y0172419D01*
X0309310Y0172396D01*
X0309439Y0172369D01*
X0309567Y0172339D01*
X0309694Y0172304D01*
X0309820Y0172266D01*
X0309945Y0172224D01*
X0310068Y0172178D01*
X0310190Y0172128D01*
X0310310Y0172075D01*
X0310429Y0172018D01*
X0310546Y0171957D01*
X0310660Y0171893D01*
X0310773Y0171826D01*
X0310884Y0171755D01*
X0310993Y0171681D01*
X0311099Y0171603D01*
X0311203Y0171522D01*
X0311305Y0171439D01*
X0311403Y0171352D01*
X0311500Y0171262D01*
X0311593Y0171169D01*
X0311684Y0171074D01*
X0311771Y0170976D01*
X0311856Y0170875D01*
X0311937Y0170771D01*
X0312015Y0170666D01*
X0312091Y0170558D01*
X0312162Y0170447D01*
X0312231Y0170335D01*
X0312296Y0170220D01*
X0312357Y0170104D01*
X0312415Y0169986D01*
X0312469Y0169866D01*
X0312520Y0169745D01*
X0312567Y0169622D01*
X0312610Y0169497D01*
X0312649Y0169372D01*
X0312685Y0169245D01*
X0312716Y0169117D01*
X0312744Y0168989D01*
X0312768Y0168859D01*
X0312788Y0168729D01*
X0312804Y0168599D01*
X0312816Y0168468D01*
X0312824Y0168336D01*
X0312828Y0168205D01*
X0312828Y0168073D01*
X0312824Y0167942D01*
X0312816Y0167810D01*
X0312804Y0167679D01*
X0312788Y0167549D01*
X0312768Y0167419D01*
X0312744Y0167289D01*
X0312716Y0167161D01*
X0312685Y0167033D01*
X0312649Y0166906D01*
X0312610Y0166781D01*
X0312567Y0166656D01*
X0312520Y0166533D01*
X0312469Y0166412D01*
X0312415Y0166292D01*
X0312357Y0166174D01*
X0312296Y0166058D01*
X0312231Y0165943D01*
X0312162Y0165831D01*
X0312091Y0165720D01*
X0312015Y0165612D01*
X0311937Y0165507D01*
X0311856Y0165403D01*
X0311771Y0165302D01*
X0311684Y0165204D01*
X0311593Y0165109D01*
X0311500Y0165016D01*
X0311403Y0164926D01*
X0311305Y0164839D01*
X0311203Y0164756D01*
X0311099Y0164675D01*
X0310993Y0164597D01*
X0310884Y0164523D01*
X0310773Y0164452D01*
X0310661Y0164385D01*
X0310546Y0164321D01*
X0310429Y0164260D01*
X0310310Y0164203D01*
X0310190Y0164150D01*
X0310068Y0164100D01*
X0309945Y0164054D01*
X0309820Y0164012D01*
X0309694Y0163974D01*
X0309567Y0163939D01*
X0309439Y0163909D01*
X0309310Y0163882D01*
X0309181Y0163859D01*
X0309051Y0163840D01*
X0308920Y0163825D01*
X0308789Y0163814D01*
X0308657Y0163807D01*
X0308526Y0163804D01*
X0308394Y0163805D01*
X0308263Y0163810D01*
X0308132Y0163819D01*
X0308001Y0163832D01*
X0307870Y0163849D01*
X0307740Y0163870D01*
X0307611Y0163895D01*
X0307483Y0163923D01*
X0307355Y0163956D01*
X0307229Y0163992D01*
X0307103Y0164033D01*
X0306979Y0164077D01*
X0306857Y0164125D01*
X0306736Y0164176D01*
X0306616Y0164231D01*
X0306499Y0164290D01*
X0306383Y0164352D01*
X0306269Y0164418D01*
X0306157Y0164487D01*
X0306047Y0164560D01*
X0305940Y0164636D01*
X0305834Y0164715D01*
X0305732Y0164797D01*
X0305632Y0164882D01*
X0305534Y0164971D01*
X0305439Y0165062D01*
X0305347Y0165156D01*
X0305258Y0165253D01*
X0305172Y0165353D01*
X0305089Y0165455D01*
X0305009Y0165559D01*
X0304933Y0165666D01*
X0304859Y0165775D01*
X0304789Y0165887D01*
X0304722Y0166000D01*
X0304659Y0166115D01*
X0304600Y0166233D01*
X0304544Y0166352D01*
X0304491Y0166472D01*
X0304442Y0166595D01*
X0304397Y0166718D01*
X0304356Y0166843D01*
X0304319Y0166969D01*
X0304285Y0167097D01*
X0304255Y0167225D01*
X0304230Y0167354D01*
X0304208Y0167484D01*
X0304190Y0167614D01*
X0304176Y0167745D01*
X0304166Y0167876D01*
X0304160Y0168007D01*
X0304158Y0168139D01*
X0343528Y0168139D02*
X0343530Y0168271D01*
X0343536Y0168402D01*
X0343546Y0168533D01*
X0343560Y0168664D01*
X0343578Y0168794D01*
X0343600Y0168924D01*
X0343625Y0169053D01*
X0343655Y0169181D01*
X0343689Y0169309D01*
X0343726Y0169435D01*
X0343767Y0169560D01*
X0343812Y0169683D01*
X0343861Y0169806D01*
X0343914Y0169926D01*
X0343970Y0170045D01*
X0344029Y0170163D01*
X0344092Y0170278D01*
X0344159Y0170391D01*
X0344229Y0170503D01*
X0344303Y0170612D01*
X0344379Y0170719D01*
X0344459Y0170823D01*
X0344542Y0170925D01*
X0344628Y0171025D01*
X0344717Y0171122D01*
X0344809Y0171216D01*
X0344904Y0171307D01*
X0345002Y0171396D01*
X0345102Y0171481D01*
X0345204Y0171563D01*
X0345310Y0171642D01*
X0345417Y0171718D01*
X0345527Y0171791D01*
X0345639Y0171860D01*
X0345753Y0171926D01*
X0345869Y0171988D01*
X0345986Y0172047D01*
X0346106Y0172102D01*
X0346227Y0172153D01*
X0346349Y0172201D01*
X0346473Y0172245D01*
X0346599Y0172286D01*
X0346725Y0172322D01*
X0346853Y0172355D01*
X0346981Y0172383D01*
X0347110Y0172408D01*
X0347240Y0172429D01*
X0347371Y0172446D01*
X0347502Y0172459D01*
X0347633Y0172468D01*
X0347764Y0172473D01*
X0347896Y0172474D01*
X0348027Y0172471D01*
X0348159Y0172464D01*
X0348290Y0172453D01*
X0348421Y0172438D01*
X0348551Y0172419D01*
X0348680Y0172396D01*
X0348809Y0172369D01*
X0348937Y0172339D01*
X0349064Y0172304D01*
X0349190Y0172266D01*
X0349315Y0172224D01*
X0349438Y0172178D01*
X0349560Y0172128D01*
X0349680Y0172075D01*
X0349799Y0172018D01*
X0349916Y0171957D01*
X0350030Y0171893D01*
X0350143Y0171826D01*
X0350254Y0171755D01*
X0350363Y0171681D01*
X0350469Y0171603D01*
X0350573Y0171522D01*
X0350675Y0171439D01*
X0350773Y0171352D01*
X0350870Y0171262D01*
X0350963Y0171169D01*
X0351054Y0171074D01*
X0351141Y0170976D01*
X0351226Y0170875D01*
X0351307Y0170771D01*
X0351385Y0170666D01*
X0351461Y0170558D01*
X0351532Y0170447D01*
X0351601Y0170335D01*
X0351666Y0170220D01*
X0351727Y0170104D01*
X0351785Y0169986D01*
X0351839Y0169866D01*
X0351890Y0169745D01*
X0351937Y0169622D01*
X0351980Y0169497D01*
X0352019Y0169372D01*
X0352055Y0169245D01*
X0352086Y0169117D01*
X0352114Y0168989D01*
X0352138Y0168859D01*
X0352158Y0168729D01*
X0352174Y0168599D01*
X0352186Y0168468D01*
X0352194Y0168336D01*
X0352198Y0168205D01*
X0352198Y0168073D01*
X0352194Y0167942D01*
X0352186Y0167810D01*
X0352174Y0167679D01*
X0352158Y0167549D01*
X0352138Y0167419D01*
X0352114Y0167289D01*
X0352086Y0167161D01*
X0352055Y0167033D01*
X0352019Y0166906D01*
X0351980Y0166781D01*
X0351937Y0166656D01*
X0351890Y0166533D01*
X0351839Y0166412D01*
X0351785Y0166292D01*
X0351727Y0166174D01*
X0351666Y0166058D01*
X0351601Y0165943D01*
X0351532Y0165831D01*
X0351461Y0165720D01*
X0351385Y0165612D01*
X0351307Y0165507D01*
X0351226Y0165403D01*
X0351141Y0165302D01*
X0351054Y0165204D01*
X0350963Y0165109D01*
X0350870Y0165016D01*
X0350773Y0164926D01*
X0350675Y0164839D01*
X0350573Y0164756D01*
X0350469Y0164675D01*
X0350363Y0164597D01*
X0350254Y0164523D01*
X0350143Y0164452D01*
X0350031Y0164385D01*
X0349916Y0164321D01*
X0349799Y0164260D01*
X0349680Y0164203D01*
X0349560Y0164150D01*
X0349438Y0164100D01*
X0349315Y0164054D01*
X0349190Y0164012D01*
X0349064Y0163974D01*
X0348937Y0163939D01*
X0348809Y0163909D01*
X0348680Y0163882D01*
X0348551Y0163859D01*
X0348421Y0163840D01*
X0348290Y0163825D01*
X0348159Y0163814D01*
X0348027Y0163807D01*
X0347896Y0163804D01*
X0347764Y0163805D01*
X0347633Y0163810D01*
X0347502Y0163819D01*
X0347371Y0163832D01*
X0347240Y0163849D01*
X0347110Y0163870D01*
X0346981Y0163895D01*
X0346853Y0163923D01*
X0346725Y0163956D01*
X0346599Y0163992D01*
X0346473Y0164033D01*
X0346349Y0164077D01*
X0346227Y0164125D01*
X0346106Y0164176D01*
X0345986Y0164231D01*
X0345869Y0164290D01*
X0345753Y0164352D01*
X0345639Y0164418D01*
X0345527Y0164487D01*
X0345417Y0164560D01*
X0345310Y0164636D01*
X0345204Y0164715D01*
X0345102Y0164797D01*
X0345002Y0164882D01*
X0344904Y0164971D01*
X0344809Y0165062D01*
X0344717Y0165156D01*
X0344628Y0165253D01*
X0344542Y0165353D01*
X0344459Y0165455D01*
X0344379Y0165559D01*
X0344303Y0165666D01*
X0344229Y0165775D01*
X0344159Y0165887D01*
X0344092Y0166000D01*
X0344029Y0166115D01*
X0343970Y0166233D01*
X0343914Y0166352D01*
X0343861Y0166472D01*
X0343812Y0166595D01*
X0343767Y0166718D01*
X0343726Y0166843D01*
X0343689Y0166969D01*
X0343655Y0167097D01*
X0343625Y0167225D01*
X0343600Y0167354D01*
X0343578Y0167484D01*
X0343560Y0167614D01*
X0343546Y0167745D01*
X0343536Y0167876D01*
X0343530Y0168007D01*
X0343528Y0168139D01*
X0303567Y0121879D02*
X0303569Y0122011D01*
X0303575Y0122142D01*
X0303585Y0122273D01*
X0303599Y0122404D01*
X0303617Y0122534D01*
X0303639Y0122664D01*
X0303664Y0122793D01*
X0303694Y0122921D01*
X0303728Y0123049D01*
X0303765Y0123175D01*
X0303806Y0123300D01*
X0303851Y0123423D01*
X0303900Y0123546D01*
X0303953Y0123666D01*
X0304009Y0123785D01*
X0304068Y0123903D01*
X0304131Y0124018D01*
X0304198Y0124131D01*
X0304268Y0124243D01*
X0304342Y0124352D01*
X0304418Y0124459D01*
X0304498Y0124563D01*
X0304581Y0124665D01*
X0304667Y0124765D01*
X0304756Y0124862D01*
X0304848Y0124956D01*
X0304943Y0125047D01*
X0305041Y0125136D01*
X0305141Y0125221D01*
X0305243Y0125303D01*
X0305349Y0125382D01*
X0305456Y0125458D01*
X0305566Y0125531D01*
X0305678Y0125600D01*
X0305792Y0125666D01*
X0305908Y0125728D01*
X0306025Y0125787D01*
X0306145Y0125842D01*
X0306266Y0125893D01*
X0306388Y0125941D01*
X0306512Y0125985D01*
X0306638Y0126026D01*
X0306764Y0126062D01*
X0306892Y0126095D01*
X0307020Y0126123D01*
X0307149Y0126148D01*
X0307279Y0126169D01*
X0307410Y0126186D01*
X0307541Y0126199D01*
X0307672Y0126208D01*
X0307803Y0126213D01*
X0307935Y0126214D01*
X0308066Y0126211D01*
X0308198Y0126204D01*
X0308329Y0126193D01*
X0308460Y0126178D01*
X0308590Y0126159D01*
X0308719Y0126136D01*
X0308848Y0126109D01*
X0308976Y0126079D01*
X0309103Y0126044D01*
X0309229Y0126006D01*
X0309354Y0125964D01*
X0309477Y0125918D01*
X0309599Y0125868D01*
X0309719Y0125815D01*
X0309838Y0125758D01*
X0309955Y0125697D01*
X0310069Y0125633D01*
X0310182Y0125566D01*
X0310293Y0125495D01*
X0310402Y0125421D01*
X0310508Y0125343D01*
X0310612Y0125262D01*
X0310714Y0125179D01*
X0310812Y0125092D01*
X0310909Y0125002D01*
X0311002Y0124909D01*
X0311093Y0124814D01*
X0311180Y0124716D01*
X0311265Y0124615D01*
X0311346Y0124511D01*
X0311424Y0124406D01*
X0311500Y0124298D01*
X0311571Y0124187D01*
X0311640Y0124075D01*
X0311705Y0123960D01*
X0311766Y0123844D01*
X0311824Y0123726D01*
X0311878Y0123606D01*
X0311929Y0123485D01*
X0311976Y0123362D01*
X0312019Y0123237D01*
X0312058Y0123112D01*
X0312094Y0122985D01*
X0312125Y0122857D01*
X0312153Y0122729D01*
X0312177Y0122599D01*
X0312197Y0122469D01*
X0312213Y0122339D01*
X0312225Y0122208D01*
X0312233Y0122076D01*
X0312237Y0121945D01*
X0312237Y0121813D01*
X0312233Y0121682D01*
X0312225Y0121550D01*
X0312213Y0121419D01*
X0312197Y0121289D01*
X0312177Y0121159D01*
X0312153Y0121029D01*
X0312125Y0120901D01*
X0312094Y0120773D01*
X0312058Y0120646D01*
X0312019Y0120521D01*
X0311976Y0120396D01*
X0311929Y0120273D01*
X0311878Y0120152D01*
X0311824Y0120032D01*
X0311766Y0119914D01*
X0311705Y0119798D01*
X0311640Y0119683D01*
X0311571Y0119571D01*
X0311500Y0119460D01*
X0311424Y0119352D01*
X0311346Y0119247D01*
X0311265Y0119143D01*
X0311180Y0119042D01*
X0311093Y0118944D01*
X0311002Y0118849D01*
X0310909Y0118756D01*
X0310812Y0118666D01*
X0310714Y0118579D01*
X0310612Y0118496D01*
X0310508Y0118415D01*
X0310402Y0118337D01*
X0310293Y0118263D01*
X0310182Y0118192D01*
X0310070Y0118125D01*
X0309955Y0118061D01*
X0309838Y0118000D01*
X0309719Y0117943D01*
X0309599Y0117890D01*
X0309477Y0117840D01*
X0309354Y0117794D01*
X0309229Y0117752D01*
X0309103Y0117714D01*
X0308976Y0117679D01*
X0308848Y0117649D01*
X0308719Y0117622D01*
X0308590Y0117599D01*
X0308460Y0117580D01*
X0308329Y0117565D01*
X0308198Y0117554D01*
X0308066Y0117547D01*
X0307935Y0117544D01*
X0307803Y0117545D01*
X0307672Y0117550D01*
X0307541Y0117559D01*
X0307410Y0117572D01*
X0307279Y0117589D01*
X0307149Y0117610D01*
X0307020Y0117635D01*
X0306892Y0117663D01*
X0306764Y0117696D01*
X0306638Y0117732D01*
X0306512Y0117773D01*
X0306388Y0117817D01*
X0306266Y0117865D01*
X0306145Y0117916D01*
X0306025Y0117971D01*
X0305908Y0118030D01*
X0305792Y0118092D01*
X0305678Y0118158D01*
X0305566Y0118227D01*
X0305456Y0118300D01*
X0305349Y0118376D01*
X0305243Y0118455D01*
X0305141Y0118537D01*
X0305041Y0118622D01*
X0304943Y0118711D01*
X0304848Y0118802D01*
X0304756Y0118896D01*
X0304667Y0118993D01*
X0304581Y0119093D01*
X0304498Y0119195D01*
X0304418Y0119299D01*
X0304342Y0119406D01*
X0304268Y0119515D01*
X0304198Y0119627D01*
X0304131Y0119740D01*
X0304068Y0119855D01*
X0304009Y0119973D01*
X0303953Y0120092D01*
X0303900Y0120212D01*
X0303851Y0120335D01*
X0303806Y0120458D01*
X0303765Y0120583D01*
X0303728Y0120709D01*
X0303694Y0120837D01*
X0303664Y0120965D01*
X0303639Y0121094D01*
X0303617Y0121224D01*
X0303599Y0121354D01*
X0303585Y0121485D01*
X0303575Y0121616D01*
X0303569Y0121747D01*
X0303567Y0121879D01*
X0245300Y0121879D02*
X0245302Y0122011D01*
X0245308Y0122142D01*
X0245318Y0122273D01*
X0245332Y0122404D01*
X0245350Y0122534D01*
X0245372Y0122664D01*
X0245397Y0122793D01*
X0245427Y0122921D01*
X0245461Y0123049D01*
X0245498Y0123175D01*
X0245539Y0123300D01*
X0245584Y0123423D01*
X0245633Y0123546D01*
X0245686Y0123666D01*
X0245742Y0123785D01*
X0245801Y0123903D01*
X0245864Y0124018D01*
X0245931Y0124131D01*
X0246001Y0124243D01*
X0246075Y0124352D01*
X0246151Y0124459D01*
X0246231Y0124563D01*
X0246314Y0124665D01*
X0246400Y0124765D01*
X0246489Y0124862D01*
X0246581Y0124956D01*
X0246676Y0125047D01*
X0246774Y0125136D01*
X0246874Y0125221D01*
X0246976Y0125303D01*
X0247082Y0125382D01*
X0247189Y0125458D01*
X0247299Y0125531D01*
X0247411Y0125600D01*
X0247525Y0125666D01*
X0247641Y0125728D01*
X0247758Y0125787D01*
X0247878Y0125842D01*
X0247999Y0125893D01*
X0248121Y0125941D01*
X0248245Y0125985D01*
X0248371Y0126026D01*
X0248497Y0126062D01*
X0248625Y0126095D01*
X0248753Y0126123D01*
X0248882Y0126148D01*
X0249012Y0126169D01*
X0249143Y0126186D01*
X0249274Y0126199D01*
X0249405Y0126208D01*
X0249536Y0126213D01*
X0249668Y0126214D01*
X0249799Y0126211D01*
X0249931Y0126204D01*
X0250062Y0126193D01*
X0250193Y0126178D01*
X0250323Y0126159D01*
X0250452Y0126136D01*
X0250581Y0126109D01*
X0250709Y0126079D01*
X0250836Y0126044D01*
X0250962Y0126006D01*
X0251087Y0125964D01*
X0251210Y0125918D01*
X0251332Y0125868D01*
X0251452Y0125815D01*
X0251571Y0125758D01*
X0251688Y0125697D01*
X0251802Y0125633D01*
X0251915Y0125566D01*
X0252026Y0125495D01*
X0252135Y0125421D01*
X0252241Y0125343D01*
X0252345Y0125262D01*
X0252447Y0125179D01*
X0252545Y0125092D01*
X0252642Y0125002D01*
X0252735Y0124909D01*
X0252826Y0124814D01*
X0252913Y0124716D01*
X0252998Y0124615D01*
X0253079Y0124511D01*
X0253157Y0124406D01*
X0253233Y0124298D01*
X0253304Y0124187D01*
X0253373Y0124075D01*
X0253438Y0123960D01*
X0253499Y0123844D01*
X0253557Y0123726D01*
X0253611Y0123606D01*
X0253662Y0123485D01*
X0253709Y0123362D01*
X0253752Y0123237D01*
X0253791Y0123112D01*
X0253827Y0122985D01*
X0253858Y0122857D01*
X0253886Y0122729D01*
X0253910Y0122599D01*
X0253930Y0122469D01*
X0253946Y0122339D01*
X0253958Y0122208D01*
X0253966Y0122076D01*
X0253970Y0121945D01*
X0253970Y0121813D01*
X0253966Y0121682D01*
X0253958Y0121550D01*
X0253946Y0121419D01*
X0253930Y0121289D01*
X0253910Y0121159D01*
X0253886Y0121029D01*
X0253858Y0120901D01*
X0253827Y0120773D01*
X0253791Y0120646D01*
X0253752Y0120521D01*
X0253709Y0120396D01*
X0253662Y0120273D01*
X0253611Y0120152D01*
X0253557Y0120032D01*
X0253499Y0119914D01*
X0253438Y0119798D01*
X0253373Y0119683D01*
X0253304Y0119571D01*
X0253233Y0119460D01*
X0253157Y0119352D01*
X0253079Y0119247D01*
X0252998Y0119143D01*
X0252913Y0119042D01*
X0252826Y0118944D01*
X0252735Y0118849D01*
X0252642Y0118756D01*
X0252545Y0118666D01*
X0252447Y0118579D01*
X0252345Y0118496D01*
X0252241Y0118415D01*
X0252135Y0118337D01*
X0252026Y0118263D01*
X0251915Y0118192D01*
X0251803Y0118125D01*
X0251688Y0118061D01*
X0251571Y0118000D01*
X0251452Y0117943D01*
X0251332Y0117890D01*
X0251210Y0117840D01*
X0251087Y0117794D01*
X0250962Y0117752D01*
X0250836Y0117714D01*
X0250709Y0117679D01*
X0250581Y0117649D01*
X0250452Y0117622D01*
X0250323Y0117599D01*
X0250193Y0117580D01*
X0250062Y0117565D01*
X0249931Y0117554D01*
X0249799Y0117547D01*
X0249668Y0117544D01*
X0249536Y0117545D01*
X0249405Y0117550D01*
X0249274Y0117559D01*
X0249143Y0117572D01*
X0249012Y0117589D01*
X0248882Y0117610D01*
X0248753Y0117635D01*
X0248625Y0117663D01*
X0248497Y0117696D01*
X0248371Y0117732D01*
X0248245Y0117773D01*
X0248121Y0117817D01*
X0247999Y0117865D01*
X0247878Y0117916D01*
X0247758Y0117971D01*
X0247641Y0118030D01*
X0247525Y0118092D01*
X0247411Y0118158D01*
X0247299Y0118227D01*
X0247189Y0118300D01*
X0247082Y0118376D01*
X0246976Y0118455D01*
X0246874Y0118537D01*
X0246774Y0118622D01*
X0246676Y0118711D01*
X0246581Y0118802D01*
X0246489Y0118896D01*
X0246400Y0118993D01*
X0246314Y0119093D01*
X0246231Y0119195D01*
X0246151Y0119299D01*
X0246075Y0119406D01*
X0246001Y0119515D01*
X0245931Y0119627D01*
X0245864Y0119740D01*
X0245801Y0119855D01*
X0245742Y0119973D01*
X0245686Y0120092D01*
X0245633Y0120212D01*
X0245584Y0120335D01*
X0245539Y0120458D01*
X0245498Y0120583D01*
X0245461Y0120709D01*
X0245427Y0120837D01*
X0245397Y0120965D01*
X0245372Y0121094D01*
X0245350Y0121224D01*
X0245332Y0121354D01*
X0245318Y0121485D01*
X0245308Y0121616D01*
X0245302Y0121747D01*
X0245300Y0121879D01*
D14*
X0241367Y0130737D02*
X0241367Y0113020D01*
X0277981Y0113020D01*
X0277981Y0130737D01*
X0241367Y0130737D01*
X0238611Y0139792D02*
X0238611Y0176406D01*
X0220894Y0176406D01*
X0220894Y0139792D01*
X0238611Y0139792D01*
X0260265Y0139792D02*
X0260265Y0176406D01*
X0277981Y0176406D01*
X0277981Y0139792D01*
X0260265Y0139792D01*
X0299635Y0139792D02*
X0299635Y0176406D01*
X0317351Y0176406D01*
X0317351Y0139792D01*
X0299635Y0139792D01*
X0299635Y0130737D02*
X0336249Y0130737D01*
X0336249Y0113020D01*
X0299635Y0113020D01*
X0299635Y0130737D01*
X0339005Y0139792D02*
X0339005Y0176406D01*
X0356721Y0176406D01*
X0356721Y0139792D01*
X0339005Y0139792D01*
M02*
