G75*
%MOIN*%
%OFA0B0*%
%FSLAX25Y25*%
%IPPOS*%
%LPD*%
%AMOC8*
5,1,8,0,0,1.08239X$1,22.5*
%
%ADD10C,0.00000*%
D10*
X0019517Y0010068D02*
X0019517Y0384083D01*
X0393532Y0384083D01*
X0393532Y0010068D01*
X0019517Y0010068D01*
X0028966Y0025816D02*
X0028968Y0025974D01*
X0028974Y0026132D01*
X0028984Y0026290D01*
X0028998Y0026448D01*
X0029016Y0026605D01*
X0029037Y0026762D01*
X0029063Y0026918D01*
X0029093Y0027074D01*
X0029126Y0027229D01*
X0029164Y0027382D01*
X0029205Y0027535D01*
X0029250Y0027687D01*
X0029299Y0027838D01*
X0029352Y0027987D01*
X0029408Y0028135D01*
X0029468Y0028281D01*
X0029532Y0028426D01*
X0029600Y0028569D01*
X0029671Y0028711D01*
X0029745Y0028851D01*
X0029823Y0028988D01*
X0029905Y0029124D01*
X0029989Y0029258D01*
X0030078Y0029389D01*
X0030169Y0029518D01*
X0030264Y0029645D01*
X0030361Y0029770D01*
X0030462Y0029892D01*
X0030566Y0030011D01*
X0030673Y0030128D01*
X0030783Y0030242D01*
X0030896Y0030353D01*
X0031011Y0030462D01*
X0031129Y0030567D01*
X0031250Y0030669D01*
X0031373Y0030769D01*
X0031499Y0030865D01*
X0031627Y0030958D01*
X0031757Y0031048D01*
X0031890Y0031134D01*
X0032025Y0031218D01*
X0032161Y0031297D01*
X0032300Y0031374D01*
X0032441Y0031446D01*
X0032583Y0031516D01*
X0032727Y0031581D01*
X0032873Y0031643D01*
X0033020Y0031701D01*
X0033169Y0031756D01*
X0033319Y0031807D01*
X0033470Y0031854D01*
X0033622Y0031897D01*
X0033775Y0031936D01*
X0033930Y0031972D01*
X0034085Y0032003D01*
X0034241Y0032031D01*
X0034397Y0032055D01*
X0034554Y0032075D01*
X0034712Y0032091D01*
X0034869Y0032103D01*
X0035028Y0032111D01*
X0035186Y0032115D01*
X0035344Y0032115D01*
X0035502Y0032111D01*
X0035661Y0032103D01*
X0035818Y0032091D01*
X0035976Y0032075D01*
X0036133Y0032055D01*
X0036289Y0032031D01*
X0036445Y0032003D01*
X0036600Y0031972D01*
X0036755Y0031936D01*
X0036908Y0031897D01*
X0037060Y0031854D01*
X0037211Y0031807D01*
X0037361Y0031756D01*
X0037510Y0031701D01*
X0037657Y0031643D01*
X0037803Y0031581D01*
X0037947Y0031516D01*
X0038089Y0031446D01*
X0038230Y0031374D01*
X0038369Y0031297D01*
X0038505Y0031218D01*
X0038640Y0031134D01*
X0038773Y0031048D01*
X0038903Y0030958D01*
X0039031Y0030865D01*
X0039157Y0030769D01*
X0039280Y0030669D01*
X0039401Y0030567D01*
X0039519Y0030462D01*
X0039634Y0030353D01*
X0039747Y0030242D01*
X0039857Y0030128D01*
X0039964Y0030011D01*
X0040068Y0029892D01*
X0040169Y0029770D01*
X0040266Y0029645D01*
X0040361Y0029518D01*
X0040452Y0029389D01*
X0040541Y0029258D01*
X0040625Y0029124D01*
X0040707Y0028988D01*
X0040785Y0028851D01*
X0040859Y0028711D01*
X0040930Y0028569D01*
X0040998Y0028426D01*
X0041062Y0028281D01*
X0041122Y0028135D01*
X0041178Y0027987D01*
X0041231Y0027838D01*
X0041280Y0027687D01*
X0041325Y0027535D01*
X0041366Y0027382D01*
X0041404Y0027229D01*
X0041437Y0027074D01*
X0041467Y0026918D01*
X0041493Y0026762D01*
X0041514Y0026605D01*
X0041532Y0026448D01*
X0041546Y0026290D01*
X0041556Y0026132D01*
X0041562Y0025974D01*
X0041564Y0025816D01*
X0041562Y0025658D01*
X0041556Y0025500D01*
X0041546Y0025342D01*
X0041532Y0025184D01*
X0041514Y0025027D01*
X0041493Y0024870D01*
X0041467Y0024714D01*
X0041437Y0024558D01*
X0041404Y0024403D01*
X0041366Y0024250D01*
X0041325Y0024097D01*
X0041280Y0023945D01*
X0041231Y0023794D01*
X0041178Y0023645D01*
X0041122Y0023497D01*
X0041062Y0023351D01*
X0040998Y0023206D01*
X0040930Y0023063D01*
X0040859Y0022921D01*
X0040785Y0022781D01*
X0040707Y0022644D01*
X0040625Y0022508D01*
X0040541Y0022374D01*
X0040452Y0022243D01*
X0040361Y0022114D01*
X0040266Y0021987D01*
X0040169Y0021862D01*
X0040068Y0021740D01*
X0039964Y0021621D01*
X0039857Y0021504D01*
X0039747Y0021390D01*
X0039634Y0021279D01*
X0039519Y0021170D01*
X0039401Y0021065D01*
X0039280Y0020963D01*
X0039157Y0020863D01*
X0039031Y0020767D01*
X0038903Y0020674D01*
X0038773Y0020584D01*
X0038640Y0020498D01*
X0038505Y0020414D01*
X0038369Y0020335D01*
X0038230Y0020258D01*
X0038089Y0020186D01*
X0037947Y0020116D01*
X0037803Y0020051D01*
X0037657Y0019989D01*
X0037510Y0019931D01*
X0037361Y0019876D01*
X0037211Y0019825D01*
X0037060Y0019778D01*
X0036908Y0019735D01*
X0036755Y0019696D01*
X0036600Y0019660D01*
X0036445Y0019629D01*
X0036289Y0019601D01*
X0036133Y0019577D01*
X0035976Y0019557D01*
X0035818Y0019541D01*
X0035661Y0019529D01*
X0035502Y0019521D01*
X0035344Y0019517D01*
X0035186Y0019517D01*
X0035028Y0019521D01*
X0034869Y0019529D01*
X0034712Y0019541D01*
X0034554Y0019557D01*
X0034397Y0019577D01*
X0034241Y0019601D01*
X0034085Y0019629D01*
X0033930Y0019660D01*
X0033775Y0019696D01*
X0033622Y0019735D01*
X0033470Y0019778D01*
X0033319Y0019825D01*
X0033169Y0019876D01*
X0033020Y0019931D01*
X0032873Y0019989D01*
X0032727Y0020051D01*
X0032583Y0020116D01*
X0032441Y0020186D01*
X0032300Y0020258D01*
X0032161Y0020335D01*
X0032025Y0020414D01*
X0031890Y0020498D01*
X0031757Y0020584D01*
X0031627Y0020674D01*
X0031499Y0020767D01*
X0031373Y0020863D01*
X0031250Y0020963D01*
X0031129Y0021065D01*
X0031011Y0021170D01*
X0030896Y0021279D01*
X0030783Y0021390D01*
X0030673Y0021504D01*
X0030566Y0021621D01*
X0030462Y0021740D01*
X0030361Y0021862D01*
X0030264Y0021987D01*
X0030169Y0022114D01*
X0030078Y0022243D01*
X0029989Y0022374D01*
X0029905Y0022508D01*
X0029823Y0022644D01*
X0029745Y0022781D01*
X0029671Y0022921D01*
X0029600Y0023063D01*
X0029532Y0023206D01*
X0029468Y0023351D01*
X0029408Y0023497D01*
X0029352Y0023645D01*
X0029299Y0023794D01*
X0029250Y0023945D01*
X0029205Y0024097D01*
X0029164Y0024250D01*
X0029126Y0024403D01*
X0029093Y0024558D01*
X0029063Y0024714D01*
X0029037Y0024870D01*
X0029016Y0025027D01*
X0028998Y0025184D01*
X0028984Y0025342D01*
X0028974Y0025500D01*
X0028968Y0025658D01*
X0028966Y0025816D01*
X0060462Y0039595D02*
X0060464Y0039753D01*
X0060470Y0039911D01*
X0060480Y0040069D01*
X0060494Y0040227D01*
X0060512Y0040384D01*
X0060533Y0040541D01*
X0060559Y0040697D01*
X0060589Y0040853D01*
X0060622Y0041008D01*
X0060660Y0041161D01*
X0060701Y0041314D01*
X0060746Y0041466D01*
X0060795Y0041617D01*
X0060848Y0041766D01*
X0060904Y0041914D01*
X0060964Y0042060D01*
X0061028Y0042205D01*
X0061096Y0042348D01*
X0061167Y0042490D01*
X0061241Y0042630D01*
X0061319Y0042767D01*
X0061401Y0042903D01*
X0061485Y0043037D01*
X0061574Y0043168D01*
X0061665Y0043297D01*
X0061760Y0043424D01*
X0061857Y0043549D01*
X0061958Y0043671D01*
X0062062Y0043790D01*
X0062169Y0043907D01*
X0062279Y0044021D01*
X0062392Y0044132D01*
X0062507Y0044241D01*
X0062625Y0044346D01*
X0062746Y0044448D01*
X0062869Y0044548D01*
X0062995Y0044644D01*
X0063123Y0044737D01*
X0063253Y0044827D01*
X0063386Y0044913D01*
X0063521Y0044997D01*
X0063657Y0045076D01*
X0063796Y0045153D01*
X0063937Y0045225D01*
X0064079Y0045295D01*
X0064223Y0045360D01*
X0064369Y0045422D01*
X0064516Y0045480D01*
X0064665Y0045535D01*
X0064815Y0045586D01*
X0064966Y0045633D01*
X0065118Y0045676D01*
X0065271Y0045715D01*
X0065426Y0045751D01*
X0065581Y0045782D01*
X0065737Y0045810D01*
X0065893Y0045834D01*
X0066050Y0045854D01*
X0066208Y0045870D01*
X0066365Y0045882D01*
X0066524Y0045890D01*
X0066682Y0045894D01*
X0066840Y0045894D01*
X0066998Y0045890D01*
X0067157Y0045882D01*
X0067314Y0045870D01*
X0067472Y0045854D01*
X0067629Y0045834D01*
X0067785Y0045810D01*
X0067941Y0045782D01*
X0068096Y0045751D01*
X0068251Y0045715D01*
X0068404Y0045676D01*
X0068556Y0045633D01*
X0068707Y0045586D01*
X0068857Y0045535D01*
X0069006Y0045480D01*
X0069153Y0045422D01*
X0069299Y0045360D01*
X0069443Y0045295D01*
X0069585Y0045225D01*
X0069726Y0045153D01*
X0069865Y0045076D01*
X0070001Y0044997D01*
X0070136Y0044913D01*
X0070269Y0044827D01*
X0070399Y0044737D01*
X0070527Y0044644D01*
X0070653Y0044548D01*
X0070776Y0044448D01*
X0070897Y0044346D01*
X0071015Y0044241D01*
X0071130Y0044132D01*
X0071243Y0044021D01*
X0071353Y0043907D01*
X0071460Y0043790D01*
X0071564Y0043671D01*
X0071665Y0043549D01*
X0071762Y0043424D01*
X0071857Y0043297D01*
X0071948Y0043168D01*
X0072037Y0043037D01*
X0072121Y0042903D01*
X0072203Y0042767D01*
X0072281Y0042630D01*
X0072355Y0042490D01*
X0072426Y0042348D01*
X0072494Y0042205D01*
X0072558Y0042060D01*
X0072618Y0041914D01*
X0072674Y0041766D01*
X0072727Y0041617D01*
X0072776Y0041466D01*
X0072821Y0041314D01*
X0072862Y0041161D01*
X0072900Y0041008D01*
X0072933Y0040853D01*
X0072963Y0040697D01*
X0072989Y0040541D01*
X0073010Y0040384D01*
X0073028Y0040227D01*
X0073042Y0040069D01*
X0073052Y0039911D01*
X0073058Y0039753D01*
X0073060Y0039595D01*
X0073058Y0039437D01*
X0073052Y0039279D01*
X0073042Y0039121D01*
X0073028Y0038963D01*
X0073010Y0038806D01*
X0072989Y0038649D01*
X0072963Y0038493D01*
X0072933Y0038337D01*
X0072900Y0038182D01*
X0072862Y0038029D01*
X0072821Y0037876D01*
X0072776Y0037724D01*
X0072727Y0037573D01*
X0072674Y0037424D01*
X0072618Y0037276D01*
X0072558Y0037130D01*
X0072494Y0036985D01*
X0072426Y0036842D01*
X0072355Y0036700D01*
X0072281Y0036560D01*
X0072203Y0036423D01*
X0072121Y0036287D01*
X0072037Y0036153D01*
X0071948Y0036022D01*
X0071857Y0035893D01*
X0071762Y0035766D01*
X0071665Y0035641D01*
X0071564Y0035519D01*
X0071460Y0035400D01*
X0071353Y0035283D01*
X0071243Y0035169D01*
X0071130Y0035058D01*
X0071015Y0034949D01*
X0070897Y0034844D01*
X0070776Y0034742D01*
X0070653Y0034642D01*
X0070527Y0034546D01*
X0070399Y0034453D01*
X0070269Y0034363D01*
X0070136Y0034277D01*
X0070001Y0034193D01*
X0069865Y0034114D01*
X0069726Y0034037D01*
X0069585Y0033965D01*
X0069443Y0033895D01*
X0069299Y0033830D01*
X0069153Y0033768D01*
X0069006Y0033710D01*
X0068857Y0033655D01*
X0068707Y0033604D01*
X0068556Y0033557D01*
X0068404Y0033514D01*
X0068251Y0033475D01*
X0068096Y0033439D01*
X0067941Y0033408D01*
X0067785Y0033380D01*
X0067629Y0033356D01*
X0067472Y0033336D01*
X0067314Y0033320D01*
X0067157Y0033308D01*
X0066998Y0033300D01*
X0066840Y0033296D01*
X0066682Y0033296D01*
X0066524Y0033300D01*
X0066365Y0033308D01*
X0066208Y0033320D01*
X0066050Y0033336D01*
X0065893Y0033356D01*
X0065737Y0033380D01*
X0065581Y0033408D01*
X0065426Y0033439D01*
X0065271Y0033475D01*
X0065118Y0033514D01*
X0064966Y0033557D01*
X0064815Y0033604D01*
X0064665Y0033655D01*
X0064516Y0033710D01*
X0064369Y0033768D01*
X0064223Y0033830D01*
X0064079Y0033895D01*
X0063937Y0033965D01*
X0063796Y0034037D01*
X0063657Y0034114D01*
X0063521Y0034193D01*
X0063386Y0034277D01*
X0063253Y0034363D01*
X0063123Y0034453D01*
X0062995Y0034546D01*
X0062869Y0034642D01*
X0062746Y0034742D01*
X0062625Y0034844D01*
X0062507Y0034949D01*
X0062392Y0035058D01*
X0062279Y0035169D01*
X0062169Y0035283D01*
X0062062Y0035400D01*
X0061958Y0035519D01*
X0061857Y0035641D01*
X0061760Y0035766D01*
X0061665Y0035893D01*
X0061574Y0036022D01*
X0061485Y0036153D01*
X0061401Y0036287D01*
X0061319Y0036423D01*
X0061241Y0036560D01*
X0061167Y0036700D01*
X0061096Y0036842D01*
X0061028Y0036985D01*
X0060964Y0037130D01*
X0060904Y0037276D01*
X0060848Y0037424D01*
X0060795Y0037573D01*
X0060746Y0037724D01*
X0060701Y0037876D01*
X0060660Y0038029D01*
X0060622Y0038182D01*
X0060589Y0038337D01*
X0060559Y0038493D01*
X0060533Y0038649D01*
X0060512Y0038806D01*
X0060494Y0038963D01*
X0060480Y0039121D01*
X0060470Y0039279D01*
X0060464Y0039437D01*
X0060462Y0039595D01*
X0225816Y0039595D02*
X0225818Y0039753D01*
X0225824Y0039911D01*
X0225834Y0040069D01*
X0225848Y0040227D01*
X0225866Y0040384D01*
X0225887Y0040541D01*
X0225913Y0040697D01*
X0225943Y0040853D01*
X0225976Y0041008D01*
X0226014Y0041161D01*
X0226055Y0041314D01*
X0226100Y0041466D01*
X0226149Y0041617D01*
X0226202Y0041766D01*
X0226258Y0041914D01*
X0226318Y0042060D01*
X0226382Y0042205D01*
X0226450Y0042348D01*
X0226521Y0042490D01*
X0226595Y0042630D01*
X0226673Y0042767D01*
X0226755Y0042903D01*
X0226839Y0043037D01*
X0226928Y0043168D01*
X0227019Y0043297D01*
X0227114Y0043424D01*
X0227211Y0043549D01*
X0227312Y0043671D01*
X0227416Y0043790D01*
X0227523Y0043907D01*
X0227633Y0044021D01*
X0227746Y0044132D01*
X0227861Y0044241D01*
X0227979Y0044346D01*
X0228100Y0044448D01*
X0228223Y0044548D01*
X0228349Y0044644D01*
X0228477Y0044737D01*
X0228607Y0044827D01*
X0228740Y0044913D01*
X0228875Y0044997D01*
X0229011Y0045076D01*
X0229150Y0045153D01*
X0229291Y0045225D01*
X0229433Y0045295D01*
X0229577Y0045360D01*
X0229723Y0045422D01*
X0229870Y0045480D01*
X0230019Y0045535D01*
X0230169Y0045586D01*
X0230320Y0045633D01*
X0230472Y0045676D01*
X0230625Y0045715D01*
X0230780Y0045751D01*
X0230935Y0045782D01*
X0231091Y0045810D01*
X0231247Y0045834D01*
X0231404Y0045854D01*
X0231562Y0045870D01*
X0231719Y0045882D01*
X0231878Y0045890D01*
X0232036Y0045894D01*
X0232194Y0045894D01*
X0232352Y0045890D01*
X0232511Y0045882D01*
X0232668Y0045870D01*
X0232826Y0045854D01*
X0232983Y0045834D01*
X0233139Y0045810D01*
X0233295Y0045782D01*
X0233450Y0045751D01*
X0233605Y0045715D01*
X0233758Y0045676D01*
X0233910Y0045633D01*
X0234061Y0045586D01*
X0234211Y0045535D01*
X0234360Y0045480D01*
X0234507Y0045422D01*
X0234653Y0045360D01*
X0234797Y0045295D01*
X0234939Y0045225D01*
X0235080Y0045153D01*
X0235219Y0045076D01*
X0235355Y0044997D01*
X0235490Y0044913D01*
X0235623Y0044827D01*
X0235753Y0044737D01*
X0235881Y0044644D01*
X0236007Y0044548D01*
X0236130Y0044448D01*
X0236251Y0044346D01*
X0236369Y0044241D01*
X0236484Y0044132D01*
X0236597Y0044021D01*
X0236707Y0043907D01*
X0236814Y0043790D01*
X0236918Y0043671D01*
X0237019Y0043549D01*
X0237116Y0043424D01*
X0237211Y0043297D01*
X0237302Y0043168D01*
X0237391Y0043037D01*
X0237475Y0042903D01*
X0237557Y0042767D01*
X0237635Y0042630D01*
X0237709Y0042490D01*
X0237780Y0042348D01*
X0237848Y0042205D01*
X0237912Y0042060D01*
X0237972Y0041914D01*
X0238028Y0041766D01*
X0238081Y0041617D01*
X0238130Y0041466D01*
X0238175Y0041314D01*
X0238216Y0041161D01*
X0238254Y0041008D01*
X0238287Y0040853D01*
X0238317Y0040697D01*
X0238343Y0040541D01*
X0238364Y0040384D01*
X0238382Y0040227D01*
X0238396Y0040069D01*
X0238406Y0039911D01*
X0238412Y0039753D01*
X0238414Y0039595D01*
X0238412Y0039437D01*
X0238406Y0039279D01*
X0238396Y0039121D01*
X0238382Y0038963D01*
X0238364Y0038806D01*
X0238343Y0038649D01*
X0238317Y0038493D01*
X0238287Y0038337D01*
X0238254Y0038182D01*
X0238216Y0038029D01*
X0238175Y0037876D01*
X0238130Y0037724D01*
X0238081Y0037573D01*
X0238028Y0037424D01*
X0237972Y0037276D01*
X0237912Y0037130D01*
X0237848Y0036985D01*
X0237780Y0036842D01*
X0237709Y0036700D01*
X0237635Y0036560D01*
X0237557Y0036423D01*
X0237475Y0036287D01*
X0237391Y0036153D01*
X0237302Y0036022D01*
X0237211Y0035893D01*
X0237116Y0035766D01*
X0237019Y0035641D01*
X0236918Y0035519D01*
X0236814Y0035400D01*
X0236707Y0035283D01*
X0236597Y0035169D01*
X0236484Y0035058D01*
X0236369Y0034949D01*
X0236251Y0034844D01*
X0236130Y0034742D01*
X0236007Y0034642D01*
X0235881Y0034546D01*
X0235753Y0034453D01*
X0235623Y0034363D01*
X0235490Y0034277D01*
X0235355Y0034193D01*
X0235219Y0034114D01*
X0235080Y0034037D01*
X0234939Y0033965D01*
X0234797Y0033895D01*
X0234653Y0033830D01*
X0234507Y0033768D01*
X0234360Y0033710D01*
X0234211Y0033655D01*
X0234061Y0033604D01*
X0233910Y0033557D01*
X0233758Y0033514D01*
X0233605Y0033475D01*
X0233450Y0033439D01*
X0233295Y0033408D01*
X0233139Y0033380D01*
X0232983Y0033356D01*
X0232826Y0033336D01*
X0232668Y0033320D01*
X0232511Y0033308D01*
X0232352Y0033300D01*
X0232194Y0033296D01*
X0232036Y0033296D01*
X0231878Y0033300D01*
X0231719Y0033308D01*
X0231562Y0033320D01*
X0231404Y0033336D01*
X0231247Y0033356D01*
X0231091Y0033380D01*
X0230935Y0033408D01*
X0230780Y0033439D01*
X0230625Y0033475D01*
X0230472Y0033514D01*
X0230320Y0033557D01*
X0230169Y0033604D01*
X0230019Y0033655D01*
X0229870Y0033710D01*
X0229723Y0033768D01*
X0229577Y0033830D01*
X0229433Y0033895D01*
X0229291Y0033965D01*
X0229150Y0034037D01*
X0229011Y0034114D01*
X0228875Y0034193D01*
X0228740Y0034277D01*
X0228607Y0034363D01*
X0228477Y0034453D01*
X0228349Y0034546D01*
X0228223Y0034642D01*
X0228100Y0034742D01*
X0227979Y0034844D01*
X0227861Y0034949D01*
X0227746Y0035058D01*
X0227633Y0035169D01*
X0227523Y0035283D01*
X0227416Y0035400D01*
X0227312Y0035519D01*
X0227211Y0035641D01*
X0227114Y0035766D01*
X0227019Y0035893D01*
X0226928Y0036022D01*
X0226839Y0036153D01*
X0226755Y0036287D01*
X0226673Y0036423D01*
X0226595Y0036560D01*
X0226521Y0036700D01*
X0226450Y0036842D01*
X0226382Y0036985D01*
X0226318Y0037130D01*
X0226258Y0037276D01*
X0226202Y0037424D01*
X0226149Y0037573D01*
X0226100Y0037724D01*
X0226055Y0037876D01*
X0226014Y0038029D01*
X0225976Y0038182D01*
X0225943Y0038337D01*
X0225913Y0038493D01*
X0225887Y0038649D01*
X0225866Y0038806D01*
X0225848Y0038963D01*
X0225834Y0039121D01*
X0225824Y0039279D01*
X0225818Y0039437D01*
X0225816Y0039595D01*
X0304635Y0049595D02*
X0304637Y0049696D01*
X0304643Y0049797D01*
X0304653Y0049898D01*
X0304667Y0049998D01*
X0304685Y0050097D01*
X0304707Y0050196D01*
X0304732Y0050294D01*
X0304762Y0050391D01*
X0304795Y0050486D01*
X0304832Y0050580D01*
X0304873Y0050673D01*
X0304917Y0050764D01*
X0304965Y0050853D01*
X0305017Y0050940D01*
X0305072Y0051025D01*
X0305130Y0051107D01*
X0305191Y0051188D01*
X0305256Y0051266D01*
X0305323Y0051341D01*
X0305393Y0051413D01*
X0305467Y0051483D01*
X0305543Y0051550D01*
X0305621Y0051614D01*
X0305702Y0051674D01*
X0305785Y0051731D01*
X0305871Y0051785D01*
X0305959Y0051836D01*
X0306048Y0051883D01*
X0306139Y0051927D01*
X0306232Y0051966D01*
X0306327Y0052003D01*
X0306422Y0052035D01*
X0306519Y0052064D01*
X0306618Y0052088D01*
X0306716Y0052109D01*
X0306816Y0052126D01*
X0306916Y0052139D01*
X0307017Y0052148D01*
X0307118Y0052153D01*
X0307219Y0052154D01*
X0307320Y0052151D01*
X0307421Y0052144D01*
X0307522Y0052133D01*
X0307622Y0052118D01*
X0307721Y0052099D01*
X0307820Y0052076D01*
X0307917Y0052050D01*
X0308014Y0052019D01*
X0308109Y0051985D01*
X0308202Y0051947D01*
X0308295Y0051905D01*
X0308385Y0051860D01*
X0308474Y0051811D01*
X0308560Y0051759D01*
X0308644Y0051703D01*
X0308727Y0051644D01*
X0308806Y0051582D01*
X0308884Y0051517D01*
X0308958Y0051449D01*
X0309030Y0051377D01*
X0309099Y0051304D01*
X0309165Y0051227D01*
X0309228Y0051148D01*
X0309288Y0051066D01*
X0309344Y0050982D01*
X0309397Y0050896D01*
X0309447Y0050808D01*
X0309493Y0050718D01*
X0309536Y0050627D01*
X0309575Y0050533D01*
X0309610Y0050438D01*
X0309641Y0050342D01*
X0309669Y0050245D01*
X0309693Y0050147D01*
X0309713Y0050048D01*
X0309729Y0049948D01*
X0309741Y0049847D01*
X0309749Y0049747D01*
X0309753Y0049646D01*
X0309753Y0049544D01*
X0309749Y0049443D01*
X0309741Y0049343D01*
X0309729Y0049242D01*
X0309713Y0049142D01*
X0309693Y0049043D01*
X0309669Y0048945D01*
X0309641Y0048848D01*
X0309610Y0048752D01*
X0309575Y0048657D01*
X0309536Y0048563D01*
X0309493Y0048472D01*
X0309447Y0048382D01*
X0309397Y0048294D01*
X0309344Y0048208D01*
X0309288Y0048124D01*
X0309228Y0048042D01*
X0309165Y0047963D01*
X0309099Y0047886D01*
X0309030Y0047813D01*
X0308958Y0047741D01*
X0308884Y0047673D01*
X0308806Y0047608D01*
X0308727Y0047546D01*
X0308644Y0047487D01*
X0308560Y0047431D01*
X0308473Y0047379D01*
X0308385Y0047330D01*
X0308295Y0047285D01*
X0308202Y0047243D01*
X0308109Y0047205D01*
X0308014Y0047171D01*
X0307917Y0047140D01*
X0307820Y0047114D01*
X0307721Y0047091D01*
X0307622Y0047072D01*
X0307522Y0047057D01*
X0307421Y0047046D01*
X0307320Y0047039D01*
X0307219Y0047036D01*
X0307118Y0047037D01*
X0307017Y0047042D01*
X0306916Y0047051D01*
X0306816Y0047064D01*
X0306716Y0047081D01*
X0306618Y0047102D01*
X0306519Y0047126D01*
X0306422Y0047155D01*
X0306327Y0047187D01*
X0306232Y0047224D01*
X0306139Y0047263D01*
X0306048Y0047307D01*
X0305959Y0047354D01*
X0305871Y0047405D01*
X0305785Y0047459D01*
X0305702Y0047516D01*
X0305621Y0047576D01*
X0305543Y0047640D01*
X0305467Y0047707D01*
X0305393Y0047777D01*
X0305323Y0047849D01*
X0305256Y0047924D01*
X0305191Y0048002D01*
X0305130Y0048083D01*
X0305072Y0048165D01*
X0305017Y0048250D01*
X0304965Y0048337D01*
X0304917Y0048426D01*
X0304873Y0048517D01*
X0304832Y0048610D01*
X0304795Y0048704D01*
X0304762Y0048799D01*
X0304732Y0048896D01*
X0304707Y0048994D01*
X0304685Y0049093D01*
X0304667Y0049192D01*
X0304653Y0049292D01*
X0304643Y0049393D01*
X0304637Y0049494D01*
X0304635Y0049595D01*
X0371485Y0025816D02*
X0371487Y0025974D01*
X0371493Y0026132D01*
X0371503Y0026290D01*
X0371517Y0026448D01*
X0371535Y0026605D01*
X0371556Y0026762D01*
X0371582Y0026918D01*
X0371612Y0027074D01*
X0371645Y0027229D01*
X0371683Y0027382D01*
X0371724Y0027535D01*
X0371769Y0027687D01*
X0371818Y0027838D01*
X0371871Y0027987D01*
X0371927Y0028135D01*
X0371987Y0028281D01*
X0372051Y0028426D01*
X0372119Y0028569D01*
X0372190Y0028711D01*
X0372264Y0028851D01*
X0372342Y0028988D01*
X0372424Y0029124D01*
X0372508Y0029258D01*
X0372597Y0029389D01*
X0372688Y0029518D01*
X0372783Y0029645D01*
X0372880Y0029770D01*
X0372981Y0029892D01*
X0373085Y0030011D01*
X0373192Y0030128D01*
X0373302Y0030242D01*
X0373415Y0030353D01*
X0373530Y0030462D01*
X0373648Y0030567D01*
X0373769Y0030669D01*
X0373892Y0030769D01*
X0374018Y0030865D01*
X0374146Y0030958D01*
X0374276Y0031048D01*
X0374409Y0031134D01*
X0374544Y0031218D01*
X0374680Y0031297D01*
X0374819Y0031374D01*
X0374960Y0031446D01*
X0375102Y0031516D01*
X0375246Y0031581D01*
X0375392Y0031643D01*
X0375539Y0031701D01*
X0375688Y0031756D01*
X0375838Y0031807D01*
X0375989Y0031854D01*
X0376141Y0031897D01*
X0376294Y0031936D01*
X0376449Y0031972D01*
X0376604Y0032003D01*
X0376760Y0032031D01*
X0376916Y0032055D01*
X0377073Y0032075D01*
X0377231Y0032091D01*
X0377388Y0032103D01*
X0377547Y0032111D01*
X0377705Y0032115D01*
X0377863Y0032115D01*
X0378021Y0032111D01*
X0378180Y0032103D01*
X0378337Y0032091D01*
X0378495Y0032075D01*
X0378652Y0032055D01*
X0378808Y0032031D01*
X0378964Y0032003D01*
X0379119Y0031972D01*
X0379274Y0031936D01*
X0379427Y0031897D01*
X0379579Y0031854D01*
X0379730Y0031807D01*
X0379880Y0031756D01*
X0380029Y0031701D01*
X0380176Y0031643D01*
X0380322Y0031581D01*
X0380466Y0031516D01*
X0380608Y0031446D01*
X0380749Y0031374D01*
X0380888Y0031297D01*
X0381024Y0031218D01*
X0381159Y0031134D01*
X0381292Y0031048D01*
X0381422Y0030958D01*
X0381550Y0030865D01*
X0381676Y0030769D01*
X0381799Y0030669D01*
X0381920Y0030567D01*
X0382038Y0030462D01*
X0382153Y0030353D01*
X0382266Y0030242D01*
X0382376Y0030128D01*
X0382483Y0030011D01*
X0382587Y0029892D01*
X0382688Y0029770D01*
X0382785Y0029645D01*
X0382880Y0029518D01*
X0382971Y0029389D01*
X0383060Y0029258D01*
X0383144Y0029124D01*
X0383226Y0028988D01*
X0383304Y0028851D01*
X0383378Y0028711D01*
X0383449Y0028569D01*
X0383517Y0028426D01*
X0383581Y0028281D01*
X0383641Y0028135D01*
X0383697Y0027987D01*
X0383750Y0027838D01*
X0383799Y0027687D01*
X0383844Y0027535D01*
X0383885Y0027382D01*
X0383923Y0027229D01*
X0383956Y0027074D01*
X0383986Y0026918D01*
X0384012Y0026762D01*
X0384033Y0026605D01*
X0384051Y0026448D01*
X0384065Y0026290D01*
X0384075Y0026132D01*
X0384081Y0025974D01*
X0384083Y0025816D01*
X0384081Y0025658D01*
X0384075Y0025500D01*
X0384065Y0025342D01*
X0384051Y0025184D01*
X0384033Y0025027D01*
X0384012Y0024870D01*
X0383986Y0024714D01*
X0383956Y0024558D01*
X0383923Y0024403D01*
X0383885Y0024250D01*
X0383844Y0024097D01*
X0383799Y0023945D01*
X0383750Y0023794D01*
X0383697Y0023645D01*
X0383641Y0023497D01*
X0383581Y0023351D01*
X0383517Y0023206D01*
X0383449Y0023063D01*
X0383378Y0022921D01*
X0383304Y0022781D01*
X0383226Y0022644D01*
X0383144Y0022508D01*
X0383060Y0022374D01*
X0382971Y0022243D01*
X0382880Y0022114D01*
X0382785Y0021987D01*
X0382688Y0021862D01*
X0382587Y0021740D01*
X0382483Y0021621D01*
X0382376Y0021504D01*
X0382266Y0021390D01*
X0382153Y0021279D01*
X0382038Y0021170D01*
X0381920Y0021065D01*
X0381799Y0020963D01*
X0381676Y0020863D01*
X0381550Y0020767D01*
X0381422Y0020674D01*
X0381292Y0020584D01*
X0381159Y0020498D01*
X0381024Y0020414D01*
X0380888Y0020335D01*
X0380749Y0020258D01*
X0380608Y0020186D01*
X0380466Y0020116D01*
X0380322Y0020051D01*
X0380176Y0019989D01*
X0380029Y0019931D01*
X0379880Y0019876D01*
X0379730Y0019825D01*
X0379579Y0019778D01*
X0379427Y0019735D01*
X0379274Y0019696D01*
X0379119Y0019660D01*
X0378964Y0019629D01*
X0378808Y0019601D01*
X0378652Y0019577D01*
X0378495Y0019557D01*
X0378337Y0019541D01*
X0378180Y0019529D01*
X0378021Y0019521D01*
X0377863Y0019517D01*
X0377705Y0019517D01*
X0377547Y0019521D01*
X0377388Y0019529D01*
X0377231Y0019541D01*
X0377073Y0019557D01*
X0376916Y0019577D01*
X0376760Y0019601D01*
X0376604Y0019629D01*
X0376449Y0019660D01*
X0376294Y0019696D01*
X0376141Y0019735D01*
X0375989Y0019778D01*
X0375838Y0019825D01*
X0375688Y0019876D01*
X0375539Y0019931D01*
X0375392Y0019989D01*
X0375246Y0020051D01*
X0375102Y0020116D01*
X0374960Y0020186D01*
X0374819Y0020258D01*
X0374680Y0020335D01*
X0374544Y0020414D01*
X0374409Y0020498D01*
X0374276Y0020584D01*
X0374146Y0020674D01*
X0374018Y0020767D01*
X0373892Y0020863D01*
X0373769Y0020963D01*
X0373648Y0021065D01*
X0373530Y0021170D01*
X0373415Y0021279D01*
X0373302Y0021390D01*
X0373192Y0021504D01*
X0373085Y0021621D01*
X0372981Y0021740D01*
X0372880Y0021862D01*
X0372783Y0021987D01*
X0372688Y0022114D01*
X0372597Y0022243D01*
X0372508Y0022374D01*
X0372424Y0022508D01*
X0372342Y0022644D01*
X0372264Y0022781D01*
X0372190Y0022921D01*
X0372119Y0023063D01*
X0372051Y0023206D01*
X0371987Y0023351D01*
X0371927Y0023497D01*
X0371871Y0023645D01*
X0371818Y0023794D01*
X0371769Y0023945D01*
X0371724Y0024097D01*
X0371683Y0024250D01*
X0371645Y0024403D01*
X0371612Y0024558D01*
X0371582Y0024714D01*
X0371556Y0024870D01*
X0371535Y0025027D01*
X0371517Y0025184D01*
X0371503Y0025342D01*
X0371493Y0025500D01*
X0371487Y0025658D01*
X0371485Y0025816D01*
X0371485Y0368335D02*
X0371487Y0368493D01*
X0371493Y0368651D01*
X0371503Y0368809D01*
X0371517Y0368967D01*
X0371535Y0369124D01*
X0371556Y0369281D01*
X0371582Y0369437D01*
X0371612Y0369593D01*
X0371645Y0369748D01*
X0371683Y0369901D01*
X0371724Y0370054D01*
X0371769Y0370206D01*
X0371818Y0370357D01*
X0371871Y0370506D01*
X0371927Y0370654D01*
X0371987Y0370800D01*
X0372051Y0370945D01*
X0372119Y0371088D01*
X0372190Y0371230D01*
X0372264Y0371370D01*
X0372342Y0371507D01*
X0372424Y0371643D01*
X0372508Y0371777D01*
X0372597Y0371908D01*
X0372688Y0372037D01*
X0372783Y0372164D01*
X0372880Y0372289D01*
X0372981Y0372411D01*
X0373085Y0372530D01*
X0373192Y0372647D01*
X0373302Y0372761D01*
X0373415Y0372872D01*
X0373530Y0372981D01*
X0373648Y0373086D01*
X0373769Y0373188D01*
X0373892Y0373288D01*
X0374018Y0373384D01*
X0374146Y0373477D01*
X0374276Y0373567D01*
X0374409Y0373653D01*
X0374544Y0373737D01*
X0374680Y0373816D01*
X0374819Y0373893D01*
X0374960Y0373965D01*
X0375102Y0374035D01*
X0375246Y0374100D01*
X0375392Y0374162D01*
X0375539Y0374220D01*
X0375688Y0374275D01*
X0375838Y0374326D01*
X0375989Y0374373D01*
X0376141Y0374416D01*
X0376294Y0374455D01*
X0376449Y0374491D01*
X0376604Y0374522D01*
X0376760Y0374550D01*
X0376916Y0374574D01*
X0377073Y0374594D01*
X0377231Y0374610D01*
X0377388Y0374622D01*
X0377547Y0374630D01*
X0377705Y0374634D01*
X0377863Y0374634D01*
X0378021Y0374630D01*
X0378180Y0374622D01*
X0378337Y0374610D01*
X0378495Y0374594D01*
X0378652Y0374574D01*
X0378808Y0374550D01*
X0378964Y0374522D01*
X0379119Y0374491D01*
X0379274Y0374455D01*
X0379427Y0374416D01*
X0379579Y0374373D01*
X0379730Y0374326D01*
X0379880Y0374275D01*
X0380029Y0374220D01*
X0380176Y0374162D01*
X0380322Y0374100D01*
X0380466Y0374035D01*
X0380608Y0373965D01*
X0380749Y0373893D01*
X0380888Y0373816D01*
X0381024Y0373737D01*
X0381159Y0373653D01*
X0381292Y0373567D01*
X0381422Y0373477D01*
X0381550Y0373384D01*
X0381676Y0373288D01*
X0381799Y0373188D01*
X0381920Y0373086D01*
X0382038Y0372981D01*
X0382153Y0372872D01*
X0382266Y0372761D01*
X0382376Y0372647D01*
X0382483Y0372530D01*
X0382587Y0372411D01*
X0382688Y0372289D01*
X0382785Y0372164D01*
X0382880Y0372037D01*
X0382971Y0371908D01*
X0383060Y0371777D01*
X0383144Y0371643D01*
X0383226Y0371507D01*
X0383304Y0371370D01*
X0383378Y0371230D01*
X0383449Y0371088D01*
X0383517Y0370945D01*
X0383581Y0370800D01*
X0383641Y0370654D01*
X0383697Y0370506D01*
X0383750Y0370357D01*
X0383799Y0370206D01*
X0383844Y0370054D01*
X0383885Y0369901D01*
X0383923Y0369748D01*
X0383956Y0369593D01*
X0383986Y0369437D01*
X0384012Y0369281D01*
X0384033Y0369124D01*
X0384051Y0368967D01*
X0384065Y0368809D01*
X0384075Y0368651D01*
X0384081Y0368493D01*
X0384083Y0368335D01*
X0384081Y0368177D01*
X0384075Y0368019D01*
X0384065Y0367861D01*
X0384051Y0367703D01*
X0384033Y0367546D01*
X0384012Y0367389D01*
X0383986Y0367233D01*
X0383956Y0367077D01*
X0383923Y0366922D01*
X0383885Y0366769D01*
X0383844Y0366616D01*
X0383799Y0366464D01*
X0383750Y0366313D01*
X0383697Y0366164D01*
X0383641Y0366016D01*
X0383581Y0365870D01*
X0383517Y0365725D01*
X0383449Y0365582D01*
X0383378Y0365440D01*
X0383304Y0365300D01*
X0383226Y0365163D01*
X0383144Y0365027D01*
X0383060Y0364893D01*
X0382971Y0364762D01*
X0382880Y0364633D01*
X0382785Y0364506D01*
X0382688Y0364381D01*
X0382587Y0364259D01*
X0382483Y0364140D01*
X0382376Y0364023D01*
X0382266Y0363909D01*
X0382153Y0363798D01*
X0382038Y0363689D01*
X0381920Y0363584D01*
X0381799Y0363482D01*
X0381676Y0363382D01*
X0381550Y0363286D01*
X0381422Y0363193D01*
X0381292Y0363103D01*
X0381159Y0363017D01*
X0381024Y0362933D01*
X0380888Y0362854D01*
X0380749Y0362777D01*
X0380608Y0362705D01*
X0380466Y0362635D01*
X0380322Y0362570D01*
X0380176Y0362508D01*
X0380029Y0362450D01*
X0379880Y0362395D01*
X0379730Y0362344D01*
X0379579Y0362297D01*
X0379427Y0362254D01*
X0379274Y0362215D01*
X0379119Y0362179D01*
X0378964Y0362148D01*
X0378808Y0362120D01*
X0378652Y0362096D01*
X0378495Y0362076D01*
X0378337Y0362060D01*
X0378180Y0362048D01*
X0378021Y0362040D01*
X0377863Y0362036D01*
X0377705Y0362036D01*
X0377547Y0362040D01*
X0377388Y0362048D01*
X0377231Y0362060D01*
X0377073Y0362076D01*
X0376916Y0362096D01*
X0376760Y0362120D01*
X0376604Y0362148D01*
X0376449Y0362179D01*
X0376294Y0362215D01*
X0376141Y0362254D01*
X0375989Y0362297D01*
X0375838Y0362344D01*
X0375688Y0362395D01*
X0375539Y0362450D01*
X0375392Y0362508D01*
X0375246Y0362570D01*
X0375102Y0362635D01*
X0374960Y0362705D01*
X0374819Y0362777D01*
X0374680Y0362854D01*
X0374544Y0362933D01*
X0374409Y0363017D01*
X0374276Y0363103D01*
X0374146Y0363193D01*
X0374018Y0363286D01*
X0373892Y0363382D01*
X0373769Y0363482D01*
X0373648Y0363584D01*
X0373530Y0363689D01*
X0373415Y0363798D01*
X0373302Y0363909D01*
X0373192Y0364023D01*
X0373085Y0364140D01*
X0372981Y0364259D01*
X0372880Y0364381D01*
X0372783Y0364506D01*
X0372688Y0364633D01*
X0372597Y0364762D01*
X0372508Y0364893D01*
X0372424Y0365027D01*
X0372342Y0365163D01*
X0372264Y0365300D01*
X0372190Y0365440D01*
X0372119Y0365582D01*
X0372051Y0365725D01*
X0371987Y0365870D01*
X0371927Y0366016D01*
X0371871Y0366164D01*
X0371818Y0366313D01*
X0371769Y0366464D01*
X0371724Y0366616D01*
X0371683Y0366769D01*
X0371645Y0366922D01*
X0371612Y0367077D01*
X0371582Y0367233D01*
X0371556Y0367389D01*
X0371535Y0367546D01*
X0371517Y0367703D01*
X0371503Y0367861D01*
X0371493Y0368019D01*
X0371487Y0368177D01*
X0371485Y0368335D01*
X0028966Y0368335D02*
X0028968Y0368493D01*
X0028974Y0368651D01*
X0028984Y0368809D01*
X0028998Y0368967D01*
X0029016Y0369124D01*
X0029037Y0369281D01*
X0029063Y0369437D01*
X0029093Y0369593D01*
X0029126Y0369748D01*
X0029164Y0369901D01*
X0029205Y0370054D01*
X0029250Y0370206D01*
X0029299Y0370357D01*
X0029352Y0370506D01*
X0029408Y0370654D01*
X0029468Y0370800D01*
X0029532Y0370945D01*
X0029600Y0371088D01*
X0029671Y0371230D01*
X0029745Y0371370D01*
X0029823Y0371507D01*
X0029905Y0371643D01*
X0029989Y0371777D01*
X0030078Y0371908D01*
X0030169Y0372037D01*
X0030264Y0372164D01*
X0030361Y0372289D01*
X0030462Y0372411D01*
X0030566Y0372530D01*
X0030673Y0372647D01*
X0030783Y0372761D01*
X0030896Y0372872D01*
X0031011Y0372981D01*
X0031129Y0373086D01*
X0031250Y0373188D01*
X0031373Y0373288D01*
X0031499Y0373384D01*
X0031627Y0373477D01*
X0031757Y0373567D01*
X0031890Y0373653D01*
X0032025Y0373737D01*
X0032161Y0373816D01*
X0032300Y0373893D01*
X0032441Y0373965D01*
X0032583Y0374035D01*
X0032727Y0374100D01*
X0032873Y0374162D01*
X0033020Y0374220D01*
X0033169Y0374275D01*
X0033319Y0374326D01*
X0033470Y0374373D01*
X0033622Y0374416D01*
X0033775Y0374455D01*
X0033930Y0374491D01*
X0034085Y0374522D01*
X0034241Y0374550D01*
X0034397Y0374574D01*
X0034554Y0374594D01*
X0034712Y0374610D01*
X0034869Y0374622D01*
X0035028Y0374630D01*
X0035186Y0374634D01*
X0035344Y0374634D01*
X0035502Y0374630D01*
X0035661Y0374622D01*
X0035818Y0374610D01*
X0035976Y0374594D01*
X0036133Y0374574D01*
X0036289Y0374550D01*
X0036445Y0374522D01*
X0036600Y0374491D01*
X0036755Y0374455D01*
X0036908Y0374416D01*
X0037060Y0374373D01*
X0037211Y0374326D01*
X0037361Y0374275D01*
X0037510Y0374220D01*
X0037657Y0374162D01*
X0037803Y0374100D01*
X0037947Y0374035D01*
X0038089Y0373965D01*
X0038230Y0373893D01*
X0038369Y0373816D01*
X0038505Y0373737D01*
X0038640Y0373653D01*
X0038773Y0373567D01*
X0038903Y0373477D01*
X0039031Y0373384D01*
X0039157Y0373288D01*
X0039280Y0373188D01*
X0039401Y0373086D01*
X0039519Y0372981D01*
X0039634Y0372872D01*
X0039747Y0372761D01*
X0039857Y0372647D01*
X0039964Y0372530D01*
X0040068Y0372411D01*
X0040169Y0372289D01*
X0040266Y0372164D01*
X0040361Y0372037D01*
X0040452Y0371908D01*
X0040541Y0371777D01*
X0040625Y0371643D01*
X0040707Y0371507D01*
X0040785Y0371370D01*
X0040859Y0371230D01*
X0040930Y0371088D01*
X0040998Y0370945D01*
X0041062Y0370800D01*
X0041122Y0370654D01*
X0041178Y0370506D01*
X0041231Y0370357D01*
X0041280Y0370206D01*
X0041325Y0370054D01*
X0041366Y0369901D01*
X0041404Y0369748D01*
X0041437Y0369593D01*
X0041467Y0369437D01*
X0041493Y0369281D01*
X0041514Y0369124D01*
X0041532Y0368967D01*
X0041546Y0368809D01*
X0041556Y0368651D01*
X0041562Y0368493D01*
X0041564Y0368335D01*
X0041562Y0368177D01*
X0041556Y0368019D01*
X0041546Y0367861D01*
X0041532Y0367703D01*
X0041514Y0367546D01*
X0041493Y0367389D01*
X0041467Y0367233D01*
X0041437Y0367077D01*
X0041404Y0366922D01*
X0041366Y0366769D01*
X0041325Y0366616D01*
X0041280Y0366464D01*
X0041231Y0366313D01*
X0041178Y0366164D01*
X0041122Y0366016D01*
X0041062Y0365870D01*
X0040998Y0365725D01*
X0040930Y0365582D01*
X0040859Y0365440D01*
X0040785Y0365300D01*
X0040707Y0365163D01*
X0040625Y0365027D01*
X0040541Y0364893D01*
X0040452Y0364762D01*
X0040361Y0364633D01*
X0040266Y0364506D01*
X0040169Y0364381D01*
X0040068Y0364259D01*
X0039964Y0364140D01*
X0039857Y0364023D01*
X0039747Y0363909D01*
X0039634Y0363798D01*
X0039519Y0363689D01*
X0039401Y0363584D01*
X0039280Y0363482D01*
X0039157Y0363382D01*
X0039031Y0363286D01*
X0038903Y0363193D01*
X0038773Y0363103D01*
X0038640Y0363017D01*
X0038505Y0362933D01*
X0038369Y0362854D01*
X0038230Y0362777D01*
X0038089Y0362705D01*
X0037947Y0362635D01*
X0037803Y0362570D01*
X0037657Y0362508D01*
X0037510Y0362450D01*
X0037361Y0362395D01*
X0037211Y0362344D01*
X0037060Y0362297D01*
X0036908Y0362254D01*
X0036755Y0362215D01*
X0036600Y0362179D01*
X0036445Y0362148D01*
X0036289Y0362120D01*
X0036133Y0362096D01*
X0035976Y0362076D01*
X0035818Y0362060D01*
X0035661Y0362048D01*
X0035502Y0362040D01*
X0035344Y0362036D01*
X0035186Y0362036D01*
X0035028Y0362040D01*
X0034869Y0362048D01*
X0034712Y0362060D01*
X0034554Y0362076D01*
X0034397Y0362096D01*
X0034241Y0362120D01*
X0034085Y0362148D01*
X0033930Y0362179D01*
X0033775Y0362215D01*
X0033622Y0362254D01*
X0033470Y0362297D01*
X0033319Y0362344D01*
X0033169Y0362395D01*
X0033020Y0362450D01*
X0032873Y0362508D01*
X0032727Y0362570D01*
X0032583Y0362635D01*
X0032441Y0362705D01*
X0032300Y0362777D01*
X0032161Y0362854D01*
X0032025Y0362933D01*
X0031890Y0363017D01*
X0031757Y0363103D01*
X0031627Y0363193D01*
X0031499Y0363286D01*
X0031373Y0363382D01*
X0031250Y0363482D01*
X0031129Y0363584D01*
X0031011Y0363689D01*
X0030896Y0363798D01*
X0030783Y0363909D01*
X0030673Y0364023D01*
X0030566Y0364140D01*
X0030462Y0364259D01*
X0030361Y0364381D01*
X0030264Y0364506D01*
X0030169Y0364633D01*
X0030078Y0364762D01*
X0029989Y0364893D01*
X0029905Y0365027D01*
X0029823Y0365163D01*
X0029745Y0365300D01*
X0029671Y0365440D01*
X0029600Y0365582D01*
X0029532Y0365725D01*
X0029468Y0365870D01*
X0029408Y0366016D01*
X0029352Y0366164D01*
X0029299Y0366313D01*
X0029250Y0366464D01*
X0029205Y0366616D01*
X0029164Y0366769D01*
X0029126Y0366922D01*
X0029093Y0367077D01*
X0029063Y0367233D01*
X0029037Y0367389D01*
X0029016Y0367546D01*
X0028998Y0367703D01*
X0028984Y0367861D01*
X0028974Y0368019D01*
X0028968Y0368177D01*
X0028966Y0368335D01*
M02*
