G75*
%MOIN*%
%OFA0B0*%
%FSLAX25Y25*%
%IPPOS*%
%LPD*%
%AMOC8*
5,1,8,0,0,1.08239X$1,22.5*
%
%ADD10C,0.00700*%
%ADD11C,0.00600*%
%ADD12R,0.04331X0.03937*%
%ADD13R,0.06299X0.07087*%
%ADD14OC8,0.08500*%
%ADD15C,0.05118*%
%ADD16C,0.10000*%
%ADD17OC8,0.06000*%
%ADD18R,0.03150X0.03150*%
%ADD19C,0.03600*%
%ADD20R,0.07874X0.03937*%
%ADD21OC8,0.06600*%
%ADD22C,0.15000*%
%ADD23C,0.07000*%
%ADD24C,0.00500*%
%ADD25C,0.02362*%
%ADD26C,0.01000*%
D10*
X0051363Y0074985D02*
X0055316Y0074985D01*
X0056634Y0076302D01*
X0056634Y0077620D01*
X0055316Y0078938D01*
X0051363Y0078938D01*
X0055316Y0078938D02*
X0056634Y0080256D01*
X0056634Y0081574D01*
X0055316Y0082891D01*
X0051363Y0082891D01*
X0051363Y0074985D01*
X0059281Y0076302D02*
X0059281Y0081574D01*
X0060599Y0082891D01*
X0063235Y0082891D01*
X0064553Y0081574D01*
X0064553Y0076302D01*
X0063235Y0074985D01*
X0060599Y0074985D01*
X0059281Y0076302D01*
X0067200Y0074985D02*
X0067200Y0080256D01*
X0069836Y0082891D01*
X0072471Y0080256D01*
X0072471Y0074985D01*
X0075119Y0074985D02*
X0075119Y0082891D01*
X0079072Y0082891D01*
X0080390Y0081574D01*
X0080390Y0078938D01*
X0079072Y0077620D01*
X0075119Y0077620D01*
X0077754Y0077620D02*
X0080390Y0074985D01*
X0083038Y0074985D02*
X0086991Y0074985D01*
X0088309Y0076302D01*
X0088309Y0081574D01*
X0086991Y0082891D01*
X0083038Y0082891D01*
X0083038Y0074985D01*
X0072471Y0078938D02*
X0067200Y0078938D01*
X0068518Y0086796D02*
X0071153Y0086796D01*
X0072471Y0088113D01*
X0072471Y0094702D01*
X0075119Y0093385D02*
X0075119Y0088113D01*
X0076437Y0086796D01*
X0079072Y0086796D01*
X0080390Y0088113D01*
X0080390Y0090749D01*
X0077754Y0090749D01*
X0075119Y0093385D02*
X0076437Y0094702D01*
X0079072Y0094702D01*
X0080390Y0093385D01*
X0083038Y0094702D02*
X0083038Y0086796D01*
X0083038Y0090749D02*
X0088309Y0090749D01*
X0088309Y0094702D02*
X0088309Y0086796D01*
X0093592Y0086796D02*
X0093592Y0094702D01*
X0090956Y0094702D02*
X0096228Y0094702D01*
X0098875Y0094702D02*
X0098875Y0086796D01*
X0104146Y0086796D01*
X0106794Y0086796D02*
X0106794Y0094702D01*
X0110747Y0094702D01*
X0112065Y0093385D01*
X0112065Y0090749D01*
X0110747Y0089431D01*
X0106794Y0089431D01*
X0109430Y0089431D02*
X0112065Y0086796D01*
X0104146Y0094702D02*
X0098875Y0094702D01*
X0098875Y0090749D02*
X0101511Y0090749D01*
X0096228Y0098607D02*
X0096228Y0106513D01*
X0096228Y0102560D02*
X0090956Y0102560D01*
X0090956Y0098607D02*
X0090956Y0106513D01*
X0088309Y0106513D02*
X0083038Y0106513D01*
X0085673Y0106513D02*
X0085673Y0098607D01*
X0080390Y0098607D02*
X0077754Y0101242D01*
X0075119Y0098607D01*
X0075119Y0106513D01*
X0072471Y0105196D02*
X0071153Y0106513D01*
X0068518Y0106513D01*
X0067200Y0105196D01*
X0067200Y0099924D01*
X0068518Y0098607D01*
X0071153Y0098607D01*
X0072471Y0099924D01*
X0072471Y0105196D01*
X0064553Y0105196D02*
X0064553Y0102560D01*
X0063235Y0101242D01*
X0059281Y0101242D01*
X0059281Y0098607D02*
X0059281Y0106513D01*
X0063235Y0106513D01*
X0064553Y0105196D01*
X0061917Y0101242D02*
X0064553Y0098607D01*
X0061917Y0094702D02*
X0064553Y0092067D01*
X0064553Y0086796D01*
X0067200Y0088113D02*
X0068518Y0086796D01*
X0067200Y0088113D02*
X0067200Y0094702D01*
X0064553Y0090749D02*
X0059281Y0090749D01*
X0059281Y0092067D02*
X0061917Y0094702D01*
X0059281Y0092067D02*
X0059281Y0086796D01*
X0056634Y0088113D02*
X0056634Y0093385D01*
X0055316Y0094702D01*
X0051363Y0094702D01*
X0051363Y0086796D01*
X0055316Y0086796D01*
X0056634Y0088113D01*
X0055316Y0098607D02*
X0052680Y0098607D01*
X0051363Y0099924D01*
X0051363Y0105196D01*
X0052680Y0106513D01*
X0055316Y0106513D01*
X0056634Y0105196D01*
X0056634Y0102560D02*
X0053998Y0102560D01*
X0056634Y0102560D02*
X0056634Y0099924D01*
X0055316Y0098607D01*
X0080390Y0098607D02*
X0080390Y0106513D01*
D11*
X0098557Y0081340D02*
X0101759Y0081340D01*
X0102827Y0080273D01*
X0102827Y0078137D01*
X0101759Y0077070D01*
X0098557Y0077070D01*
X0100692Y0077070D02*
X0102827Y0074935D01*
X0105002Y0076002D02*
X0105002Y0078137D01*
X0106070Y0079205D01*
X0108205Y0079205D01*
X0109273Y0078137D01*
X0109273Y0077070D01*
X0105002Y0077070D01*
X0105002Y0076002D02*
X0106070Y0074935D01*
X0108205Y0074935D01*
X0111448Y0079205D02*
X0113583Y0074935D01*
X0115718Y0079205D01*
X0124339Y0079205D02*
X0126474Y0081340D01*
X0126474Y0074935D01*
X0124339Y0074935D02*
X0128609Y0074935D01*
X0130784Y0074935D02*
X0131852Y0074935D01*
X0131852Y0076002D01*
X0130784Y0076002D01*
X0130784Y0074935D01*
X0134007Y0076002D02*
X0138277Y0080273D01*
X0138277Y0076002D01*
X0137210Y0074935D01*
X0135074Y0074935D01*
X0134007Y0076002D01*
X0134007Y0080273D01*
X0135074Y0081340D01*
X0137210Y0081340D01*
X0138277Y0080273D01*
X0098557Y0081340D02*
X0098557Y0074935D01*
D12*
X0233493Y0204556D03*
X0240186Y0204556D03*
X0268926Y0188808D03*
X0275619Y0188808D03*
X0312233Y0204556D03*
X0318926Y0204556D03*
X0347666Y0188808D03*
X0354359Y0188808D03*
X0359871Y0289595D03*
X0366564Y0289595D03*
X0343729Y0308099D03*
X0337036Y0308099D03*
X0327194Y0289595D03*
X0320501Y0289595D03*
X0304359Y0308099D03*
X0297666Y0308099D03*
X0287824Y0289595D03*
X0281131Y0289595D03*
X0264989Y0308099D03*
X0258296Y0308099D03*
X0248454Y0289595D03*
X0241761Y0289595D03*
X0225619Y0308099D03*
X0218926Y0308099D03*
D13*
X0235658Y0305343D03*
X0246682Y0305343D03*
X0258887Y0289595D03*
X0269910Y0289595D03*
X0275028Y0305343D03*
X0286052Y0305343D03*
X0299831Y0289595D03*
X0310855Y0289595D03*
X0314398Y0305343D03*
X0325422Y0305343D03*
X0339202Y0289595D03*
X0350225Y0289595D03*
X0353769Y0305343D03*
X0364792Y0305343D03*
X0352587Y0204556D03*
X0341564Y0204556D03*
X0325028Y0188808D03*
X0314005Y0188808D03*
X0273847Y0204556D03*
X0262824Y0204556D03*
X0246288Y0188808D03*
X0235265Y0188808D03*
X0232115Y0289595D03*
X0221091Y0289595D03*
D14*
X0383454Y0286131D03*
X0383454Y0296131D03*
X0383454Y0306131D03*
X0383454Y0316131D03*
X0383454Y0326131D03*
X0383454Y0336131D03*
X0383454Y0346131D03*
X0383454Y0276131D03*
X0383454Y0266131D03*
X0383454Y0246131D03*
X0383454Y0236131D03*
X0383454Y0226131D03*
X0383454Y0216131D03*
X0383454Y0206131D03*
X0383454Y0196131D03*
X0383454Y0186131D03*
X0383454Y0176131D03*
X0383454Y0166131D03*
X0383454Y0156131D03*
X0383454Y0146131D03*
X0383454Y0136131D03*
X0383454Y0126131D03*
X0383454Y0116131D03*
X0327942Y0102194D03*
X0317942Y0102194D03*
X0307942Y0102194D03*
X0269674Y0102194D03*
X0259674Y0102194D03*
X0249674Y0102194D03*
X0288926Y0037430D03*
X0298926Y0037430D03*
X0308926Y0037430D03*
X0318926Y0037430D03*
X0328926Y0037430D03*
D15*
X0320855Y0355973D03*
X0310855Y0365973D03*
X0300855Y0355973D03*
X0281485Y0355973D03*
X0271485Y0365973D03*
X0261485Y0355973D03*
X0242115Y0355973D03*
X0232115Y0365973D03*
X0222115Y0355973D03*
X0222115Y0375973D03*
X0242115Y0375973D03*
X0261485Y0375973D03*
X0281485Y0375973D03*
X0300855Y0375973D03*
X0320855Y0375973D03*
X0340225Y0375973D03*
X0350225Y0365973D03*
X0340225Y0355973D03*
X0360225Y0355973D03*
X0360225Y0375973D03*
D16*
X0190422Y0180580D03*
X0160422Y0180580D03*
X0111682Y0179989D03*
X0081682Y0179989D03*
D17*
X0040265Y0179162D03*
X0040265Y0169162D03*
X0030265Y0169162D03*
X0030265Y0179162D03*
X0030265Y0189162D03*
X0040265Y0189162D03*
X0040265Y0199162D03*
X0030265Y0199162D03*
X0030265Y0209162D03*
X0040265Y0209162D03*
X0040265Y0219162D03*
X0040265Y0229162D03*
X0030265Y0229162D03*
X0030265Y0219162D03*
X0030265Y0239162D03*
X0040265Y0239162D03*
X0040265Y0249162D03*
X0030265Y0249162D03*
X0030265Y0259162D03*
X0040265Y0259162D03*
X0040265Y0269162D03*
X0030265Y0269162D03*
X0030265Y0279162D03*
X0040265Y0279162D03*
X0040265Y0289162D03*
X0030265Y0289162D03*
X0030265Y0299162D03*
X0040265Y0299162D03*
X0040265Y0309162D03*
X0030265Y0309162D03*
X0030265Y0319162D03*
X0040265Y0319162D03*
X0040265Y0329162D03*
X0030265Y0329162D03*
X0030265Y0339162D03*
X0040265Y0339162D03*
X0040265Y0349162D03*
X0030265Y0349162D03*
X0030265Y0159162D03*
X0040265Y0159162D03*
D18*
X0035363Y0138808D03*
X0028867Y0138808D03*
X0028867Y0125028D03*
X0035363Y0125028D03*
X0035363Y0111249D03*
X0028867Y0111249D03*
X0028867Y0097469D03*
X0035363Y0097469D03*
X0035363Y0083690D03*
X0028867Y0083690D03*
X0028867Y0069910D03*
X0035363Y0069910D03*
D19*
X0229753Y0148099D03*
X0229753Y0158099D03*
X0229753Y0168099D03*
X0269123Y0168099D03*
X0269123Y0158099D03*
X0269123Y0148099D03*
X0269674Y0121879D03*
X0259674Y0121879D03*
X0249674Y0121879D03*
X0307942Y0121879D03*
X0317942Y0121879D03*
X0327942Y0121879D03*
X0308493Y0148099D03*
X0308493Y0158099D03*
X0308493Y0168099D03*
X0347863Y0168099D03*
X0347863Y0158099D03*
X0347863Y0148099D03*
D20*
X0341477Y0079320D03*
X0341477Y0073414D03*
X0341477Y0067509D03*
X0341477Y0061603D03*
X0341477Y0055698D03*
X0341477Y0049792D03*
X0341477Y0043887D03*
X0341477Y0037981D03*
X0341477Y0032076D03*
X0341477Y0026170D03*
X0274485Y0026170D03*
X0274485Y0032076D03*
X0274485Y0037981D03*
X0274485Y0043887D03*
X0274485Y0049792D03*
X0274485Y0055698D03*
X0274485Y0061603D03*
X0274485Y0067509D03*
X0274485Y0073414D03*
X0274485Y0079320D03*
D21*
X0179123Y0228454D03*
X0179123Y0258454D03*
X0179123Y0308454D03*
X0179123Y0318454D03*
X0179123Y0328454D03*
X0179123Y0338454D03*
X0179123Y0348454D03*
X0099989Y0348454D03*
X0099989Y0338454D03*
X0099989Y0328454D03*
X0099989Y0318454D03*
X0099989Y0308454D03*
X0099989Y0258454D03*
X0099989Y0228454D03*
D22*
X0127548Y0218572D03*
X0206682Y0218572D03*
X0143690Y0358335D03*
X0064556Y0358335D03*
D23*
X0277745Y0221091D03*
X0287745Y0221091D03*
X0297745Y0221091D03*
X0307745Y0221091D03*
X0368335Y0102784D03*
X0368335Y0092784D03*
X0368335Y0082784D03*
X0368335Y0072784D03*
X0368335Y0062784D03*
X0368335Y0052784D03*
D24*
X0368517Y0053068D01*
X0368517Y0056068D01*
X0373017Y0060568D01*
X0373017Y0065068D01*
X0370017Y0068068D01*
X0360517Y0068068D01*
X0332017Y0096568D01*
X0283017Y0096568D01*
X0269517Y0110068D01*
X0239517Y0110068D01*
X0193517Y0156068D01*
X0192517Y0162568D02*
X0190517Y0162568D01*
X0102056Y0162568D01*
X0088217Y0176406D01*
X0088217Y0184367D01*
X0079017Y0193568D01*
X0029517Y0193568D01*
X0026017Y0197068D01*
X0026017Y0211068D01*
X0028517Y0213568D01*
X0031017Y0213568D01*
X0036517Y0219068D01*
X0040017Y0219068D01*
X0040265Y0219162D01*
X0038517Y0223568D02*
X0051017Y0223568D01*
X0054517Y0223568D02*
X0054517Y0216068D01*
X0050017Y0219068D02*
X0046517Y0219068D01*
X0041017Y0213568D01*
X0034517Y0213568D01*
X0030517Y0209568D01*
X0030265Y0209162D01*
X0040265Y0209162D02*
X0040517Y0209568D01*
X0051517Y0209568D01*
X0081017Y0239068D01*
X0109517Y0239068D01*
X0115017Y0233568D01*
X0120517Y0233568D01*
X0115017Y0243568D02*
X0163017Y0195568D01*
X0163017Y0191068D01*
X0167017Y0193068D02*
X0167017Y0173131D01*
X0168017Y0177119D02*
X0179068Y0166068D01*
X0195017Y0166068D01*
X0248017Y0113068D01*
X0375965Y0113068D01*
X0379753Y0109280D01*
X0385265Y0109280D01*
X0389017Y0113032D01*
X0389017Y0160568D01*
X0383454Y0166131D01*
X0383454Y0156131D02*
X0383017Y0156068D01*
X0353017Y0126068D01*
X0317517Y0126068D01*
X0314517Y0123068D01*
X0314517Y0122568D01*
X0309517Y0117568D01*
X0247450Y0117568D01*
X0205103Y0159914D01*
X0205103Y0166099D01*
X0195517Y0167068D02*
X0247517Y0115068D01*
X0324517Y0115068D01*
X0325017Y0115568D01*
X0322017Y0117568D02*
X0318017Y0121568D01*
X0317942Y0121879D01*
X0311017Y0123068D02*
X0311017Y0120568D01*
X0309017Y0118568D01*
X0287517Y0118568D01*
X0222517Y0183568D01*
X0222517Y0221568D01*
X0147017Y0297068D01*
X0060017Y0297068D01*
X0042517Y0314568D01*
X0028517Y0314568D01*
X0026017Y0317068D01*
X0026017Y0331068D01*
X0029517Y0334568D01*
X0032017Y0334568D01*
X0036017Y0338568D01*
X0036017Y0345068D01*
X0040017Y0349068D01*
X0040265Y0349162D01*
X0036017Y0348568D02*
X0036017Y0351068D01*
X0038517Y0353568D01*
X0057017Y0353568D01*
X0061017Y0349568D01*
X0094517Y0349568D01*
X0098017Y0353068D01*
X0136517Y0353068D01*
X0140017Y0349568D01*
X0173517Y0349568D01*
X0177017Y0353068D01*
X0219517Y0353068D01*
X0228517Y0344068D01*
X0267517Y0344068D01*
X0301017Y0310568D01*
X0301017Y0297068D01*
X0306517Y0291568D01*
X0306517Y0274568D01*
X0329517Y0251568D01*
X0386017Y0251568D01*
X0389017Y0248568D01*
X0389017Y0232068D01*
X0383517Y0226568D01*
X0383454Y0226131D01*
X0383454Y0246131D02*
X0383017Y0246568D01*
X0326017Y0246568D01*
X0291517Y0281068D01*
X0291517Y0283568D01*
X0292017Y0284068D01*
X0292017Y0308068D01*
X0276517Y0323568D01*
X0038517Y0323568D01*
X0034517Y0319568D01*
X0030517Y0319568D01*
X0030265Y0319162D01*
X0025017Y0316568D02*
X0025017Y0334068D01*
X0030017Y0339068D01*
X0030265Y0339162D01*
X0029517Y0344568D02*
X0032017Y0344568D01*
X0036017Y0348568D01*
X0029517Y0344568D02*
X0024017Y0339068D01*
X0024017Y0309068D01*
X0028517Y0304568D01*
X0032017Y0304568D01*
X0036517Y0309068D01*
X0040017Y0309068D01*
X0040265Y0309162D01*
X0042017Y0313568D02*
X0028017Y0313568D01*
X0025017Y0316568D01*
X0042017Y0313568D02*
X0059517Y0296068D01*
X0130517Y0296068D01*
X0197017Y0229568D01*
X0208017Y0229568D01*
X0214017Y0223568D01*
X0217017Y0223568D01*
X0223517Y0222068D02*
X0143517Y0302068D01*
X0122017Y0302068D01*
X0118517Y0298568D01*
X0116517Y0298568D01*
X0100017Y0315068D01*
X0100017Y0318068D01*
X0099989Y0318454D01*
X0117517Y0301068D02*
X0137517Y0321068D01*
X0173017Y0321068D01*
X0162017Y0317568D02*
X0162017Y0285068D01*
X0229017Y0218068D01*
X0229017Y0182068D01*
X0245517Y0165568D01*
X0251517Y0176068D02*
X0269017Y0158568D01*
X0269123Y0158099D01*
X0269517Y0154068D02*
X0285017Y0169568D01*
X0285017Y0187568D01*
X0287517Y0183068D02*
X0287517Y0146568D01*
X0311017Y0123068D01*
X0307942Y0121879D02*
X0307517Y0122068D01*
X0285517Y0122068D01*
X0223517Y0184068D01*
X0223517Y0222068D01*
X0233493Y0237233D02*
X0267745Y0237233D01*
X0270894Y0234083D01*
X0263517Y0223568D02*
X0280017Y0207068D01*
X0280017Y0205068D01*
X0273847Y0204556D02*
X0273517Y0204568D01*
X0271517Y0204568D01*
X0266517Y0209568D01*
X0245517Y0209568D01*
X0240517Y0204568D01*
X0240186Y0204556D01*
X0240517Y0204068D01*
X0240517Y0194568D01*
X0246017Y0189068D01*
X0246288Y0188808D01*
X0246517Y0188568D01*
X0253017Y0182068D01*
X0263017Y0182068D01*
X0273017Y0182068D01*
X0275517Y0184568D01*
X0275517Y0188568D01*
X0275619Y0188808D01*
X0269517Y0176568D02*
X0292517Y0199568D01*
X0292517Y0248068D01*
X0285517Y0255068D01*
X0285517Y0285068D01*
X0289517Y0285068D02*
X0289517Y0281068D01*
X0288017Y0279568D01*
X0287824Y0289595D02*
X0287517Y0290068D01*
X0287517Y0304068D01*
X0286517Y0305068D01*
X0286052Y0305343D01*
X0286017Y0305568D01*
X0283517Y0305568D01*
X0279017Y0310068D01*
X0266517Y0310068D01*
X0265017Y0308568D01*
X0264989Y0308099D01*
X0264517Y0308568D01*
X0261517Y0311568D01*
X0255517Y0311568D01*
X0253375Y0313709D01*
X0253375Y0313808D01*
X0264989Y0308099D02*
X0265017Y0308068D01*
X0265017Y0294568D01*
X0269517Y0290068D01*
X0269910Y0289595D01*
X0263517Y0287568D02*
X0263517Y0301568D01*
X0262517Y0302568D01*
X0252017Y0302568D02*
X0252017Y0285068D01*
X0247017Y0280068D01*
X0247017Y0273568D01*
X0248517Y0285068D02*
X0227517Y0264068D01*
X0223017Y0264068D01*
X0223017Y0255068D01*
X0224517Y0253568D01*
X0224517Y0250068D02*
X0220517Y0254068D01*
X0220517Y0265068D01*
X0241017Y0285568D01*
X0245017Y0285568D01*
X0248454Y0289595D02*
X0248017Y0290068D01*
X0248017Y0304068D01*
X0246682Y0305343D01*
X0246517Y0305568D01*
X0242017Y0310068D01*
X0232017Y0310068D01*
X0230517Y0308568D01*
X0226017Y0308568D01*
X0225619Y0308099D01*
X0226017Y0308068D01*
X0226017Y0296068D01*
X0232017Y0290068D01*
X0232115Y0289595D01*
X0246682Y0305343D02*
X0247017Y0305068D01*
X0248017Y0304068D01*
X0263517Y0287568D02*
X0277517Y0273568D01*
X0295017Y0297068D02*
X0295017Y0304568D01*
X0293017Y0306568D01*
X0293017Y0308568D01*
X0258517Y0343068D01*
X0044017Y0343068D01*
X0040517Y0339568D01*
X0040265Y0339162D01*
X0030265Y0289162D02*
X0030017Y0289068D01*
X0030017Y0285068D01*
X0025017Y0280068D01*
X0025017Y0188068D01*
X0029517Y0183568D01*
X0069017Y0183568D01*
X0182517Y0070068D01*
X0248017Y0070068D01*
X0268017Y0050068D01*
X0268017Y0025068D01*
X0270517Y0022568D01*
X0278517Y0022568D01*
X0283517Y0027568D01*
X0283517Y0040068D01*
X0296517Y0053068D01*
X0282517Y0067068D01*
X0274517Y0067068D01*
X0274485Y0067509D01*
X0274517Y0073068D02*
X0274485Y0073414D01*
X0274017Y0073068D01*
X0272017Y0073068D01*
X0269017Y0070068D01*
X0269017Y0035568D01*
X0272017Y0032568D01*
X0274017Y0032568D01*
X0274485Y0032076D01*
X0286517Y0028068D02*
X0289517Y0028068D01*
X0298517Y0037068D01*
X0298926Y0037430D01*
X0306517Y0043068D02*
X0313017Y0043068D01*
X0335017Y0065068D01*
X0335017Y0066068D01*
X0339517Y0067568D02*
X0341017Y0067568D01*
X0341477Y0067509D01*
X0341517Y0067068D01*
X0364017Y0067068D01*
X0368017Y0063068D01*
X0368335Y0062784D01*
X0374017Y0051568D02*
X0374017Y0097068D01*
X0368517Y0102568D01*
X0368335Y0102784D01*
X0375391Y0112068D02*
X0379753Y0107706D01*
X0385658Y0107706D01*
X0390017Y0112064D01*
X0390017Y0199568D01*
X0383454Y0206131D01*
X0381017Y0188568D02*
X0383454Y0186131D01*
X0381017Y0188568D02*
X0354517Y0188568D01*
X0354359Y0188808D01*
X0354017Y0189068D01*
X0354017Y0203068D01*
X0353017Y0204068D01*
X0352587Y0204556D01*
X0351017Y0192568D02*
X0351017Y0186068D01*
X0348017Y0183068D01*
X0348017Y0168568D01*
X0347863Y0168099D01*
X0326517Y0176568D02*
X0308517Y0158568D01*
X0308493Y0158099D01*
X0299017Y0157568D02*
X0308017Y0148568D01*
X0308493Y0148099D01*
X0299017Y0157568D02*
X0299017Y0187068D01*
X0305517Y0187068D01*
X0299017Y0187068D02*
X0299017Y0201068D01*
X0297517Y0203068D02*
X0296517Y0202068D01*
X0296517Y0155568D01*
X0323517Y0128568D01*
X0327017Y0111068D02*
X0244017Y0111068D01*
X0192517Y0162568D01*
X0194517Y0165068D02*
X0104674Y0165068D01*
X0089595Y0180146D01*
X0089595Y0188808D01*
X0083835Y0194568D01*
X0038517Y0194568D01*
X0034017Y0199068D01*
X0030517Y0199068D01*
X0030265Y0199162D01*
X0030517Y0179568D02*
X0030265Y0179162D01*
X0030517Y0179568D02*
X0040017Y0179568D01*
X0040265Y0179162D01*
X0099359Y0120068D01*
X0115068Y0120068D01*
X0168017Y0177119D02*
X0168017Y0239068D01*
X0157517Y0249568D01*
X0040517Y0249568D01*
X0040265Y0249162D01*
X0038517Y0244568D02*
X0115517Y0244568D01*
X0167017Y0193068D01*
X0169017Y0177891D02*
X0179839Y0167068D01*
X0195517Y0167068D01*
X0194517Y0165068D02*
X0247517Y0112068D01*
X0375391Y0112068D01*
X0368017Y0083068D02*
X0355017Y0083068D01*
X0327017Y0111068D01*
X0324517Y0079568D02*
X0341017Y0079568D01*
X0341477Y0079320D01*
X0339017Y0075568D02*
X0341017Y0073568D01*
X0341477Y0073414D01*
X0339017Y0075568D02*
X0328017Y0075568D01*
X0334017Y0073068D02*
X0339517Y0067568D01*
X0334017Y0073068D02*
X0274517Y0073068D01*
X0296517Y0053068D02*
X0306517Y0043068D01*
X0313017Y0043068D02*
X0318517Y0037568D01*
X0318926Y0037430D01*
X0328926Y0037430D02*
X0329017Y0037568D01*
X0341017Y0037568D01*
X0341477Y0037981D01*
X0341517Y0032568D02*
X0341477Y0032076D01*
X0341517Y0032068D01*
X0341517Y0026568D01*
X0341477Y0026170D01*
X0341517Y0032568D02*
X0355017Y0032568D01*
X0374017Y0051568D01*
X0368335Y0082784D02*
X0368017Y0083068D01*
X0308493Y0168099D02*
X0308017Y0168568D01*
X0308017Y0204568D01*
X0303017Y0209568D01*
X0303017Y0216068D01*
X0307745Y0221091D02*
X0308017Y0221068D01*
X0318517Y0210568D01*
X0318517Y0204568D01*
X0318926Y0204556D01*
X0319017Y0204068D01*
X0319017Y0195068D01*
X0325017Y0189068D01*
X0325028Y0188808D01*
X0326517Y0183068D02*
X0326517Y0176568D01*
X0297517Y0203068D02*
X0297517Y0221068D01*
X0297745Y0221091D01*
X0305017Y0250068D02*
X0313517Y0250068D01*
X0319517Y0265068D02*
X0319517Y0280568D01*
X0324017Y0285068D01*
X0327517Y0285068D02*
X0322017Y0279568D01*
X0323517Y0273568D02*
X0331017Y0273568D01*
X0331017Y0302568D01*
X0327017Y0303568D02*
X0326517Y0304068D01*
X0331721Y0309272D01*
X0331721Y0317351D01*
X0320517Y0310068D02*
X0325017Y0305568D01*
X0325422Y0305343D01*
X0326517Y0304068D01*
X0325517Y0305068D01*
X0325422Y0305343D01*
X0327017Y0303568D02*
X0327017Y0290068D01*
X0327194Y0289595D01*
X0331017Y0273568D02*
X0356517Y0273568D01*
X0378017Y0295068D01*
X0378017Y0331068D01*
X0383017Y0336068D01*
X0383454Y0336131D01*
X0389017Y0333568D02*
X0383517Y0328068D01*
X0383517Y0326568D01*
X0383454Y0326131D01*
X0389017Y0333568D02*
X0389017Y0348568D01*
X0386017Y0351568D01*
X0296017Y0351568D01*
X0292517Y0348068D01*
X0310517Y0310068D02*
X0320517Y0310068D01*
X0310517Y0310068D02*
X0309017Y0308568D01*
X0304517Y0308568D01*
X0304359Y0308099D01*
X0304517Y0308068D01*
X0304517Y0296068D01*
X0310517Y0290068D01*
X0310855Y0289595D01*
X0344017Y0296068D02*
X0350017Y0290068D01*
X0350225Y0289595D01*
X0350517Y0289568D01*
X0354017Y0289568D01*
X0357517Y0286068D01*
X0363017Y0286068D01*
X0366517Y0289568D01*
X0366564Y0289595D01*
X0366517Y0290068D01*
X0366517Y0303568D01*
X0365017Y0305068D01*
X0364792Y0305343D01*
X0365017Y0305568D01*
X0365017Y0309068D01*
X0374017Y0318068D01*
X0344017Y0308068D02*
X0344017Y0296068D01*
X0344017Y0308068D02*
X0343729Y0308099D01*
X0343517Y0308568D01*
X0360017Y0273568D02*
X0360017Y0255068D01*
X0332902Y0225619D02*
X0333296Y0225225D01*
X0360068Y0225225D01*
X0269517Y0176568D02*
X0269517Y0168568D01*
X0269123Y0168099D01*
X0269517Y0154068D02*
X0269517Y0148568D01*
X0269123Y0148099D01*
X0251517Y0176068D02*
X0251517Y0180068D01*
X0233690Y0196682D02*
X0234017Y0197068D01*
X0230017Y0185568D02*
X0230017Y0246568D01*
X0226517Y0250068D01*
X0224517Y0250068D01*
X0198017Y0232068D02*
X0140517Y0289568D01*
X0120017Y0272068D02*
X0123517Y0268568D01*
X0120017Y0272068D02*
X0090017Y0272068D01*
X0095517Y0279068D02*
X0100017Y0274568D01*
X0100517Y0274568D01*
X0101517Y0250568D02*
X0158017Y0250568D01*
X0169017Y0239568D01*
X0169017Y0177891D01*
X0220017Y0158068D02*
X0229517Y0148568D01*
X0229753Y0148099D01*
X0220017Y0158068D02*
X0220017Y0200568D01*
X0230017Y0185568D02*
X0231517Y0184068D01*
X0231517Y0183068D01*
X0115017Y0243568D02*
X0038517Y0243568D01*
X0034517Y0239568D01*
X0030517Y0239568D01*
X0030265Y0239162D01*
X0038517Y0244568D02*
X0034017Y0249068D01*
X0030517Y0249068D01*
X0030265Y0249162D01*
X0040265Y0239162D02*
X0040517Y0239068D01*
X0040517Y0237568D01*
X0054517Y0223568D01*
X0038517Y0223568D02*
X0034517Y0219568D01*
X0030517Y0219568D01*
X0030265Y0219162D01*
X0040265Y0179162D02*
X0040517Y0179068D01*
X0040017Y0169568D02*
X0030517Y0169568D01*
X0030265Y0169162D01*
X0040017Y0169568D02*
X0040265Y0169162D01*
X0047517Y0160068D02*
X0039517Y0152068D01*
X0039517Y0089568D01*
X0035517Y0084068D02*
X0035363Y0083690D01*
X0035517Y0083568D01*
X0035517Y0080068D01*
X0038017Y0080068D01*
X0035517Y0080068D02*
X0035517Y0070068D01*
X0035363Y0069910D01*
X0032017Y0066568D02*
X0029017Y0069568D01*
X0028867Y0069910D01*
X0032017Y0080568D02*
X0029017Y0083568D01*
X0028867Y0083690D01*
X0035517Y0084068D02*
X0035517Y0097068D01*
X0035363Y0097469D01*
X0035517Y0097568D01*
X0035517Y0111068D01*
X0035363Y0111249D01*
X0035517Y0111568D01*
X0035517Y0124568D01*
X0035363Y0125028D01*
X0035517Y0125068D01*
X0035517Y0138568D01*
X0035363Y0138808D01*
X0032017Y0142068D02*
X0029017Y0139068D01*
X0028867Y0138808D01*
X0032017Y0128068D02*
X0029017Y0125068D01*
X0028867Y0125028D01*
X0032017Y0114568D02*
X0029017Y0111568D01*
X0028867Y0111249D01*
X0032017Y0100568D02*
X0029017Y0097568D01*
X0028867Y0097469D01*
X0101517Y0250568D02*
X0073017Y0279068D01*
X0040517Y0279068D01*
X0040265Y0279162D01*
D25*
X0032017Y0066568D03*
X0038017Y0080068D03*
X0032017Y0080568D03*
X0039517Y0089568D03*
X0032017Y0100568D03*
X0032017Y0114568D03*
X0032017Y0128068D03*
X0032017Y0142068D03*
X0047517Y0160068D03*
X0054517Y0216068D03*
X0050017Y0219068D03*
X0051017Y0223568D03*
X0090017Y0272068D03*
X0095517Y0279068D03*
X0100517Y0274568D03*
X0123517Y0268568D03*
X0140517Y0289568D03*
X0125017Y0299568D03*
X0117517Y0301068D03*
X0143017Y0333068D03*
X0159517Y0330068D03*
X0173017Y0321068D03*
X0162017Y0317568D03*
X0219123Y0282312D03*
X0226017Y0296068D03*
X0241434Y0299568D03*
X0252017Y0302568D03*
X0262517Y0302568D03*
X0253375Y0313808D03*
X0252784Y0319910D03*
X0265517Y0317568D03*
X0280954Y0299568D03*
X0276209Y0295501D03*
X0285517Y0285068D03*
X0289517Y0285068D03*
X0293926Y0282318D03*
X0288017Y0279568D03*
X0277517Y0273568D03*
X0285517Y0255068D03*
X0305017Y0250068D03*
X0313517Y0250068D03*
X0319517Y0265068D03*
X0323517Y0273568D03*
X0322017Y0279568D03*
X0324017Y0285068D03*
X0327517Y0285068D03*
X0335658Y0282318D03*
X0320107Y0299791D03*
X0316170Y0295501D03*
X0331017Y0302568D03*
X0331721Y0317351D03*
X0344517Y0317068D03*
X0359267Y0299568D03*
X0355737Y0296091D03*
X0360017Y0273568D03*
X0360017Y0255068D03*
X0353517Y0239068D03*
X0360068Y0225225D03*
X0346288Y0218335D03*
X0332902Y0225619D03*
X0308099Y0208068D03*
X0303017Y0216068D03*
X0299017Y0201068D03*
X0305517Y0187068D03*
X0287517Y0183068D03*
X0285017Y0187568D03*
X0272267Y0184818D03*
X0263017Y0182068D03*
X0251517Y0180068D03*
X0245517Y0165568D03*
X0231517Y0183068D03*
X0233690Y0196682D03*
X0220017Y0200568D03*
X0217017Y0223568D03*
X0233493Y0237233D03*
X0226517Y0250068D03*
X0224517Y0253568D03*
X0216367Y0255934D03*
X0223017Y0264068D03*
X0247017Y0273568D03*
X0248517Y0285068D03*
X0245017Y0285568D03*
X0256131Y0282318D03*
X0223060Y0315776D03*
X0254556Y0247666D03*
X0270894Y0234083D03*
X0263517Y0223568D03*
X0280017Y0205068D03*
X0255017Y0194568D03*
X0205103Y0166099D03*
X0193517Y0156068D03*
X0190517Y0162568D03*
X0167017Y0173131D03*
X0163017Y0191068D03*
X0198017Y0232068D03*
X0120517Y0233568D03*
X0115068Y0120068D03*
X0224241Y0089005D03*
X0260658Y0081918D03*
X0298454Y0063808D03*
X0315517Y0063068D03*
X0328017Y0075568D03*
X0324517Y0079568D03*
X0335017Y0066068D03*
X0325017Y0115568D03*
X0322017Y0117568D03*
X0323517Y0128568D03*
X0334805Y0180606D03*
X0326517Y0183068D03*
X0351017Y0192568D03*
X0295017Y0297068D03*
X0305017Y0317568D03*
X0292517Y0348068D03*
X0374017Y0318068D03*
X0286517Y0028068D03*
D26*
X0334805Y0180606D02*
X0339464Y0180606D01*
X0347666Y0188808D01*
X0347267Y0189318D01*
X0347267Y0199068D01*
X0342017Y0204318D01*
X0341564Y0204556D01*
X0341267Y0204318D01*
X0312767Y0204318D02*
X0312767Y0190068D01*
X0314005Y0188808D01*
X0313517Y0189318D01*
X0312767Y0190068D01*
X0312767Y0204318D02*
X0312233Y0204556D01*
X0312767Y0205068D01*
X0311099Y0205068D01*
X0308099Y0208068D01*
X0282706Y0203178D02*
X0282706Y0288020D01*
X0281131Y0289595D01*
X0282509Y0288217D01*
X0281267Y0289068D02*
X0281131Y0289595D01*
X0280954Y0289595D01*
X0280954Y0299568D01*
X0275704Y0304818D01*
X0275267Y0304818D01*
X0275028Y0305343D01*
X0258296Y0308099D02*
X0258296Y0290186D01*
X0258887Y0289595D01*
X0258767Y0289068D01*
X0258767Y0284954D01*
X0256131Y0282318D01*
X0241761Y0289595D02*
X0241434Y0289922D01*
X0241434Y0299568D01*
X0235658Y0305343D01*
X0236267Y0304818D01*
X0241517Y0289818D02*
X0241761Y0289595D01*
X0221267Y0289068D02*
X0221267Y0284456D01*
X0219123Y0282312D01*
X0221267Y0289068D02*
X0221091Y0289595D01*
X0218926Y0291761D01*
X0218926Y0308099D01*
X0219017Y0308568D01*
X0258017Y0308568D02*
X0258296Y0308099D01*
X0293926Y0282318D02*
X0300676Y0289068D01*
X0302267Y0289068D01*
X0300676Y0289068D02*
X0300017Y0289068D01*
X0299831Y0289595D01*
X0297666Y0291761D01*
X0297666Y0308099D01*
X0314398Y0305343D02*
X0315017Y0304818D01*
X0320043Y0299791D01*
X0320107Y0299791D01*
X0320043Y0299791D02*
X0320267Y0299568D01*
X0320267Y0289818D01*
X0320501Y0289595D01*
X0337036Y0291761D02*
X0339202Y0289595D01*
X0339017Y0289068D01*
X0339017Y0285676D01*
X0335658Y0282318D01*
X0337036Y0291761D02*
X0337036Y0308099D01*
X0353769Y0305343D02*
X0354017Y0304818D01*
X0359267Y0299568D01*
X0359267Y0289818D01*
X0359871Y0289595D01*
X0282706Y0203178D02*
X0278572Y0199044D01*
X0268493Y0199044D01*
X0268335Y0199044D01*
X0268493Y0199044D02*
X0268517Y0199068D01*
X0263267Y0204318D01*
X0262824Y0204556D01*
X0268517Y0199068D02*
X0268517Y0189318D01*
X0268926Y0188808D01*
X0268517Y0188568D01*
X0272267Y0184818D01*
X0235517Y0188568D02*
X0235265Y0188808D01*
X0234767Y0189318D01*
X0234017Y0190068D01*
X0234017Y0197068D01*
X0234017Y0204318D01*
X0233493Y0204556D01*
X0234017Y0205068D01*
X0040265Y0159162D02*
X0039767Y0159318D01*
X0030767Y0159318D01*
X0030265Y0159162D01*
M02*
