G75*
%MOIN*%
%OFA0B0*%
%FSLAX25Y25*%
%IPPOS*%
%LPD*%
%AMOC8*
5,1,8,0,0,1.08239X$1,22.5*
%
%ADD10C,0.07800*%
%ADD11C,0.04724*%
%ADD12C,0.08268*%
%ADD13C,0.06000*%
%ADD14C,0.03975*%
%ADD15C,0.05906*%
%ADD16C,0.12598*%
%ADD17C,0.02756*%
%ADD18C,0.00500*%
%ADD19C,0.01600*%
D10*
X0249674Y0102194D03*
X0259674Y0102194D03*
X0269674Y0102194D03*
X0307942Y0102194D03*
X0317942Y0102194D03*
X0327942Y0102194D03*
X0383454Y0116131D03*
X0383454Y0126131D03*
X0383454Y0136131D03*
X0383454Y0146131D03*
X0383454Y0156131D03*
X0383454Y0166131D03*
X0383454Y0176131D03*
X0383454Y0186131D03*
X0383454Y0196131D03*
X0383454Y0206131D03*
X0383454Y0216131D03*
X0383454Y0226131D03*
X0383454Y0236131D03*
X0383454Y0246131D03*
X0383454Y0266131D03*
X0383454Y0276131D03*
X0383454Y0286131D03*
X0383454Y0296131D03*
X0383454Y0306131D03*
X0383454Y0316131D03*
X0383454Y0326131D03*
X0383454Y0336131D03*
X0383454Y0346131D03*
X0328926Y0037430D03*
X0318926Y0037430D03*
X0308926Y0037430D03*
X0298926Y0037430D03*
X0288926Y0037430D03*
D11*
X0281485Y0355973D03*
X0271485Y0365973D03*
X0261485Y0355973D03*
X0242115Y0355973D03*
X0232115Y0365973D03*
X0222115Y0355973D03*
X0222115Y0375973D03*
X0242115Y0375973D03*
X0261485Y0375973D03*
X0281485Y0375973D03*
X0300855Y0375973D03*
X0310855Y0365973D03*
X0320855Y0355973D03*
X0340225Y0355973D03*
X0350225Y0365973D03*
X0360225Y0355973D03*
X0360225Y0375973D03*
X0340225Y0375973D03*
X0320855Y0375973D03*
X0300855Y0355973D03*
D12*
X0190422Y0180580D03*
X0160422Y0180580D03*
X0111682Y0179989D03*
X0081682Y0179989D03*
D13*
X0040265Y0179162D03*
X0040265Y0169162D03*
X0030265Y0169162D03*
X0030265Y0179162D03*
X0030265Y0189162D03*
X0040265Y0189162D03*
X0040265Y0199162D03*
X0030265Y0199162D03*
X0030265Y0209162D03*
X0040265Y0209162D03*
X0040265Y0219162D03*
X0040265Y0229162D03*
X0030265Y0229162D03*
X0030265Y0219162D03*
X0030265Y0239162D03*
X0040265Y0239162D03*
X0040265Y0249162D03*
X0030265Y0249162D03*
X0030265Y0259162D03*
X0040265Y0259162D03*
X0040265Y0269162D03*
X0030265Y0269162D03*
X0030265Y0279162D03*
X0040265Y0279162D03*
X0040265Y0289162D03*
X0030265Y0289162D03*
X0030265Y0299162D03*
X0040265Y0299162D03*
X0040265Y0309162D03*
X0030265Y0309162D03*
X0030265Y0319162D03*
X0040265Y0319162D03*
X0040265Y0329162D03*
X0030265Y0329162D03*
X0030265Y0339162D03*
X0040265Y0339162D03*
X0040265Y0349162D03*
X0030265Y0349162D03*
X0030265Y0159162D03*
X0040265Y0159162D03*
D14*
X0229753Y0158099D03*
X0229753Y0168099D03*
X0229753Y0148099D03*
X0249674Y0121879D03*
X0259674Y0121879D03*
X0269674Y0121879D03*
X0269123Y0148099D03*
X0269123Y0158099D03*
X0269123Y0168099D03*
X0308493Y0168099D03*
X0308493Y0158099D03*
X0308493Y0148099D03*
X0307942Y0121879D03*
X0317942Y0121879D03*
X0327942Y0121879D03*
X0347863Y0148099D03*
X0347863Y0158099D03*
X0347863Y0168099D03*
D15*
X0307745Y0221091D03*
X0297745Y0221091D03*
X0287745Y0221091D03*
X0277745Y0221091D03*
X0179123Y0228454D03*
X0179123Y0258454D03*
X0179123Y0308454D03*
X0179123Y0318454D03*
X0179123Y0328454D03*
X0179123Y0338454D03*
X0179123Y0348454D03*
X0099989Y0348454D03*
X0099989Y0338454D03*
X0099989Y0328454D03*
X0099989Y0318454D03*
X0099989Y0308454D03*
X0099989Y0258454D03*
X0099989Y0228454D03*
X0368335Y0102784D03*
X0368335Y0092784D03*
X0368335Y0082784D03*
X0368335Y0072784D03*
X0368335Y0062784D03*
X0368335Y0052784D03*
D16*
X0206682Y0218572D03*
X0127548Y0218572D03*
X0143690Y0358335D03*
X0064556Y0358335D03*
D17*
X0032017Y0066568D03*
X0038017Y0080068D03*
X0032017Y0080568D03*
X0039517Y0089568D03*
X0032017Y0100568D03*
X0032017Y0114568D03*
X0032017Y0128068D03*
X0032017Y0142068D03*
X0047517Y0160068D03*
X0054517Y0216068D03*
X0050017Y0219068D03*
X0051017Y0223568D03*
X0090017Y0272068D03*
X0095517Y0279068D03*
X0100517Y0274568D03*
X0123517Y0268568D03*
X0140517Y0289568D03*
X0125017Y0299568D03*
X0117517Y0301068D03*
X0143017Y0333068D03*
X0159517Y0330068D03*
X0173017Y0321068D03*
X0162017Y0317568D03*
X0219123Y0282312D03*
X0226017Y0296068D03*
X0241434Y0299568D03*
X0252017Y0302568D03*
X0262517Y0302568D03*
X0253375Y0313808D03*
X0252784Y0319910D03*
X0265517Y0317568D03*
X0280954Y0299568D03*
X0276209Y0295501D03*
X0285517Y0285068D03*
X0289517Y0285068D03*
X0293926Y0282318D03*
X0288017Y0279568D03*
X0277517Y0273568D03*
X0285517Y0255068D03*
X0305017Y0250068D03*
X0313517Y0250068D03*
X0319517Y0265068D03*
X0323517Y0273568D03*
X0322017Y0279568D03*
X0324017Y0285068D03*
X0327517Y0285068D03*
X0335658Y0282318D03*
X0320107Y0299791D03*
X0316170Y0295501D03*
X0331017Y0302568D03*
X0331721Y0317351D03*
X0344517Y0317068D03*
X0359267Y0299568D03*
X0355737Y0296091D03*
X0360017Y0273568D03*
X0360017Y0255068D03*
X0353517Y0239068D03*
X0360068Y0225225D03*
X0346288Y0218335D03*
X0332902Y0225619D03*
X0308099Y0208068D03*
X0303017Y0216068D03*
X0299017Y0201068D03*
X0305517Y0187068D03*
X0287517Y0183068D03*
X0285017Y0187568D03*
X0272267Y0184818D03*
X0263017Y0182068D03*
X0251517Y0180068D03*
X0245517Y0165568D03*
X0231517Y0183068D03*
X0233690Y0196682D03*
X0220017Y0200568D03*
X0217017Y0223568D03*
X0233493Y0237233D03*
X0226517Y0250068D03*
X0224517Y0253568D03*
X0216367Y0255934D03*
X0223017Y0264068D03*
X0247017Y0273568D03*
X0248517Y0285068D03*
X0245017Y0285568D03*
X0256131Y0282318D03*
X0223060Y0315776D03*
X0254556Y0247666D03*
X0270894Y0234083D03*
X0263517Y0223568D03*
X0280017Y0205068D03*
X0255017Y0194568D03*
X0205103Y0166099D03*
X0193517Y0156068D03*
X0190517Y0162568D03*
X0167017Y0173131D03*
X0163017Y0191068D03*
X0198017Y0232068D03*
X0120517Y0233568D03*
X0115068Y0120068D03*
X0224241Y0089005D03*
X0260658Y0081918D03*
X0298454Y0063808D03*
X0315517Y0063068D03*
X0328017Y0075568D03*
X0324517Y0079568D03*
X0335017Y0066068D03*
X0325017Y0115568D03*
X0322017Y0117568D03*
X0323517Y0128568D03*
X0334805Y0180606D03*
X0326517Y0183068D03*
X0351017Y0192568D03*
X0295017Y0297068D03*
X0305017Y0317568D03*
X0292517Y0348068D03*
X0374017Y0318068D03*
X0286517Y0028068D03*
D18*
X0315517Y0063068D02*
X0328017Y0075568D01*
X0329017Y0096068D02*
X0378017Y0145068D01*
X0378017Y0191068D01*
X0383017Y0196068D01*
X0383454Y0196131D01*
X0372548Y0225225D02*
X0360068Y0225225D01*
X0372548Y0225225D02*
X0383454Y0236131D01*
X0386017Y0251568D02*
X0371517Y0251568D01*
X0310017Y0190068D01*
X0287517Y0190068D01*
X0285017Y0187568D01*
X0313017Y0194568D02*
X0255017Y0194568D01*
X0241517Y0181068D02*
X0241517Y0272068D01*
X0180517Y0333068D01*
X0143017Y0333068D01*
X0120517Y0304068D02*
X0120517Y0244501D01*
X0143532Y0221485D01*
X0143532Y0183690D01*
X0230154Y0097068D01*
X0312517Y0097068D01*
X0317517Y0102068D01*
X0317942Y0102194D01*
X0307942Y0102194D02*
X0307517Y0102568D01*
X0307517Y0115068D01*
X0241517Y0181068D01*
X0238017Y0136568D02*
X0238017Y0259568D01*
X0179517Y0318068D01*
X0179123Y0318454D01*
X0179517Y0328068D02*
X0179123Y0328454D01*
X0179517Y0328068D02*
X0182017Y0328068D01*
X0240517Y0269568D01*
X0240517Y0135568D01*
X0259517Y0116568D01*
X0259517Y0102568D01*
X0259674Y0102194D01*
X0249674Y0121879D02*
X0249517Y0122068D01*
X0249517Y0125068D01*
X0238017Y0136568D01*
X0313017Y0194568D02*
X0363017Y0244568D01*
X0363017Y0261568D01*
X0377517Y0276068D01*
X0383017Y0276068D01*
X0383454Y0276131D01*
X0388517Y0278568D02*
X0383517Y0283568D01*
X0383517Y0286068D01*
X0383454Y0286131D01*
X0388517Y0278568D02*
X0388517Y0254068D01*
X0386017Y0251568D01*
X0353517Y0239068D02*
X0295517Y0297068D01*
X0295017Y0297068D01*
X0254753Y0321485D02*
X0253178Y0319910D01*
X0252784Y0319910D01*
X0254753Y0321485D02*
X0378099Y0321485D01*
X0383454Y0316131D01*
X0324438Y0234083D02*
X0270894Y0234083D01*
X0233493Y0237233D02*
X0218139Y0237233D01*
X0112627Y0342745D01*
X0112627Y0356721D01*
X0104359Y0364989D01*
X0093926Y0364989D01*
X0048099Y0319162D01*
X0040265Y0319162D01*
X0100017Y0324568D02*
X0120517Y0304068D01*
X0100017Y0324568D02*
X0100017Y0328068D01*
X0099989Y0328454D01*
X0047517Y0199068D02*
X0040517Y0199068D01*
X0040265Y0199162D01*
X0047517Y0199068D02*
X0150517Y0096068D01*
X0329017Y0096068D01*
X0368335Y0102784D02*
X0381682Y0116131D01*
X0383454Y0116131D01*
X0332902Y0225619D02*
X0324438Y0234083D01*
D19*
X0190422Y0180580D02*
X0179123Y0191879D01*
X0179123Y0228454D01*
X0111682Y0179989D02*
X0099989Y0191682D01*
X0099989Y0228454D01*
M02*
